<svg xmlns="http://www.w3.org/2000/svg" width="286.5" height="402.464" viewBox="0 0 286.5 402.464">
  <g id="Grupo_70823" data-name="Grupo 70823" transform="translate(-265 -5794)">
    <rect id="Rectángulo_5227" data-name="Rectángulo 5227" width="286.5" height="402.464" transform="translate(265 5794)" fill="none"/>
    <g id="Grupo_70822" data-name="Grupo 70822" transform="translate(265 5826.743)">
      <g id="Grupo_70773" data-name="Grupo 70773" transform="translate(0 224.192)">
        <g id="Grupo_70772" data-name="Grupo 70772" transform="translate(0 0)">
          <path id="Trazado_110555" data-name="Trazado 110555" d="M2436.584,1437.335l-23.883-.007-12.633,0a8.943,8.943,0,0,1-8.912-8.92l.028-88.249a8.937,8.937,0,0,1,8.916-8.912l11.2,0,25.312.007a8.94,8.94,0,0,1,8.912,8.918l-.025,88.25A8.944,8.944,0,0,1,2436.584,1437.335Z" transform="translate(-2390.04 -1323.62)" fill="#c0d8fb" opacity="0.5"/>
          <path id="Trazado_110556" data-name="Trazado 110556" d="M2448.718,1566.144l-.634-4.645h0l-.634-4.646a4.366,4.366,0,0,0-4.9-3.724c-.131.018-.26.044-.386.073a4.314,4.314,0,0,0,.748-2.057,4.349,4.349,0,0,0,8.245-2.684l-1.091-4.559h0l-1.091-4.561a4.352,4.352,0,0,0-8.465,2.026l1.644,6.87a4.306,4.306,0,0,0-3.433-1.849,11.923,11.923,0,0,0-.9-9.179l-7.228-5.974a4.35,4.35,0,0,0-5.931,6.344,4.314,4.314,0,0,0-1.16.149l-4.523,1.238h0l-4.521,1.237a4.359,4.359,0,0,0-3.076,3.171l-.475-1.137h0l-1.807-4.325a4.352,4.352,0,0,0-8.031,3.355l1.807,4.325h0l1.158,2.772a4.362,4.362,0,0,0-2.75,3.822l-.237,4.682h0l-.237,4.684a4.337,4.337,0,0,0,5.6,4.382,4.388,4.388,0,0,0-.346,2.941,4.32,4.32,0,0,0-1.845,2.1l-1.79,4.333h0l-1.792,4.334a15.753,15.753,0,0,1,8.573,6.355,4.364,4.364,0,0,0,6.1-.811l2.849-3.722h0l2.851-3.724a2.84,2.84,0,0,1,3.675-2.4l.747-.515-1.034,1.351h0l-2.85,3.722a4.352,4.352,0,0,0,6.912,5.291l2.85-3.722h0l2.85-3.724c.037-.048.067-.1.1-.147a4.334,4.334,0,0,0,.834.981l-1.015,1.326a4.352,4.352,0,0,0,6.912,5.291l5.7-7.446a4.367,4.367,0,0,0-.811-6.1,4.289,4.289,0,0,0-1.04-.584c.053-.005.105-.006.158-.013A4.363,4.363,0,0,0,2448.718,1566.144Zm-39.218-4.153.081-1.6a4.171,4.171,0,0,0,1.62,1.573l-1.994,1.375A4.3,4.3,0,0,0,2409.5,1561.991Zm29.327-3.962.852,6.247a4.363,4.363,0,0,0-4.518-2.394,4.3,4.3,0,0,0,1.186-1.061l2.446-3.2C2438.8,1557.759,2438.808,1557.894,2438.826,1558.029Zm-9.9-16.874,1.1.906-1.129.778A4.31,4.31,0,0,0,2428.928,1541.155Zm.946,13.8a1.172,1.172,0,0,1,.166-2.331l3.43-2.366Zm2.846,8.144a4.382,4.382,0,0,0-3.28-.99l.093-1.172a4.3,4.3,0,0,0,3.975,1.539A4.364,4.364,0,0,0,2432.72,1563.1Zm-8.767-16.471a4.363,4.363,0,0,0,.033,4.885c.019.027.041.052.06.079a.956.956,0,1,1-.722-1.44,4.339,4.339,0,0,0-1.663-2.884l-.013-.009Zm-4.332,10.465,1.679-2.193c-.024.135-.043.272-.054.412l-.318,4.026a4.359,4.359,0,0,0-2.211-1.064l.9-1.181Zm-7.858,18.395.493-1.192a4.318,4.318,0,0,0,.208-2.647c.1-.058.2-.116.3-.182l7.719-5.324c.05-.034.094-.073.142-.109a4.349,4.349,0,0,0,.491,1.191l-1.374.948a6.576,6.576,0,0,1-5.646,4.273Zm20.477-5.365.241,1.007a4.327,4.327,0,0,0-1.205-.342Zm9.193,1.016-.336-1.4h0l-.064-.267a1.1,1.1,0,1,1,.4,1.669Zm-26.362-22.421-2.362,3.085h0l-2.85,3.722c-.013.017-.023.035-.036.052l.149-2.951c0-.076,0-.15,0-.225.134-.041.267-.088.4-.143a2.984,2.984,0,0,1,4.7-3.541Z" transform="translate(-2397.109 -1477.448)" fill="#afcdfb"/>
          <path id="Trazado_110557" data-name="Trazado 110557" d="M2412.7,1437.328l-12.633,0a8.943,8.943,0,0,1-8.912-8.92l.028-88.249a8.937,8.937,0,0,1,8.916-8.912l11.2,0a10.924,10.924,0,0,1,1.462,5.512l-.029,99.678Q2412.737,1436.888,2412.7,1437.328Z" transform="translate(-2390.04 -1323.62)" fill="#afcdfb" opacity="0.5"/>
          <path id="Trazado_110558" data-name="Trazado 110558" d="M2441.138,1309.454l-33.918-.01-19.251-.007a1.736,1.736,0,0,1-1.733-1.734l0-8.31a1.738,1.738,0,0,1,1.734-1.733l19.224.006h0l33.942.009a1.738,1.738,0,0,1,1.732,1.734l0,8.311A1.739,1.739,0,0,1,2441.138,1309.454Z" transform="translate(-2386.236 -1297.659)" fill="#f99746"/>
          <path id="Trazado_110559" data-name="Trazado 110559" d="M2407.22,1309.443l-19.251-.007a1.736,1.736,0,0,1-1.733-1.734l0-8.31a1.738,1.738,0,0,1,1.734-1.733l19.224.006h0a1.739,1.739,0,0,1,1.729,1.733l0,8.311A1.739,1.739,0,0,1,2407.22,1309.443Z" transform="translate(-2386.236 -1297.659)" fill="#ef7e29"/>
        </g>
      </g>
      <g id="Grupo_70774" data-name="Grupo 70774" transform="translate(33.506)">
        <rect id="Rectángulo_32279" data-name="Rectángulo 32279" width="251.886" height="338.407" transform="translate(0 0)" fill="#cdedfc"/>
        <rect id="Rectángulo_32280" data-name="Rectángulo 32280" width="225.109" height="312.256" transform="translate(14.771 10.968)" fill="#fff"/>
        <path id="Trazado_110560" data-name="Trazado 110560" d="M1552.233,308.7v11.463a11.458,11.458,0,0,0,11.452,11.463H1625.2a11.458,11.458,0,0,0,11.453-11.463V308.7Z" transform="translate(-1470.817 -308.699)" fill="#f99746"/>
      </g>
      <g id="Grupo_70799" data-name="Grupo 70799" transform="translate(75.168 102.789)">
        <g id="Grupo_70776" data-name="Grupo 70776" transform="translate(78.008 183.093)">
          <path id="Trazado_110570" data-name="Trazado 110570" d="M1737.173,1591.275a26.48,26.48,0,0,1-9.793,1.533c-4.175-.348-6.526-2.536-6.619-6.16a9.3,9.3,0,0,1,3.459-7.437q-.034-.294-.056-.59c-.154-2.027.279-3.375,1.287-4,1.631-1.016,4.052.374,4.155.434l-.542.926c-.543-.316-2.155-1.011-3.047-.45-.769.481-.861,1.808-.793,2.886a22.78,22.78,0,0,1,7.423-3.322,39.848,39.848,0,0,1,6.994-1.2c.012-.252.033-.479.06-.663.074-.5.247-1.08.736-1.2a.807.807,0,0,1,.865.452,2.58,2.58,0,0,1,.329,1.3c.777-.018,1.5,0,2.139.043l.018-.041a12.277,12.277,0,0,1,.165-3.734c.271-1.242.717-1.869,1.342-1.93a.82.82,0,0,1,.85.526c.35.842-.306,3.116-1.254,5.3a.08.08,0,0,0,0,.012c.889.15,1.493.4,1.682.74a.8.8,0,0,1-.216,1.006,1.266,1.266,0,0,1-1.568.336,1.532,1.532,0,0,1-.574-.658,11.224,11.224,0,0,1-2.114,3.147,1.056,1.056,0,0,1-1.248.181,1.155,1.155,0,0,1-.271-.217,14.692,14.692,0,0,1-.817,1.69c-1.122,1.969-2.385,2.982-3.654,2.921a2.065,2.065,0,0,1-1.368-.606,19.869,19.869,0,0,1-2.459,4.046,2.88,2.88,0,0,1-3.2,1.135c-2.08-.65-3.961-3.659-4.666-7.225a8.041,8.041,0,0,0-2.583,6.157c.08,3.093,1.977,4.814,5.637,5.119,9.238.769,25.436-7.82,26.664-14.139h0C1753.134,1582.739,1745.448,1588.594,1737.173,1591.275Zm-11.816-11.635c.563,3.761,2.446,6.525,4.043,7.024a1.828,1.828,0,0,0,2.051-.787,18.485,18.485,0,0,0,2.583-4.414,6.5,6.5,0,0,1-.446-1.4,10.073,10.073,0,0,1,.005-4.109,27.08,27.08,0,0,0-5.057,1.76A16.581,16.581,0,0,0,1725.357,1579.64Zm9.862,1.759a1.232,1.232,0,0,0,.943.643c.812.034,1.788-.831,2.674-2.382a14.153,14.153,0,0,0,1.106-2.5,10.6,10.6,0,0,1-.3-2.18c-1.189.1-2.485.256-3.819.5C1736.517,1576.832,1736.114,1579.12,1735.219,1581.4Zm5.842-4.219c.167.5.317.6.318.6a10.063,10.063,0,0,0,1.907-2.9c-.509-.02-1.083-.022-1.708-.006A13.053,13.053,0,0,1,1741.06,1577.18Zm-6.294-1.378a8.213,8.213,0,0,0-.137,4.01C1735.167,1578.034,1735.278,1576.5,1734.766,1575.8Zm10.558-.684s0,0,.006,0Zm-.158-5.5a6.682,6.682,0,0,0-.254,1.122A8.255,8.255,0,0,0,1745.166,1569.614Z" transform="translate(-1720.757 -1568.125)" fill="#f99746"/>
        </g>
        <g id="Grupo_70779" data-name="Grupo 70779" transform="translate(0 0)">
          <g id="Grupo_70777" data-name="Grupo 70777" transform="translate(0 6.981)">
            <path id="Trazado_110571" data-name="Trazado 110571" d="M1417.811,832.991H1377.1V792.278h40.713Zm-38.8-1.918h36.878V794.2h-36.878Z" transform="translate(-1377.098 -792.278)" fill="#abddda"/>
          </g>
          <g id="Grupo_70778" data-name="Grupo 70778" transform="translate(5.928)">
            <path id="Trazado_110572" data-name="Trazado 110572" d="M1418.654,801.036a2.876,2.876,0,0,1-2.217-1.043l-12.563-15.2a2.876,2.876,0,1,1,4.434-3.665l9.964,12.053,18.025-30.252a2.877,2.877,0,0,1,4.942,2.945l-20.113,33.758a2.876,2.876,0,0,1-2.251,1.4C1418.8,801.033,1418.728,801.036,1418.654,801.036Z" transform="translate(-1403.215 -761.525)" fill="#f99746"/>
          </g>
        </g>
        <g id="Grupo_70782" data-name="Grupo 70782" transform="translate(0 63.308)">
          <g id="Grupo_70780" data-name="Grupo 70780" transform="translate(0 7.332)">
            <path id="Trazado_110573" data-name="Trazado 110573" d="M1417.811,1113.435H1377.1v-40.713h40.713Zm-38.8-1.918h36.878V1074.64h-36.878Z" transform="translate(-1377.098 -1072.722)" fill="#abddda"/>
          </g>
          <g id="Grupo_70781" data-name="Grupo 70781" transform="translate(5.928)">
            <path id="Trazado_110574" data-name="Trazado 110574" d="M1418.654,1079.934a2.877,2.877,0,0,1-2.217-1.043l-12.563-15.2a2.876,2.876,0,1,1,4.434-3.665l9.964,12.053,18.025-30.252a2.877,2.877,0,0,1,4.942,2.945l-20.113,33.758a2.875,2.875,0,0,1-2.251,1.4C1418.8,1079.931,1418.728,1079.934,1418.654,1079.934Z" transform="translate(-1403.215 -1040.423)" fill="#f99746"/>
          </g>
        </g>
        <g id="Grupo_70785" data-name="Grupo 70785" transform="translate(0 125.049)">
          <g id="Grupo_70783" data-name="Grupo 70783" transform="translate(0 7.931)">
            <path id="Trazado_110575" data-name="Trazado 110575" d="M1417.811,1388.071H1377.1v-40.714h40.713Zm-38.8-1.917h36.878v-36.878h-36.878Z" transform="translate(-1377.098 -1347.357)" fill="#abddda"/>
          </g>
          <g id="Grupo_70784" data-name="Grupo 70784" transform="translate(5.928)">
            <path id="Trazado_110576" data-name="Trazado 110576" d="M1418.654,1351.93a2.876,2.876,0,0,1-2.217-1.043l-12.563-15.2a2.876,2.876,0,0,1,4.434-3.665l9.964,12.053,18.025-30.253a2.877,2.877,0,0,1,4.942,2.945l-20.113,33.758a2.876,2.876,0,0,1-2.251,1.4C1418.8,1351.927,1418.728,1351.93,1418.654,1351.93Z" transform="translate(-1403.215 -1312.419)" fill="#f99746"/>
          </g>
        </g>
        <g id="Grupo_70789" data-name="Grupo 70789" transform="translate(68.152 16.48)" opacity="0.5">
          <g id="Grupo_70786" data-name="Grupo 70786">
            <rect id="Rectángulo_32281" data-name="Rectángulo 32281" width="53.088" height="3.972" fill="#abddda"/>
            <rect id="Rectángulo_32282" data-name="Rectángulo 32282" width="12.066" height="3.972" transform="translate(86.132)" fill="#abddda"/>
          </g>
          <g id="Grupo_70787" data-name="Grupo 70787" transform="translate(0 17.742)">
            <rect id="Rectángulo_32283" data-name="Rectángulo 32283" width="53.088" height="3.972" fill="#abddda"/>
            <rect id="Rectángulo_32284" data-name="Rectángulo 32284" width="17.989" height="3.972" transform="translate(80.209)" fill="#abddda"/>
          </g>
          <g id="Grupo_70788" data-name="Grupo 70788" transform="translate(0 8.871)">
            <rect id="Rectángulo_32285" data-name="Rectángulo 32285" width="14.786" height="3.972" transform="translate(83.412)" fill="#abddda"/>
            <rect id="Rectángulo_32286" data-name="Rectángulo 32286" width="14.786" height="3.972" transform="translate(39.221)" fill="#abddda"/>
            <rect id="Rectángulo_32287" data-name="Rectángulo 32287" width="32.854" height="3.972" fill="#abddda"/>
          </g>
        </g>
        <g id="Grupo_70793" data-name="Grupo 70793" transform="translate(68.152 77.62)" opacity="0.5">
          <g id="Grupo_70790" data-name="Grupo 70790">
            <rect id="Rectángulo_32288" data-name="Rectángulo 32288" width="51.062" height="3.972" fill="#abddda"/>
          </g>
          <g id="Grupo_70791" data-name="Grupo 70791" transform="translate(0 17.742)">
            <rect id="Rectángulo_32289" data-name="Rectángulo 32289" width="53.088" height="3.972" fill="#abddda"/>
          </g>
          <g id="Grupo_70792" data-name="Grupo 70792" transform="translate(0 8.871)">
            <rect id="Rectángulo_32290" data-name="Rectángulo 32290" width="13.739" height="3.972" transform="translate(36.661)" fill="#abddda"/>
            <rect id="Rectángulo_32291" data-name="Rectángulo 32291" width="32.854" height="3.972" fill="#abddda"/>
          </g>
        </g>
        <g id="Grupo_70797" data-name="Grupo 70797" transform="translate(68.152 140.493)" opacity="0.5">
          <g id="Grupo_70794" data-name="Grupo 70794">
            <rect id="Rectángulo_32292" data-name="Rectángulo 32292" width="53.088" height="3.972" fill="#abddda"/>
          </g>
          <g id="Grupo_70795" data-name="Grupo 70795" transform="translate(0 17.742)">
            <rect id="Rectángulo_32293" data-name="Rectángulo 32293" width="53.088" height="3.972" fill="#abddda"/>
          </g>
          <g id="Grupo_70796" data-name="Grupo 70796" transform="translate(0 8.871)">
            <rect id="Rectángulo_32294" data-name="Rectángulo 32294" width="23.088" height="3.972" transform="translate(36.661)" fill="#abddda"/>
            <rect id="Rectángulo_32295" data-name="Rectángulo 32295" width="32.854" height="3.972" fill="#abddda"/>
          </g>
        </g>
        <g id="Grupo_70798" data-name="Grupo 70798" transform="translate(0 195.458)">
          <rect id="Rectángulo_32296" data-name="Rectángulo 32296" width="27.851" height="2.819" fill="#abddda"/>
          <rect id="Rectángulo_32297" data-name="Rectángulo 32297" width="27.851" height="2.819" transform="translate(34.302)" fill="#abddda"/>
          <rect id="Rectángulo_32298" data-name="Rectángulo 32298" width="38.626" height="2.819" transform="translate(0 6.255)" fill="#abddda"/>
        </g>
      </g>
      <g id="Grupo_70815" data-name="Grupo 70815" transform="translate(6.07 296.018)">
        <g id="Grupo_70813" data-name="Grupo 70813" transform="translate(36.858 23.501)">
          <path id="Trazado_110618" data-name="Trazado 110618" d="M1300.426,1726.032a9.758,9.758,0,0,1-9.724,9.724h-45.917a9.723,9.723,0,0,1,0-19.445H1290.7A9.752,9.752,0,0,1,1300.426,1726.032Z" transform="translate(-1235.064 -1716.311)" fill="#7e5ee3"/>
          <path id="Trazado_110619" data-name="Trazado 110619" d="M1276.739,1726.032a9.752,9.752,0,0,1-9.721,9.724h-22.233a9.723,9.723,0,0,1,0-19.445h22.233A9.749,9.749,0,0,1,1276.739,1726.032Z" transform="translate(-1235.064 -1716.311)" fill="#699ff0"/>
          <rect id="Rectángulo_32303" data-name="Rectángulo 32303" width="46.554" height="3.066" rx="1.533" transform="translate(11.239 2.156)" fill="#e9f3fe" opacity="0.4"/>
        </g>
        <g id="Grupo_70814" data-name="Grupo 70814">
          <path id="Trazado_110620" data-name="Trazado 110620" d="M1135.727,1618.462a10.345,10.345,0,0,1-4.6,13.835l-43.521,21.81a10.308,10.308,0,0,1-9.236-18.43l43.521-21.81A10.339,10.339,0,0,1,1135.727,1618.462Z" transform="translate(-1072.689 -1612.78)" fill="#ef7e29"/>
          <path id="Trazado_110621" data-name="Trazado 110621" d="M1113.275,1668.022a10.338,10.338,0,0,1-4.595,13.834l-21.073,10.561a10.307,10.307,0,0,1-9.236-18.43l21.073-10.561A10.336,10.336,0,0,1,1113.275,1668.022Z" transform="translate(-1072.689 -1651.09)" fill="#f99746"/>
          <path id="Trazado_110622" data-name="Trazado 110622" d="M1154.555,1627.323l-41.513,20.8a1.465,1.465,0,0,1-1.96-.652l-.148-.294a1.465,1.465,0,0,1,.652-1.961l41.513-20.8a1.465,1.465,0,0,1,1.961.651l.147.294A1.465,1.465,0,0,1,1154.555,1627.323Z" transform="translate(-1102.134 -1621.656)" fill="#ffe2cc" opacity="0.5"/>
        </g>
      </g>
      <g id="Grupo_70820" data-name="Grupo 70820" transform="translate(121.336 111.687)">
        <g id="Grupo_70816" data-name="Grupo 70816" transform="translate(89.388 34.919)">
          <path id="Trazado_110623" data-name="Trazado 110623" d="M2169.805,1219.345s2.065,6.359,1.887,7.812-1.474,6.423-2.4,7.7-1.383-5.18-2.116-6.151-.15,2.429-.667,2.744-1.593-2.5-2.057-3.494,1.132-4.656,1.137-7.209S2169.805,1219.345,2169.805,1219.345Z" transform="translate(-2121.221 -1159.04)" fill="#ffb27d"/>
          <path id="Trazado_110624" data-name="Trazado 110624" d="M1974.312,964.36a9.028,9.028,0,0,1,13.6-8.5q.193.117.381.238c9.363,6.026,29.564,34.146,30.954,36.963s5.494,25.227,5.494,25.227-5.072,1.855-7.442-.069c0,0-8.225-21.253-9.44-22.316s-32.9-18.838-33.166-25.5C1974.624,968.642,1974.482,966.524,1974.312,964.36Z" transform="translate(-1974.283 -954.561)" fill="#029db1"/>
        </g>
        <g id="Grupo_70817" data-name="Grupo 70817" transform="translate(0 32.104)">
          <rect id="Rectángulo_32304" data-name="Rectángulo 32304" width="8.375" height="42.132" transform="translate(10.627 22.615) rotate(-109.196)" fill="#f99746"/>
          <path id="Trazado_110625" data-name="Trazado 110625" d="M1580.489,1014.119l10.627.734-2.754-7.91Z" transform="translate(-1580.489 -992.238)" fill="#f9ddbf"/>
          <path id="Trazado_110626" data-name="Trazado 110626" d="M1796,944.026l.87,2.5a2.949,2.949,0,0,1-1.815,3.755l-1.841.641-2.754-7.91,2-.7A2.779,2.779,0,0,1,1796,944.026Z" transform="translate(-1742.8 -942.16)" fill="#f9ddbf"/>
        </g>
        <g id="Grupo_70818" data-name="Grupo 70818" transform="translate(77.449 100.128)">
          <path id="Trazado_110627" data-name="Trazado 110627" d="M2176.887,1717.26s3.775,3.445,3.038,5.893-4.143,4.08-4.6,7.072-2.3,4.624-3.959,4.624h-7.9s-1.22-2.105,1.726-2.74,4.057-4.151,3.873-7.414a57.592,57.592,0,0,1,.276-7.615l6.261-1.45Z" transform="translate(-2108.387 -1608.08)" fill="#233862"/>
          <path id="Trazado_110628" data-name="Trazado 110628" d="M1943.875,1751.736s.677,7.84-.98,8.656l-21.209-.043s0-2.448,3.407-2.992,9.391-2.539,10.4-6.98S1943.875,1751.736,1943.875,1751.736Z" transform="translate(-1921.686 -1633.646)" fill="#233862"/>
          <path id="Trazado_110629" data-name="Trazado 110629" d="M1940.553,1267.7s1.119,13.743,2.433,30.262c1.787,22.44,3.936,50,4.149,55.226.367,9.067,1.842,23.572,1.842,23.572s3.5,3.446,10.5,1.994a234.055,234.055,0,0,0,8.018-42.612c.028-.359.055-.721.083-1.083,1.657-22.3,4.234-69.262,4.234-69.262Z" transform="translate(-1936.27 -1260.356)" fill="#f99746"/>
          <path id="Trazado_110630" data-name="Trazado 110630" d="M1940.553,1267.7s1.119,13.743,2.433,30.262l24.505,38.179c.028-.359.055-.721.083-1.083,1.657-22.3,4.234-69.262,4.234-69.262Z" transform="translate(-1936.27 -1260.356)" fill="#ef7e29"/>
          <path id="Trazado_110631" data-name="Trazado 110631" d="M1963.059,1250.807s20.163,49.771,33.421,73.16,17.4,29.917,17.4,29.917,7.6-2.992,8.286-5.031c0,0-5.07-45.155-13.948-56.162-5.017-6.22-10.91-24.885-11.187-31.412s-1.8-19.446-1.8-19.446Z" transform="translate(-1953.668 -1241.832)" fill="#f99746"/>
        </g>
        <path id="Trazado_110632" data-name="Trazado 110632" d="M1966.7,896.647s-13.509,6.852-21.422,4.566a18.563,18.563,0,0,1,5.239-4.365c-.3-1.573-.542-2.938-.687-4.1a38.011,38.011,0,0,1-.416-4.193l5.18-4.244,4.912-4.06C1959.336,891.4,1966.7,896.647,1966.7,896.647Z" transform="translate(-1862.475 -862.203)" fill="#ffb27d"/>
        <path id="Trazado_110633" data-name="Trazado 110633" d="M1956.918,1007.684a55.668,55.668,0,0,1-16.661,7.177c-7.128,1.69-15.889,1.192-18.82,1.638a1.217,1.217,0,0,1-.855-.217c-.23-.118-1.523-8.812-2.819-19.787-.057-.441-.118-.888-.142-1.334l-.019-.148c-.5-4.29-.945-8.8-1.329-13.314-.312-3.515-.57-6.991-.748-10.256-.225-4.085-.318-7.838-.225-10.925.042-1.411.124-2.679.25-3.78a26.9,26.9,0,0,1,6.709-14.4l2.389-2.718a13.1,13.1,0,0,0,8.265-2.109c2.917-1.92,6.065-3.986,6.659-3.641,4.471,2.446,8.111,8.786,10.711,17.157a95.465,95.465,0,0,1,3.367,16.078c.236,1.8.436,3.641.589,5.476.03.34.055.679.082,1.014.351,5.019.923,9.722,1.559,13.922.855,5.665,1.827,10.41,2.515,13.752.345,1.7.608,3.016.764,3.958C1959.3,1006.049,1957.652,1007.226,1956.918,1007.684Z" transform="translate(-1839.273 -903.618)" fill="#00bcd4"/>
        <path id="Trazado_110634" data-name="Trazado 110634" d="M1973.769,898.338s-3.323,6.352-9.851,8.239a38.014,38.014,0,0,1-.416-4.193l5.18-4.243Z" transform="translate(-1876.561 -876.029)" fill="#ed985f"/>
        <path id="Trazado_110635" data-name="Trazado 110635" d="M1943.606,843.7s13.054,1.87,14.117-6.153,3.464-13.186-4.826-14.719-10.318,1.321-11.334,3.914S1940.237,843,1943.606,843.7Z" transform="translate(-1859.068 -817.476)" fill="#ffb27d"/>
        <path id="Trazado_110636" data-name="Trazado 110636" d="M1947.136,804.934c.115-.138.385-.253.991-.3a2.462,2.462,0,0,0-1.139-.3,3.05,3.05,0,0,0-2.08-2.658,1.819,1.819,0,0,1,.908,1.295c-1.715-1.693-5.341-2.878-15.3-1.893-13.122,1.3-8.624,9.627-6.9,10.6s5.949-1.866,9.125-1.677,3.869,4.757,4.956,5.365.643-.5,2.085-1.182,1.628,1.722,1.239,3.3,1.651,3.6,1.651,3.6l1.977-2.216c1.977-2.216,3.7-11.47,2.741-13.416C1947.306,805.283,1947.222,805.109,1947.136,804.934Z" transform="translate(-1844.064 -800.726)" fill="#2c3a64"/>
        <path id="Trazado_110637" data-name="Trazado 110637" d="M1938.2,1052.116s-11.008,8.374-22.675,10.21c-.225-4.084-.318-7.838-.225-10.925Z" transform="translate(-1839.273 -994.5)" fill="#029db1"/>
        <g id="Grupo_70819" data-name="Grupo 70819" transform="translate(19.279 37.697)">
          <path id="Trazado_110638" data-name="Trazado 110638" d="M1677.474,982.524c-.174-.186-2.418-7.69-6.3-7.142-2.533.357-6.672,1.823-5.573,5.159.432,1.312,8.148,5.831,8.148,5.831Z" transform="translate(-1665.421 -973.411)" fill="#ffb27d"/>
          <path id="Trazado_110639" data-name="Trazado 110639" d="M1773.127,970.534a9.028,9.028,0,0,1-.945,16.01c-.138.06-.276.117-.415.173-10.333,4.145-44.957,4.338-48.059,3.84s-23.75-10.125-23.75-10.125,1.423-5.209,4.365-6.028c0,0,22.091,5.6,23.661,5.221s34.4-15.917,39.994-12.278C1769.456,968.309,1771.265,969.42,1773.127,970.534Z" transform="translate(-1692.118 -966.796)" fill="#00bcd4"/>
        </g>
      </g>
      <g id="Grupo_70821" data-name="Grupo 70821" transform="translate(35.954 323.839)">
        <path id="Trazado_110640" data-name="Trazado 110640" d="M2593.6,1743.929a7.31,7.31,0,0,1-7.285,7.285h-34.4a7.284,7.284,0,0,1,0-14.568h34.4A7.306,7.306,0,0,1,2593.6,1743.929Z" transform="translate(-2544.627 -1736.646)" fill="#ef7e29"/>
        <path id="Trazado_110641" data-name="Trazado 110641" d="M2575.85,1743.929a7.307,7.307,0,0,1-7.283,7.285H2551.91a7.284,7.284,0,0,1,0-14.568h16.657A7.3,7.3,0,0,1,2575.85,1743.929Z" transform="translate(-2544.627 -1736.646)" fill="#f99746"/>
        <path id="Rectángulo_32305" data-name="Rectángulo 32305" d="M1.149,0H33.73a1.149,1.149,0,0,1,1.149,1.149v0A1.149,1.149,0,0,1,33.73,2.3H1.149A1.149,1.149,0,0,1,0,1.149v0A1.149,1.149,0,0,1,1.149,0Z" transform="translate(8.421 1.615)" fill="#ffe2cc" opacity="0.5"/>
      </g>
    </g>
  </g>
</svg>
