<svg xmlns="http://www.w3.org/2000/svg" width="348.582" height="384.51" viewBox="0 0 348.582 384.51">
  <g id="Grupo_73290" data-name="Grupo 73290" transform="translate(-2250.13 -1143.641)">
    <g id="Grupo_73278" data-name="Grupo 73278" transform="translate(2317.692 1143.64)">
      <path id="Trazado_145445" data-name="Trazado 145445" d="M2646.844,1170.382c-11.475,5.405-12.588,21.092-8.281,34.426,3.1,9.606-5.039,10.111-6.951,23.629-3.016,21.314,16.057,38.685,36.319,34.933s.641-45.637,8.079-60.238S2659.181,1164.57,2646.844,1170.382Z" transform="translate(-2546.993 -1159.192)" fill="#1a2e35"/>
      <path id="Trazado_145446" data-name="Trazado 145446" d="M2765.893,2002.076l13.056.957c-1.8,10.392-3.506,26.8-3.506,26.8h-10.349S2766.279,2009.187,2765.893,2002.076Z" transform="translate(-2627.482 -1660.054)" fill="#e67b62"/>
      <path id="Trazado_145447" data-name="Trazado 145447" d="M2590.914,2002.076l12.954.957c-2.906,10.392-6.352,26.8-6.352,26.8h-10.349S2590.545,2009.187,2590.914,2002.076Z" transform="translate(-2520.445 -1660.054)" fill="#e67b62"/>
      <path id="Trazado_145448" data-name="Trazado 145448" d="M2730.733,2079.071c8.995,0,8.356-.139,13.422-.309,4.339-.155,5.335.386,8.818.309,2.911-.062,3.005-2.844,2.343-6.044-.253-1.227-.635-2.663-.992-4.43a2.149,2.149,0,0,0-2.134-1.737h-10.524a2.479,2.479,0,0,0-1.989,1,15.155,15.155,0,0,1-10.456,5.874C2724.335,2074.388,2727.146,2079.071,2730.733,2079.071Z" transform="translate(-2604.328 -1699.027)" fill="#007cff"/>
      <path id="Trazado_145449" data-name="Trazado 145449" d="M2553.424,2079.071c8.995,0,8.356-.139,13.423-.309,4.339-.155,5.335.386,8.818.309,2.91-.062,3.005-2.844,2.342-6.044-.253-1.227-.635-2.663-.992-4.43a2.15,2.15,0,0,0-2.135-1.737h-10.523a2.478,2.478,0,0,0-1.989,1,15.157,15.157,0,0,1-10.456,5.874C2547.027,2074.388,2549.838,2079.071,2553.424,2079.071Z" transform="translate(-2497.664 -1699.027)" fill="#007cff"/>
      <path id="Trazado_145450" data-name="Trazado 145450" d="M2606.986,1492.693s-8.179,63.607-7.466,104c-3.1,37.921-8.087,110.455-8.087,110.455.148,1.937,10.377,1.164,12.19,0,0,0,23.416-48.945,19.609-110.455,26.017-64.151,24.463-104,24.463-104Z" transform="translate(-2523.011 -1353.622)" fill="#1a2e35"/>
      <path id="Trazado_145451" data-name="Trazado 145451" d="M2692.524,1590.6c-2.019,8.284-4.613,17.472-7.928,27.468-.967-20.139-6.411-47.094-6.595-48.011Z" transform="translate(-2575.089 -1400.16)" opacity="0.2"/>
      <path id="Trazado_145452" data-name="Trazado 145452" d="M2658.279,1492.693s18.6,71.793,25.967,107.047c7.739,37.024,18.587,82.811,16.432,107.407,2.072,1.224,9.476,1.3,13.663,0,0,0,15.927-70.127-4.326-105.77,7.328-87.7-15.871-108.685-15.871-108.685Z" transform="translate(-2563.224 -1353.622)" fill="#1a2e35"/>
      <g id="Grupo_73270" data-name="Grupo 73270" transform="translate(135.922 347.115)">
        <path id="Trazado_145453" data-name="Trazado 145453" d="M2761.5,2016.147a35.6,35.6,0,0,1-.62,5.052,1.019,1.019,0,0,0,.848,1.243c4.978.8,12.248-.359,14.557-.772a1.083,1.083,0,0,0,.869-.87l.881-4.726a1.018,1.018,0,0,0-1.023-1.215l-14.452.278A1.082,1.082,0,0,0,2761.5,2016.147Z" transform="translate(-2760.852 -2014.859)" fill="#1a2e35"/>
        <path id="Trazado_145454" data-name="Trazado 145454" d="M2761.5,2016.147a35.6,35.6,0,0,1-.62,5.052,1.019,1.019,0,0,0,.848,1.243c4.978.8,12.248-.359,14.557-.772a1.083,1.083,0,0,0,.869-.87l.881-4.726a1.018,1.018,0,0,0-1.023-1.215l-14.452.278A1.082,1.082,0,0,0,2761.5,2016.147Z" transform="translate(-2760.852 -2014.859)" fill="#fff" opacity="0.1"/>
      </g>
      <g id="Grupo_73271" data-name="Grupo 73271" transform="translate(66.775 347.216)">
        <path id="Trazado_145455" data-name="Trazado 145455" d="M2587.955,2016.078c-.136,1.318-.39,3.664-.643,5.4a1.012,1.012,0,0,0,.876,1.159c4.269.594,11.189.055,13.462-.149a1.086,1.086,0,0,0,.946-.8l1.264-4.723a1.019,1.019,0,0,0-.943-1.294l-13.843-.553A1.08,1.08,0,0,0,2587.955,2016.078Z" transform="translate(-2587.301 -2015.113)" fill="#1a2e35"/>
        <path id="Trazado_145456" data-name="Trazado 145456" d="M2587.955,2016.078c-.136,1.318-.39,3.664-.643,5.4a1.012,1.012,0,0,0,.876,1.159c4.269.594,11.189.055,13.462-.149a1.086,1.086,0,0,0,.946-.8l1.264-4.723a1.019,1.019,0,0,0-.943-1.294l-13.843-.553A1.08,1.08,0,0,0,2587.955,2016.078Z" transform="translate(-2587.301 -2015.113)" fill="#fff" opacity="0.1"/>
      </g>
      <path id="Trazado_145457" data-name="Trazado 145457" d="M2470.53,1354.578l2.274,2.82a4.216,4.216,0,0,0,3.531,1.562l6.356-.377a7.86,7.86,0,0,0,6.2-3.682l.835-1.337c-3.452-4.935-10.819-7.724-10.819-7.724l-2.011-1.028a3.506,3.506,0,0,0-4.78,1.425l-2.089,3.96A4.04,4.04,0,0,0,2470.53,1354.578Z" transform="translate(-2449.718 -1264.407)" fill="#e67b62"/>
      <g id="Grupo_73272" data-name="Grupo 73272" transform="translate(0 43.189)">
        <rect id="Rectángulo_32502" data-name="Rectángulo 32502" width="14.478" height="16.94" rx="1.469" transform="matrix(0.978, -0.208, 0.208, 0.978, 21.03, 27.81)" fill="#7e5ee3"/>
        <rect id="Rectángulo_32503" data-name="Rectángulo 32503" width="1.175" height="4.215" transform="translate(0 0.789) rotate(-42.159)" fill="#7e5ee3"/>
        <rect id="Rectángulo_32504" data-name="Rectángulo 32504" width="7.657" height="1.175" transform="translate(37.226 17.814) rotate(-49.36)" fill="#7e5ee3"/>
        <rect id="Rectángulo_32505" data-name="Rectángulo 32505" width="1.175" height="18.262" transform="translate(5.779 7.172) rotate(-42.16)" fill="#7e5ee3"/>
        <rect id="Rectángulo_32506" data-name="Rectángulo 32506" width="1.175" height="15.509" transform="translate(1.088 21.047) rotate(-70.796)" fill="#7e5ee3"/>
        <rect id="Rectángulo_32507" data-name="Rectángulo 32507" width="8.368" height="6.744" rx="0.651" transform="matrix(0.978, -0.208, 0.208, 0.978, 23.443, 24.462)" fill="#7e5ee3"/>
        <path id="Rectángulo_32508" data-name="Rectángulo 32508" d="M.615,0H9.487A.615.615,0,0,1,10.1.615v3.75a.614.614,0,0,1-.614.614H.614A.614.614,0,0,1,0,4.365V.615A.615.615,0,0,1,.615,0Z" transform="matrix(0.978, -0.208, 0.208, 0.978, 21.819, 20.991)" fill="#1a2e35"/>
        <rect id="Rectángulo_32509" data-name="Rectángulo 32509" width="11.977" height="9.635" transform="translate(24.18 30.6) rotate(-11.99)" fill="#fff" opacity="0.8"/>
      </g>
      <g id="Grupo_73273" data-name="Grupo 73273" transform="translate(25.674 76.503)">
        <path id="Trazado_145458" data-name="Trazado 145458" d="M2555.056,1343.539c-.344.579-.555.889-.828,1.309l-.774,1.146-1.553,2.206c-1.044,1.448-2.122,2.853-3.235,4.228-2.238,2.739-4.559,5.4-7.063,7.921a79.5,79.5,0,0,1-16.954,13.341c-1.594.92-3.235,1.78-4.928,2.559l-1.278.57-.32.142-.174.076-.282.111c-.377.147-.757.287-1.153.4a14.472,14.472,0,0,1-4.82.6,17.959,17.959,0,0,1-7.83-2.273,32.156,32.156,0,0,1-5.342-3.708,65.584,65.584,0,0,1-7.833-8.163c-1.142-1.4-2.252-2.811-3.333-4.239q-.807-1.075-1.584-2.178c-.529-.771-1.024-1.408-1.628-2.347l14.983-8.154c.184.485.517,1.247.832,1.867.327.651.666,1.3,1.016,1.951.693,1.3,1.436,2.567,2.237,3.772a35.882,35.882,0,0,0,5.15,6.366,13.889,13.889,0,0,0,2.553,1.994,4.536,4.536,0,0,0,1.409.59c.06.008.01-.006,0,0s0,0,0,0l0,0,.1-.046.237-.108.949-.427c1.262-.582,2.5-1.238,3.724-1.945a55.386,55.386,0,0,0,7-4.981,67.275,67.275,0,0,0,6.3-6.13,70.06,70.06,0,0,0,5.516-6.99c.845-1.222,1.657-2.466,2.423-3.721.384-.628.758-1.254,1.1-1.887l.5-.936c.143-.279.345-.669.394-.8Z" transform="translate(-2484.142 -1335.653)" fill="#007cff"/>
        <path id="Trazado_145459" data-name="Trazado 145459" d="M2555.056,1343.539c-.344.579-.555.889-.828,1.309l-.774,1.146-1.553,2.206c-1.044,1.448-2.122,2.853-3.235,4.228-2.238,2.739-4.559,5.4-7.063,7.921a79.5,79.5,0,0,1-16.954,13.341c-1.594.92-3.235,1.78-4.928,2.559l-1.278.57-.32.142-.174.076-.282.111c-.377.147-.757.287-1.153.4a14.472,14.472,0,0,1-4.82.6,17.959,17.959,0,0,1-7.83-2.273,32.156,32.156,0,0,1-5.342-3.708,65.584,65.584,0,0,1-7.833-8.163c-1.142-1.4-2.252-2.811-3.333-4.239q-.807-1.075-1.584-2.178c-.529-.771-1.024-1.408-1.628-2.347l14.983-8.154c.184.485.517,1.247.832,1.867.327.651.666,1.3,1.016,1.951.693,1.3,1.436,2.567,2.237,3.772a35.882,35.882,0,0,0,5.15,6.366,13.889,13.889,0,0,0,2.553,1.994,4.536,4.536,0,0,0,1.409.59c.06.008.01-.006,0,0s0,0,0,0l0,0,.1-.046.237-.108.949-.427c1.262-.582,2.5-1.238,3.724-1.945a55.386,55.386,0,0,0,7-4.981,67.275,67.275,0,0,0,6.3-6.13,70.06,70.06,0,0,0,5.516-6.99c.845-1.222,1.657-2.466,2.423-3.721.384-.628.758-1.254,1.1-1.887l.5-.936c.143-.279.345-.669.394-.8Z" transform="translate(-2484.142 -1335.653)" fill="#fff" opacity="0.7"/>
      </g>
      <path id="Trazado_145460" data-name="Trazado 145460" d="M2619.307,1331.421a193.959,193.959,0,0,0,.319,20.894c.376,9.073,2.376,18.609,4.823,33.291,4.965,2.91,30.086,1.7,46.162-.374-.976-12.867.617-27.569,9.336-56.519,2.022-6.712-2.486-13.158-9.685-13.845-1.924-.184-3.964-.337-6.058-.432a164.135,164.135,0,0,0-22.047,0c-2.4.2-4.88.488-7.255.8C2626.334,1316.353,2619.572,1323.373,2619.307,1331.421Z" transform="translate(-2539.693 -1246.161)" fill="#7e5ee3"/>
      <path id="Trazado_145461" data-name="Trazado 145461" d="M2628.831,1493.688a218.214,218.214,0,0,0,48.751-.1,1.107,1.107,0,0,0,.845-1.548q-.6-1.4-1.182-2.8a1.021,1.021,0,0,0-1.047-.648,213.725,213.725,0,0,1-46.873,0,1.051,1.051,0,0,0-1.135.979q-.146,1.455-.292,2.907A1.094,1.094,0,0,0,2628.831,1493.688Z" transform="translate(-2544.945 -1351.148)" fill="#532eef"/>
      <path id="Trazado_145462" data-name="Trazado 145462" d="M2690.286,1252.753c-1.919,7.094-4.276,20.092.335,24.825,0,0,1.4,6.948-17.641,6.3-14.658-.5-4.407-6.3-4.407-6.3,8.052-1.889,8.285-7.758,7.318-13.27Z" transform="translate(-2567.32 -1209.28)" fill="#e67b62"/>
      <g id="Grupo_73274" data-name="Grupo 73274" transform="translate(111.357 67.191)">
        <path id="Trazado_145463" data-name="Trazado 145463" d="M2711.647,1312.282s-8.348,7.415-10.832,25.286c-4.746,34.139,2.449,173.944,2.449,173.944s30.518-9.971,41.644-19.532c.522-9.561-17.953-97.654-16.329-122.94s4.752-47.309,1.489-52.067S2711.647,1312.282,2711.647,1312.282Z" transform="translate(-2699.195 -1312.282)" fill="#007cff"/>
        <path id="Trazado_145464" data-name="Trazado 145464" d="M2711.647,1312.282s-8.348,7.415-10.832,25.286c-4.746,34.139,2.449,173.944,2.449,173.944s30.518-9.971,41.644-19.532c.522-9.561-17.953-97.654-16.329-122.94s4.752-47.309,1.489-52.067S2711.647,1312.282,2711.647,1312.282Z" transform="translate(-2699.195 -1312.282)" fill="#fff" opacity="0.7"/>
      </g>
      <g id="Grupo_73275" data-name="Grupo 73275" transform="translate(69.565 67.899)">
        <path id="Trazado_145465" data-name="Trazado 145465" d="M2626.594,1314.06c-12.714,16.319-12.613,122.391-8.943,198.521-11.284-1.359-23.347-24.266-23.347-24.266s12.263-80.752,9.9-115.01-2.027-46.179,3.479-52.5S2626.594,1314.06,2626.594,1314.06Z" transform="translate(-2594.304 -1314.06)" fill="#007cff"/>
        <path id="Trazado_145466" data-name="Trazado 145466" d="M2626.594,1314.06c-12.714,16.319-12.613,122.391-8.943,198.521-11.284-1.359-23.347-24.266-23.347-24.266s12.263-80.752,9.9-115.01-2.027-46.179,3.479-52.5S2626.594,1314.06,2626.594,1314.06Z" transform="translate(-2594.304 -1314.06)" fill="#fff" opacity="0.7"/>
      </g>
      <path id="Trazado_145467" data-name="Trazado 145467" d="M2710.628,1310.222c-2.209,1.869-12.633,11.318-11.214,50.011,1.049-4.386,5.822-25.158,10.959-35.049-1.1-1.079-3.534-1.2-3.534-1.2a7.213,7.213,0,0,1,4.477-.79c1.433-2.888,4.376-8.964,7.231-12.227C2715.454,1309.067,2710.628,1310.222,2710.628,1310.222Z" transform="translate(-2587.891 -1243.643)" fill="#fff"/>
      <path id="Trazado_145468" data-name="Trazado 145468" d="M2647.85,1362.037s2.265-36.043,9.742-48.89a11.635,11.635,0,0,0-8.5,1.325c-1.563,1.882-3.6,9.109-3.6,10.672a5.2,5.2,0,0,1,3.586.391,12,12,0,0,0-3.688,1.376C2644.9,1329.512,2644.668,1343.124,2647.85,1362.037Z" transform="translate(-2555.297 -1245.447)" fill="#fff"/>
      <g id="Grupo_73276" data-name="Grupo 73276" transform="translate(117.334 101.178)">
        <path id="Trazado_145469" data-name="Trazado 145469" d="M2725.451,1412.132h-10.089a1.287,1.287,0,0,1-1.158-1.524l.421-4.791a1.589,1.589,0,0,1,1.426-1.524h10.089a1.287,1.287,0,0,1,1.158,1.524l-.42,4.791A1.59,1.59,0,0,1,2725.451,1412.132Z" transform="translate(-2714.197 -1401.62)" fill="#fff"/>
        <path id="Trazado_145470" data-name="Trazado 145470" d="M2723.464,1412.132h-2.744l2.115-7.84h2.744Z" transform="translate(-2718.121 -1401.62)" fill="#007cff" opacity="0.1"/>
        <path id="Trazado_145471" data-name="Trazado 145471" d="M2733.061,1412.132h-2.744l2.115-7.84h2.744Z" transform="translate(-2723.894 -1401.62)" fill="#007cff" opacity="0.1"/>
        <path id="Trazado_145472" data-name="Trazado 145472" d="M2729.667,1401.083h0c-.495,0-.857-.291-.806-.648l.317-2.2a.958.958,0,0,1,.991-.648h0c.494,0,.857.291.806.648l-.317,2.2A.958.958,0,0,1,2729.667,1401.083Z" transform="translate(-2723.016 -1397.585)" fill="#007cff"/>
      </g>
      <path id="Trazado_145473" data-name="Trazado 145473" d="M2700.739,1264.587l-8.52,6.834a22.027,22.027,0,0,1,.388,3.914c3.055-.437,7.453-3.754,8.01-6.918A10.584,10.584,0,0,0,2700.739,1264.587Z" transform="translate(-2583.642 -1216.399)" opacity="0.2"/>
      <path id="Trazado_145474" data-name="Trazado 145474" d="M2691.914,1189.781c-2.153,11.454-2.821,16.335-9.357,21.829-9.831,8.264-23.339,3.892-24.631-7.786-1.162-10.511,2.553-27.477,14.356-31.259C2683.911,1168.839,2694.066,1178.326,2691.914,1189.781Z" transform="translate(-2562.89 -1160.546)" fill="#e67b62"/>
      <path id="Trazado_145475" data-name="Trazado 145475" d="M2683.682,1219.43c-3.007,0-5.522-3.059-5.637-6.895a8.1,8.1,0,0,1,1.456-5.011,5.02,5.02,0,0,1,3.893-2.212l.132,0c3.009,0,5.523,3.058,5.638,6.894h0c.115,3.892-2.285,7.132-5.35,7.223Zm-.155-13.532-.115,0a4.442,4.442,0,0,0-3.437,1.971,7.5,7.5,0,0,0-1.343,4.646c.105,3.569,2.458,6.4,5.163,6.323,2.742-.081,4.887-3.05,4.781-6.619h0C2688.472,1208.705,2686.218,1205.9,2683.527,1205.9Z" transform="translate(-2575.113 -1180.74)" fill="#fff"/>
      <path id="Trazado_145476" data-name="Trazado 145476" d="M2675.752,1221.094a.29.29,0,0,1-.175-.058c-.01-.006-.894-.652-1.335-.186a.293.293,0,1,1-.427-.4c.633-.676,1.625-.244,2.112.117a.294.294,0,0,1-.176.529Z" transform="translate(-2572.522 -1189.632)" fill="#fff"/>
      <path id="Trazado_145477" data-name="Trazado 145477" d="M2652.942,1216.73c-3.008,0-5.523-3.059-5.638-6.894-.115-3.892,2.285-7.132,5.349-7.223l.132,0c3.009,0,5.523,3.059,5.638,6.895.116,3.891-2.284,7.132-5.349,7.223Zm-.156-13.532-.115,0c-2.741.082-4.885,3.051-4.78,6.619.1,3.518,2.359,6.324,5.05,6.324l.115,0c2.742-.081,4.886-3.05,4.78-6.618C2657.731,1206,2655.476,1203.2,2652.786,1203.2Z" transform="translate(-2556.62 -1179.115)" fill="#fff"/>
      <path id="Trazado_145478" data-name="Trazado 145478" d="M2708.723,1184.347c-4.693,10.458,3.114,15.294,4.275,18.557,1.636,9.075-19.027,27.088-12.893,55.3,8.913-15.77,21.19-15.024,22.482-25.628,1.331-10.931-4.146-16.464,1.666-26.891s7.871-22.865-2.335-24.8S2708.723,1184.347,2708.723,1184.347Z" transform="translate(-2587.699 -1165.791)" fill="#1a2e35"/>
      <path id="Trazado_145479" data-name="Trazado 145479" d="M2738.542,1246.039a.294.294,0,0,1-.2-.512c5.933-5.378,6.385-12.408,6.864-19.85.314-4.885.639-9.936,2.58-14.677,3.414-8.346,6.244-20.066,2.98-25.63a5.866,5.866,0,0,0-4.572-2.959.294.294,0,0,1-.256-.327.279.279,0,0,1,.327-.256,6.426,6.426,0,0,1,5.008,3.245c3.368,5.743.688,17.274-2.943,26.15-1.9,4.652-2.226,9.654-2.537,14.492-.486,7.564-.947,14.709-7.056,20.248A.3.3,0,0,1,2738.542,1246.039Z" transform="translate(-2611.332 -1166.612)" fill="#1a2e35"/>
      <path id="Trazado_145480" data-name="Trazado 145480" d="M2691.486,1163.457c-7.749.881-21.434-.037-24.583-4.013s.947-14.115,10.058-15.682c7.4-1.271,11.842,7.831,11.842,7.831s7.051-3.479,13.195,4.55C2707.6,1163.457,2695.361,1171.753,2691.486,1163.457Z" transform="translate(-2567.78 -1143.64)" fill="#1a2e35"/>
      <path id="Trazado_145481" data-name="Trazado 145481" d="M2717.45,1226.747a.289.289,0,0,1-.05,0l-12.977-2.229a.294.294,0,0,1,.1-.579l12.977,2.23a.294.294,0,0,1-.049.583Z" transform="translate(-2590.837 -1191.94)" fill="#fff"/>
      <path id="Trazado_145482" data-name="Trazado 145482" d="M2694.56,1219.03c-.139.969-.755,1.718-1.375,1.672s-1.011-.868-.872-1.837.755-1.718,1.375-1.672S2694.7,1218.06,2694.56,1219.03Z" transform="translate(-2583.681 -1187.886)" fill="#1a2e35"/>
      <path id="Trazado_145483" data-name="Trazado 145483" d="M2665.2,1217.3c-.139.969-.755,1.718-1.375,1.672s-1.011-.869-.872-1.838.755-1.718,1.375-1.672S2665.334,1216.329,2665.2,1217.3Z" transform="translate(-2566.016 -1186.844)" fill="#1a2e35"/>
      <path id="Trazado_145484" data-name="Trazado 145484" d="M2663.814,1214.382l-2.184-.839S2662.539,1215.448,2663.814,1214.382Z" transform="translate(-2565.24 -1185.692)" fill="#1a2e35"/>
      <path id="Trazado_145485" data-name="Trazado 145485" d="M2669.777,1224.667a28.73,28.73,0,0,1-4.272,5.936c1.082,1.286,3.292.9,3.292.9Z" transform="translate(-2567.571 -1192.384)" fill="#d54c38"/>
      <path id="Trazado_145486" data-name="Trazado 145486" d="M2683.38,1246.974a9.058,9.058,0,0,1-1.612.023.261.261,0,0,1-.238-.306.307.307,0,0,1,.32-.264,8.128,8.128,0,0,0,6.562-2.549.273.273,0,1,1,.423.344A8.547,8.547,0,0,1,2683.38,1246.974Z" transform="translate(-2577.21 -1203.873)" fill="#1a2e35"/>
      <path id="Trazado_145487" data-name="Trazado 145487" d="M2729.458,1235.138a8.012,8.012,0,0,1-5.353,3.643c-2.731.378-3.508-2.8-2.256-5.718,1.127-2.63,3.906-6,6.411-5.02C2730.727,1229,2731.116,1232.635,2729.458,1235.138Z" transform="translate(-2601.116 -1194.311)" fill="#e67b62"/>
      <path id="Trazado_145488" data-name="Trazado 145488" d="M2701.28,1205.558a.521.521,0,0,1-.351-.255,4.19,4.19,0,0,0-3.3-2.21.523.523,0,0,1-.514-.576.62.62,0,0,1,.626-.547,5.225,5.225,0,0,1,4.2,2.744.582.582,0,0,1-.243.772A.6.6,0,0,1,2701.28,1205.558Z" transform="translate(-2586.586 -1178.73)" fill="#1a2e35"/>
      <path id="Trazado_145489" data-name="Trazado 145489" d="M2662.2,1196.478a.527.527,0,0,1-.391-.127.564.564,0,0,1-.02-.8,5.986,5.986,0,0,1,4.847-2.16.521.521,0,0,1,.454.626.619.619,0,0,1-.659.5,4.783,4.783,0,0,0-3.821,1.751A.613.613,0,0,1,2662.2,1196.478Z" transform="translate(-2565.24 -1173.561)" fill="#1a2e35"/>
      <path id="Trazado_145490" data-name="Trazado 145490" d="M2693.178,1216.113l-2.184-.839S2691.9,1217.178,2693.178,1216.113Z" transform="translate(-2582.905 -1186.734)" fill="#1a2e35"/>
      <path id="Trazado_145491" data-name="Trazado 145491" d="M2744.693,1509.832l.832-3.526a4.214,4.214,0,0,1,2.509-2.934l5.895-2.407a7.859,7.859,0,0,1,7.182.64l1.33.844c-.98,5.942-6.417,11.642-6.417,11.642l-1.37,1.8a3.506,3.506,0,0,1-4.926.781l-3.595-2.668A4.039,4.039,0,0,1,2744.693,1509.832Z" transform="translate(-2615.14 -1358.248)" fill="#e67b62"/>
      <g id="Grupo_73277" data-name="Grupo 73277" transform="translate(132.468 71.054)">
        <path id="Trazado_145492" data-name="Trazado 145492" d="M2760.7,1321.977c.617.407.966.666,1.415.991l1.242.931c.813.621,1.613,1.233,2.4,1.865q2.348,1.888,4.555,3.9a105.813,105.813,0,0,1,8.424,8.523,85.555,85.555,0,0,1,7.356,9.667c1.1,1.73,2.167,3.489,3.115,5.337a57.575,57.575,0,0,1,2.658,5.668l.578,1.469.075.194.121.359.225.722c.117.473.238.963.307,1.427a15.9,15.9,0,0,1-.042,5.095,25.333,25.333,0,0,1-2.519,7.331,62.865,62.865,0,0,1-7.022,10.491c-2.485,3.13-5.092,6.025-7.735,8.857-1.333,1.4-2.646,2.822-4.008,4.194l-2.058,2.052c-.708.7-1.343,1.351-2.155,2.115l-10.865-13.151c.6-.411,1.349-.961,2.019-1.473l2.041-1.621c1.349-1.1,2.7-2.2,3.99-3.37a91.725,91.725,0,0,0,7.282-7.235,42.126,42.126,0,0,0,5.508-7.561,11.587,11.587,0,0,0,1.181-2.993,3.443,3.443,0,0,0,.032-.384c.007.009,0,.057.021.081a.228.228,0,0,0,.015.068l.016.031-.05-.126-.434-1.09a52.138,52.138,0,0,0-10.738-16.065,68.934,68.934,0,0,0-7.422-6.743c-1.322-1.033-2.676-2.025-4.047-2.966-.687-.467-1.372-.934-2.068-1.357l-1.033-.618c-.314-.182-.735-.423-.9-.5Z" transform="translate(-2752.182 -1321.977)" fill="#007cff"/>
        <path id="Trazado_145493" data-name="Trazado 145493" d="M2760.7,1321.977c.617.407.966.666,1.415.991l1.242.931c.813.621,1.613,1.233,2.4,1.865q2.348,1.888,4.555,3.9a105.813,105.813,0,0,1,8.424,8.523,85.555,85.555,0,0,1,7.356,9.667c1.1,1.73,2.167,3.489,3.115,5.337a57.575,57.575,0,0,1,2.658,5.668l.578,1.469.075.194.121.359.225.722c.117.473.238.963.307,1.427a15.9,15.9,0,0,1-.042,5.095,25.333,25.333,0,0,1-2.519,7.331,62.865,62.865,0,0,1-7.022,10.491c-2.485,3.13-5.092,6.025-7.735,8.857-1.333,1.4-2.646,2.822-4.008,4.194l-2.058,2.052c-.708.7-1.343,1.351-2.155,2.115l-10.865-13.151c.6-.411,1.349-.961,2.019-1.473l2.041-1.621c1.349-1.1,2.7-2.2,3.99-3.37a91.725,91.725,0,0,0,7.282-7.235,42.126,42.126,0,0,0,5.508-7.561,11.587,11.587,0,0,0,1.181-2.993,3.443,3.443,0,0,0,.032-.384c.007.009,0,.057.021.081a.228.228,0,0,0,.015.068l.016.031-.05-.126-.434-1.09a52.138,52.138,0,0,0-10.738-16.065,68.934,68.934,0,0,0-7.422-6.743c-1.322-1.033-2.676-2.025-4.047-2.966-.687-.467-1.372-.934-2.068-1.357l-1.033-.618c-.314-.182-.735-.423-.9-.5Z" transform="translate(-2752.182 -1321.977)" fill="#fff" opacity="0.7"/>
      </g>
    </g>
    <g id="Grupo_73283" data-name="Grupo 73283" transform="translate(2250.13 1330.01)">
      <g id="Grupo_73281" data-name="Grupo 73281">
        <g id="Grupo_73279" data-name="Grupo 73279">
          <rect id="Rectángulo_32510" data-name="Rectángulo 32510" width="348.582" height="14.162" fill="#007cff"/>
          <rect id="Rectángulo_32511" data-name="Rectángulo 32511" width="348.582" height="14.162" fill="#fff" opacity="0.6"/>
          <rect id="Rectángulo_32512" data-name="Rectángulo 32512" width="30.51" height="14.162" transform="translate(318.072)" fill="#007cff" opacity="0.3"/>
        </g>
        <g id="Grupo_73280" data-name="Grupo 73280" transform="translate(6.21 14.162)">
          <rect id="Rectángulo_32513" data-name="Rectángulo 32513" width="336.162" height="183.978" fill="#007cff"/>
          <rect id="Rectángulo_32514" data-name="Rectángulo 32514" width="336.162" height="183.978" fill="#fff" opacity="0.5"/>
          <rect id="Rectángulo_32515" data-name="Rectángulo 32515" width="18.09" height="183.978" transform="translate(318.072)" fill="#007cff" opacity="0.3"/>
          <rect id="Rectángulo_32516" data-name="Rectángulo 32516" width="336.162" height="4.664" fill="#007cff" opacity="0.3"/>
        </g>
      </g>
      <g id="Grupo_73282" data-name="Grupo 73282" transform="translate(111.449 51.937)">
        <circle id="Elipse_4526" data-name="Elipse 4526" cx="49.507" cy="49.507" r="49.507" transform="translate(4.779)" fill="#007cff" opacity="0.3"/>
        <circle id="Elipse_4527" data-name="Elipse 4527" cx="49.507" cy="49.507" r="49.507" transform="translate(1.593)" fill="#007cff"/>
        <circle id="Elipse_4528" data-name="Elipse 4528" cx="49.507" cy="49.507" r="49.507" fill="#fff"/>
        <rect id="Rectángulo_32517" data-name="Rectángulo 32517" width="16.804" height="59.212" rx="2.851" transform="translate(41.105 19.901)" fill="#00bcd4"/>
        <rect id="Rectángulo_32518" data-name="Rectángulo 32518" width="16.804" height="59.212" rx="2.851" transform="translate(79.113 41.105) rotate(90)" fill="#00bcd4"/>
      </g>
    </g>
    <g id="Grupo_73287" data-name="Grupo 73287" transform="translate(2486.807 1265.76)">
      <g id="Grupo_73284" data-name="Grupo 73284" transform="translate(0 0)">
        <path id="Trazado_145494" data-name="Trazado 145494" d="M2934.667,1506.564h-90.506l11.708-56.417h90.506Z" transform="translate(-2844.161 -1450.147)" fill="#007cff"/>
        <path id="Trazado_145495" data-name="Trazado 145495" d="M2934.667,1506.564h-90.506l11.708-56.417h90.506Z" transform="translate(-2844.161 -1450.147)" fill="#fff" opacity="0.3"/>
      </g>
      <path id="Trazado_145496" data-name="Trazado 145496" d="M2962.4,1519.871h-37.977l5.039-24.28h37.978Z" transform="translate(-2892.446 -1477.485)" fill="#fff" opacity="0.3"/>
      <path id="Trazado_145497" data-name="Trazado 145497" d="M2918.735,1519.871H2921l5.039-24.28h-2.267Z" transform="translate(-2889.023 -1477.485)" fill="#007cff" opacity="0.3"/>
      <path id="Trazado_145498" data-name="Trazado 145498" d="M2964.969,1528.811h-6.8l1.021,25.075h6.8Z" transform="translate(-2912.743 -1497.469)" fill="#007cff" opacity="0.3"/>
      <path id="Trazado_145499" data-name="Trazado 145499" d="M2845.688,1506.564h-1.527l11.708-56.417h1.527Z" transform="translate(-2844.161 -1450.147)" fill="#fff" opacity="0.7"/>
      <g id="Grupo_73285" data-name="Grupo 73285" transform="translate(46.402 30.246)">
        <path id="Trazado_145500" data-name="Trazado 145500" d="M2966.45,1560.065h16.359l-5.824-34h-16.359Z" transform="translate(-2960.626 -1526.061)" fill="#007cff"/>
        <path id="Trazado_145501" data-name="Trazado 145501" d="M2966.45,1560.065h16.359l-5.824-34h-16.359Z" transform="translate(-2960.626 -1526.061)" fill="#fff" opacity="0.2"/>
      </g>
      <g id="Grupo_73286" data-name="Grupo 73286" transform="translate(44.934 30.246)">
        <path id="Trazado_145502" data-name="Trazado 145502" d="M2962.764,1560.065h1.469l-5.824-34h-1.469Z" transform="translate(-2956.94 -1526.061)" fill="#007cff"/>
        <path id="Trazado_145503" data-name="Trazado 145503" d="M2962.764,1560.065h1.469l-5.824-34h-1.469Z" transform="translate(-2956.94 -1526.061)" fill="#fff" opacity="0"/>
      </g>
      <path id="Trazado_145504" data-name="Trazado 145504" d="M2948.978,1606.544H2936.22l-3.343,1.937h16.1Z" transform="translate(-2897.531 -1544.231)" fill="#007cff"/>
    </g>
    <g id="Grupo_73289" data-name="Grupo 73289" transform="translate(2345.406 1300.481)">
      <rect id="Rectángulo_32519" data-name="Rectángulo 32519" width="21.638" height="23.749" transform="translate(3.818 5.78)" fill="#007cff"/>
      <path id="Trazado_145505" data-name="Trazado 145505" d="M2520.77,1543.072h12.9l3.818-5.78h-12.9Z" transform="translate(-2508.216 -1537.292)" fill="#007cff"/>
      <rect id="Rectángulo_32520" data-name="Rectángulo 32520" width="12.903" height="23.749" transform="translate(16.721 29.529) rotate(180)" fill="#fff" opacity="0.3"/>
      <rect id="Rectángulo_32521" data-name="Rectángulo 32521" width="17.013" height="10.567" transform="translate(8.443 14.169)" fill="#fff" opacity="0.3"/>
      <g id="Grupo_73288" data-name="Grupo 73288">
        <path id="Trazado_145506" data-name="Trazado 145506" d="M2505.983,1543.072h-12.9l-3.818-5.78h12.9Z" transform="translate(-2489.262 -1537.292)" fill="#007cff"/>
        <path id="Trazado_145507" data-name="Trazado 145507" d="M2505.983,1543.072h-12.9l-3.818-5.78h12.9Z" transform="translate(-2489.262 -1537.292)" fill="#fff" opacity="0.3"/>
      </g>
    </g>
  </g>
</svg>
