<svg xmlns="http://www.w3.org/2000/svg" xmlns:xlink="http://www.w3.org/1999/xlink" width="208" height="208" viewBox="0 0 208 208">
  <defs>
    <filter id="Elipse_4064" x="0" y="0" width="208" height="208" filterUnits="userSpaceOnUse">
      <feOffset dy="3" input="SourceAlpha"/>
      <feGaussianBlur stdDeviation="3" result="blur"/>
      <feFlood flood-opacity="0.161"/>
      <feComposite operator="in" in2="blur"/>
      <feComposite in="SourceGraphic"/>
    </filter>
  </defs>
  <g id="Grupo_73302" data-name="Grupo 73302" transform="translate(-696 -1008)">
    <g transform="matrix(1, 0, 0, 1, 696, 1008)" filter="url(#Elipse_4064)">
      <circle id="Elipse_4064-2" data-name="Elipse 4064" cx="95" cy="95" r="95" transform="translate(9 6)" fill="#fff"/>
    </g>
    <circle id="Elipse_4065" data-name="Elipse 4065" cx="73.5" cy="73.5" r="73.5" transform="translate(725 1036)" fill="#81d4fa"/>
    <g id="Grupo_72980" data-name="Grupo 72980" transform="translate(223.974 -48.318)">
      <g id="Grupo_72979" data-name="Grupo 72979" transform="translate(518 1099)">
        <path id="Trazado_144526" data-name="Trazado 144526" d="M109.072,64.826c.021-.578.045-1.153.045-1.734a50.292,50.292,0,0,0-100.584,0c0,.581.024,1.157.045,1.734Z" transform="translate(-6.799 -11.066)" fill="#87ced9"/>
        <path id="Trazado_144527" data-name="Trazado 144527" d="M292.693,63.092A50.292,50.292,0,0,0,242.4,12.8c-1.165,0-2.319.054-3.468.132,9.28,7.986,22.132,23.727,27.244,51.894h26.471C292.669,64.248,292.693,63.673,292.693,63.092Z" transform="translate(-190.375 -11.066)" fill="#7dc6d1"/>
        <path id="Trazado_144528" data-name="Trazado 144528" d="M228.8,200.533h0a6.937,6.937,0,0,1,6.937,6.937v3.468a6.937,6.937,0,0,1-6.937,6.937h0a6.937,6.937,0,0,1-6.937-6.937V207.47A6.937,6.937,0,0,1,228.8,200.533Z" transform="translate(-176.778 -160.646)" fill="#fec9a3"/>
        <rect id="Rectángulo_32370" data-name="Rectángulo 32370" width="13.874" height="24.279" transform="translate(45.089 78.039)" fill="#4398d1"/>
        <rect id="Rectángulo_32371" data-name="Rectángulo 32371" width="3.468" height="19.076" transform="translate(50.292 83.242)" fill="#3685ba"/>
        <path id="Trazado_144529" data-name="Trazado 144529" d="M408,217.876h0a6.937,6.937,0,0,1-6.937-6.937v-3.468A6.937,6.937,0,0,1,408,200.534h0a6.937,6.937,0,0,1,6.937,6.937v3.468A6.937,6.937,0,0,1,408,217.876Z" transform="translate(-319.559 -160.647)" fill="#fec9a3"/>
        <rect id="Rectángulo_32372" data-name="Rectángulo 32372" width="13.874" height="24.279" transform="translate(81.508 78.039)" fill="#4398d1"/>
        <rect id="Rectángulo_32373" data-name="Rectángulo 32373" width="3.468" height="19.076" transform="translate(86.71 83.242)" fill="#3685ba"/>
        <path id="Trazado_144530" data-name="Trazado 144530" d="M195.221,306.677l-8.239-17.3a7.181,7.181,0,0,0-6.094-3.512h-13.17a6.936,6.936,0,0,0-5.771,3.089L153.6,306.677h6.937l6.937-13.874v13.874h13.874V292.8l6.937,13.874Z" transform="translate(-122.384 -228.638)" fill="#e0d2c1"/>
        <path id="Trazado_144531" data-name="Trazado 144531" d="M339.875,285.882c.153-.01.305-.016.459-.016h13.414a6.937,6.937,0,0,1,6.937,6.937v13.874h-20.81V292.8L331.2,306.677h-6.937l10.081-17.722a6.936,6.936,0,0,1,5.771-3.089Z" transform="translate(-258.367 -228.638)" fill="#f0e4d6"/>
        <rect id="Rectángulo_32374" data-name="Rectángulo 32374" width="3.468" height="13.874" transform="translate(93.647 64.165)" fill="#e0d2c1"/>
        <path id="Trazado_144532" data-name="Trazado 144532" d="M49.6,200.533h0a6.937,6.937,0,0,1,6.937,6.937v3.468a6.937,6.937,0,0,1-6.937,6.937h0a6.937,6.937,0,0,1-6.937-6.937V207.47A6.937,6.937,0,0,1,49.6,200.533Z" transform="translate(-33.996 -160.646)" fill="#fec9a3"/>
        <g id="Grupo_72977" data-name="Grupo 72977" transform="translate(13.874 39.887)">
          <path id="Trazado_144533" data-name="Trazado 144533" d="M70,200.533a6.9,6.9,0,0,0-1.734.244,6.921,6.921,0,0,1,5.2,6.692v3.468a6.922,6.922,0,0,1-5.2,6.692,6.855,6.855,0,0,0,8.671-6.692V207.47A6.937,6.937,0,0,0,70,200.533Z" transform="translate(-68.267 -200.533)" fill="#fabd91"/>
          <path id="Trazado_144534" data-name="Trazado 144534" d="M249.2,200.533a6.9,6.9,0,0,0-1.734.244,6.921,6.921,0,0,1,5.2,6.692v3.468a6.922,6.922,0,0,1-5.2,6.692,6.855,6.855,0,0,0,8.671-6.692V207.47A6.937,6.937,0,0,0,249.2,200.533Z" transform="translate(-211.049 -200.533)" fill="#fabd91"/>
          <path id="Trazado_144535" data-name="Trazado 144535" d="M428.4,200.533a6.9,6.9,0,0,0-1.734.244,6.921,6.921,0,0,1,5.2,6.692v3.468a6.923,6.923,0,0,1-5.2,6.692,6.855,6.855,0,0,0,8.671-6.692V207.47A6.937,6.937,0,0,0,428.4,200.533Z" transform="translate(-353.831 -200.533)" fill="#fabd91"/>
        </g>
        <rect id="Rectángulo_32375" data-name="Rectángulo 32375" width="13.874" height="24.279" transform="translate(8.671 78.039)" fill="#4398d1"/>
        <rect id="Rectángulo_32376" data-name="Rectángulo 32376" width="3.468" height="19.076" transform="translate(13.874 83.242)" fill="#3685ba"/>
        <path id="Trazado_144536" data-name="Trazado 144536" d="M29.344,285.882a4.49,4.49,0,0,0-.459-.016H15.471A6.937,6.937,0,0,0,8.534,292.8v13.874h20.81V292.8l8.671,13.874h6.937L34.871,288.955a6.936,6.936,0,0,0-5.771-3.089Z" transform="translate(-6.8 -228.638)" fill="#f0e4d6"/>
        <rect id="Rectángulo_32377" data-name="Rectángulo 32377" width="3.468" height="13.874" transform="translate(6.937 64.165)" fill="#e0d2c1"/>
        <g id="Grupo_72978" data-name="Grupo 72978" transform="translate(0 0)">
          <rect id="Rectángulo_32378" data-name="Rectángulo 32378" width="3.468" height="3.468" transform="translate(27.747 46.823)" fill="#4398d1"/>
          <rect id="Rectángulo_32379" data-name="Rectángulo 32379" width="3.468" height="3.468" transform="translate(34.684 46.823)" fill="#4398d1"/>
          <rect id="Rectángulo_32380" data-name="Rectángulo 32380" width="3.468" height="3.468" transform="translate(65.9 46.823)" fill="#4398d1"/>
          <rect id="Rectángulo_32381" data-name="Rectángulo 32381" width="3.468" height="3.468" transform="translate(72.836 46.823)" fill="#4398d1"/>
          <path id="Trazado_144537" data-name="Trazado 144537" d="M52.026,4.267A52.085,52.085,0,0,0,0,56.293v1.734H3.468V56.293a48.267,48.267,0,0,1,4.695-20.81H24.045c-.557,2.2-1.041,4.42-1.387,6.67l3.427.534a69.922,69.922,0,0,1,1.54-7.2H50.292v3.468H53.76V35.483H76.511a69.459,69.459,0,0,1,1.549,7.2l3.427-.531c-.347-2.254-.841-4.469-1.387-6.672H95.9a48.29,48.29,0,0,1,4.686,20.81v1.734h3.468V56.293A52.085,52.085,0,0,0,52.026,4.267ZM40.289,10.028l.819-1.041A48.42,48.42,0,0,1,50.3,7.773v8.633H35.862A70.527,70.527,0,0,1,40.289,10.028Zm-8.482,6.378H24.379a48.469,48.469,0,0,1,11.172-5.791C34.217,12.492,32.962,14.419,31.807,16.406ZM53.76,7.779a48.431,48.431,0,0,1,9.285,1.233l.8,1.016a70.119,70.119,0,0,1,4.429,6.378H53.76Zm14.847,2.875a48.43,48.43,0,0,1,11.066,5.752H72.328Q70.606,13.446,68.607,10.654ZM10,32.014a48.851,48.851,0,0,1,9.958-12.139h9.932A74.125,74.125,0,0,0,25,32.014Zm18.644,0a70.674,70.674,0,0,1,5.2-12.139H50.292V32.014Zm25.115,0V19.875H70.285a70.492,70.492,0,0,1,5.2,12.139Zm25.377,0a74.414,74.414,0,0,0-4.892-12.139h9.849a48.85,48.85,0,0,1,9.958,12.139Z" transform="translate(0 -4.267)" fill="#4398d1"/>
          <rect id="Rectángulo_32382" data-name="Rectángulo 32382" width="3.468" height="15.608" transform="translate(50.292 57.229)" fill="#4398d1"/>
          <rect id="Rectángulo_32383" data-name="Rectángulo 32383" width="3.468" height="15.608" transform="translate(86.71 57.229)" fill="#4398d1"/>
          <rect id="Rectángulo_32384" data-name="Rectángulo 32384" width="3.468" height="15.608" transform="translate(13.874 57.229)" fill="#4398d1"/>
        </g>
        <path id="Trazado_144538" data-name="Trazado 144538" d="M189.559,4.267a51.76,51.76,0,0,0-16.947,2.849c1.287,1.366,2.638,2.882,4.022,4.526.4-.538.775-1.087,1.188-1.615l.819-1.041a48.42,48.42,0,0,1,9.191-1.214v8.633h-7.4c.838,1.11,1.682,2.254,2.53,3.468h4.863V27.4c1.511,2.525,3.009,5.2,4.469,8.083h21.75a69.457,69.457,0,0,1,1.549,7.2l3.427-.531c-.347-2.254-.841-4.469-1.387-6.672h15.8a48.291,48.291,0,0,1,4.686,20.81v1.734h3.469V56.293A52.085,52.085,0,0,0,189.559,4.267Zm27.647,12.139h-7.344q-1.722-2.96-3.722-5.752A48.422,48.422,0,0,1,217.205,16.406ZM191.293,7.779a48.431,48.431,0,0,1,9.285,1.233l.8,1.016a70.123,70.123,0,0,1,4.429,6.378H191.293Zm0,24.235V19.875h16.525a70.492,70.492,0,0,1,5.2,12.139Zm25.377,0a74.413,74.413,0,0,0-4.892-12.139h9.849a48.85,48.85,0,0,1,9.958,12.139Z" transform="translate(-137.533 -4.267)" fill="#3e8fc9"/>
      </g>
    </g>
  </g>
</svg>
