<svg xmlns="http://www.w3.org/2000/svg" xmlns:xlink="http://www.w3.org/1999/xlink" width="208" height="208" viewBox="0 0 208 208">
  <defs>
    <filter id="Elipse_4068" x="0" y="0" width="208" height="208" filterUnits="userSpaceOnUse">
      <feOffset dy="3" input="SourceAlpha"/>
      <feGaussianBlur stdDeviation="3" result="blur"/>
      <feFlood flood-opacity="0.161"/>
      <feComposite operator="in" in2="blur"/>
      <feComposite in="SourceGraphic"/>
    </filter>
    <clipPath id="clip-path">
      <circle id="Elipse_4502" data-name="Elipse 4502" cx="73.5" cy="73.5" r="73.5" transform="translate(0 0)" fill="none"/>
    </clipPath>
  </defs>
  <g id="Grupo_73304" data-name="Grupo 73304" transform="translate(-386 -1564)">
    <g transform="matrix(1, 0, 0, 1, 386, 1564)" filter="url(#Elipse_4068)">
      <circle id="Elipse_4068-2" data-name="Elipse 4068" cx="95" cy="95" r="95" transform="translate(9 6)" fill="#fff"/>
    </g>
    <circle id="Elipse_4069" data-name="Elipse 4069" cx="73.5" cy="73.5" r="73.5" transform="translate(415 1592)" fill="#81d4fa"/>
    <g id="Grupo_73036" data-name="Grupo 73036" transform="translate(-52.723 -2385.229)">
      <g id="Grupo_73035" data-name="Grupo 73035" transform="translate(467.723 3976.729)" clip-path="url(#clip-path)">
        <g id="Grupo_73017" data-name="Grupo 73017" transform="translate(82.624 67.758)">
          <g id="Grupo_73015" data-name="Grupo 73015">
            <g id="Grupo_73014" data-name="Grupo 73014">
              <g id="Grupo_73013" data-name="Grupo 73013" transform="translate(22.108 19.579)">
                <g id="Grupo_73011" data-name="Grupo 73011">
                  <g id="Grupo_73010" data-name="Grupo 73010" transform="translate(4.479 8.011)">
                    <g id="Grupo_73008" data-name="Grupo 73008" transform="translate(3.343 5.989)">
                      <path id="Trazado_144547" data-name="Trazado 144547" d="M796.25,4275.835l1.836-2.886a1.919,1.919,0,0,1,1.754-.715c1.532,0,3.643-.007,5.036-.018a1.924,1.924,0,0,1,1.283-.01h.171a1.383,1.383,0,0,1,.986.592c2.4,2.426,5,5.532,5,5.532.606.828-.195,2.484-1.022,3.089s-3.632,2.76-4.237,1.933c0,0-.083-3.294-.937-4.8a9.131,9.131,0,0,1-2.067-2.755,16.969,16.969,0,0,1-4.1-.447l-1.335,1.6a1.743,1.743,0,0,1-2.326.467C795.645,4276.909,795.616,4276.594,796.25,4275.835Z" transform="translate(-795.791 -4272.102)" fill="#dec29b"/>
                      <path id="Trazado_144548" data-name="Trazado 144548" d="M795.827,4276.581a1.9,1.9,0,0,1,.447-.746l1.837-2.886a1.919,1.919,0,0,1,1.754-.715c1.532,0,3.643-.007,5.036-.018a1.924,1.924,0,0,1,1.283-.01h.17a1.383,1.383,0,0,1,.986.592c2.4,2.426,5,5.532,5,5.532.606.828-.195,2.484-1.022,3.089s-3.632,2.76-4.237,1.933a20.42,20.42,0,0,0-.256-2.564,7.745,7.745,0,0,0-.548-2.337,10.11,10.11,0,0,1-2.052-3.209,18.79,18.79,0,0,1-4.481-.832l-1.6,1.651A2.026,2.026,0,0,1,795.827,4276.581Z" transform="translate(-795.815 -4272.102)" fill="#d3af85"/>
                    </g>
                    <g id="Grupo_73009" data-name="Grupo 73009" transform="translate(1.199 2.691)">
                      <path id="Trazado_144549" data-name="Trazado 144549" d="M790.133,4267.286l2.359-3.708a2.469,2.469,0,0,1,2.254-.919c1.969.006,4.681-.009,6.47-.021a2.461,2.461,0,0,1,1.648-.013l.219,0a1.775,1.775,0,0,1,1.267.76c3.078,3.118,6.425,7.108,6.425,7.108.778,1.063-.25,3.19-1.313,3.968s-4.666,3.546-5.444,2.482c0,0-.106-4.232-1.2-6.171-.708-.389-1.783-2.025-2.655-3.541a21.818,21.818,0,0,1-5.263-.574l-1.715,2.053a2.237,2.237,0,0,1-2.989.6C789.356,4268.664,789.319,4268.261,790.133,4267.286Z" transform="translate(-789.543 -4262.489)" fill="#dec29b"/>
                      <path id="Trazado_144550" data-name="Trazado 144550" d="M789.59,4268.244a2.42,2.42,0,0,1,.574-.958l2.359-3.708a2.469,2.469,0,0,1,2.254-.919c1.969.006,4.681-.009,6.47-.021a2.462,2.462,0,0,1,1.648-.013l.219,0a1.775,1.775,0,0,1,1.267.76c3.078,3.118,6.425,7.108,6.425,7.108.778,1.063-.25,3.19-1.313,3.968s-4.666,3.546-5.444,2.482a26.16,26.16,0,0,0-.328-3.293,9.93,9.93,0,0,0-.7-3c-.749-.487-1.8-2.38-2.636-4.123a24.168,24.168,0,0,1-5.757-1.069l-2.061,2.122A2.6,2.6,0,0,1,789.59,4268.244Z" transform="translate(-789.574 -4262.489)" fill="#d3af85"/>
                    </g>
                    <path id="Trazado_144551" data-name="Trazado 144551" d="M786.792,4259.434l2.908-3.894a2.728,2.728,0,0,1,2.561-.827c2.17.169,5.162.377,7.137.511a2.727,2.727,0,0,1,1.818.122l.242.017a1.96,1.96,0,0,1,1.335.943c3.137,3.692,6.5,8.37,6.5,8.37.77,1.236-.539,3.5-1.776,4.267s-5.439,3.524-6.209,2.288c0,0,.233-4.676-.817-6.905-.749-.487-1.8-2.38-2.635-4.124a24.117,24.117,0,0,1-5.757-1.068l-2.061,2.122a2.474,2.474,0,0,1-3.345.415C785.821,4260.89,785.813,4260.441,786.792,4259.434Z" transform="translate(-786.047 -4254.646)" fill="#dec29b"/>
                  </g>
                  <path id="Trazado_144552" data-name="Trazado 144552" d="M816.955,4283.5a5.846,5.846,0,0,1-4.012,5.739c4.013-.5,7.106-4.929,7.092-7.906S816.955,4283.5,816.955,4283.5Z" transform="translate(-799.237 -4263.56)" fill="#d3af85"/>
                  <path id="Trazado_144553" data-name="Trazado 144553" d="M792.84,4232.708a2.648,2.648,0,0,0,2.523,2.579l4.287.517a2.406,2.406,0,0,0,2.883-1.929h0a2.648,2.648,0,0,0-2.523-2.579l-5.2.049c-1.493-.18-1.869.118-1.969,1.363Z" transform="translate(-786.027 -4231.296)" fill="#ead7b7"/>
                  <path id="Trazado_144554" data-name="Trazado 144554" d="M809.606,4232.482a2.638,2.638,0,0,0-.033,3.5,28.693,28.693,0,0,0,7.26,5.866,2.49,2.49,0,0,0,3.46-.521h0a2.491,2.491,0,0,0,.033-3.5s-5.329-3.724-8.359-5.906c-1.018-.732-1.4-.548-2.362.562Z" transform="translate(-796.598 -4231.418)" fill="#ead7b7"/>
                  <path id="Trazado_144555" data-name="Trazado 144555" d="M828.092,4247.013c-1.516.364-3.291-.247-3.221,1.312.078,1.747.6,7.037,1.574,8.257.313,2.619-1.5,7.29-1.5,7.29.364,1.516,5.563.14,7.079-.224h0c1.516-.364,3.611-2.217,3.247-3.733,0,0-1.869-6.006-3.828-10.843-.169-.417-1.829-2.422-3.345-2.058Z" transform="translate(-807.071 -4241.592)" fill="#ead7b7"/>
                  <path id="Trazado_144556" data-name="Trazado 144556" d="M821.065,4279.031c-1.891.073-3.5-.33-3.774,1.133-.92,4.906-4.135,7.971-6.116,7.826-3.06-.225,4.49,13.163,7.538,14.876h0c3.6,2.025,6.89-.17,6.726-4.539l.426-17.007c-.062-1.763-2.14-1.754-3.351-2.439Z" transform="translate(-797.604 -4262.556)" fill="#ead7b7"/>
                  <path id="Trazado_144557" data-name="Trazado 144557" d="M785.955,4300.838a34.788,34.788,0,0,1-5.9-7.305c-.593-.893-2.6-4.429-4.288-6.718l-1.75-5.772c-.184-.905-1.72-2.863-.646-3.934s3.357-.417,4.419.666c1.753,1.787,2.057,4.9,2.96,5.9,6.83,2.65,8.223,3.356,8.223,3.356,1.324,1.125,10.279,12.575,8.646,14.2S787.264,4301.981,785.955,4300.838Z" transform="translate(-772.992 -4261.033)" fill="#ead7b7"/>
                  <path id="Trazado_144558" data-name="Trazado 144558" d="M805.8,4308.957c1.2,7.474,8.941,9.706,13.051,7.785s2.882-7.009,2.744-13.524c-.076-3.609-4.482,2.85-9.923-4.331-2.429,2.554-2.2,3.112-6.568,1.356C805.1,4300.243,804.807,4302.781,805.8,4308.957Z" transform="translate(-794.058 -4275.698)" fill="#ead7b7"/>
                  <path id="Trazado_144559" data-name="Trazado 144559" d="M817.925,4353.673l8.356-3.907c-.66-1.413-1.677-2.98-.861-8.083a42.953,42.953,0,0,0-14.643,1.9,54.977,54.977,0,0,1,3.315,10.09Z" transform="translate(-797.814 -4303.778)" fill="#ead7b7"/>
                </g>
                <g id="Grupo_73012" data-name="Grupo 73012" transform="translate(13.639 41.245)">
                  <rect id="Rectángulo_32385" data-name="Rectángulo 32385" width="14.658" height="3.431" transform="translate(0.43 4.012) rotate(-15.886)" fill="#fff"/>
                  <path id="Trazado_144560" data-name="Trazado 144560" d="M831.044,4363.425l-1.977-6.948-16.321,4.645.656,2.3Z" transform="translate(-812.746 -4354.775)" fill="#c63901"/>
                </g>
              </g>
              <path id="Trazado_144561" data-name="Trazado 144561" d="M711.889,4192.327a3.344,3.344,0,0,1,1.528.358v0c1.827.916,2.355.15,2.413-.552l-.068-9.937a.568.568,0,0,1,.564-.572l9.962-.068c.8-.069,1.435-.606.495-2.42h0a3.359,3.359,0,1,1,5.982-.041h0c-.915,1.827-.151,2.354.553,2.413l9.937-.068a.567.567,0,0,1,.566.51c0,.018-.005.036-.005.055l.068,9.9a.941.941,0,0,1-.147.467.641.641,0,0,1-.564.252,3.017,3.017,0,0,1-1.29-.39l-.414-.208v.032a3.6,3.6,0,0,0-1.243-.21,3.644,3.644,0,0,0,.05,7.288,3.6,3.6,0,0,0,1.24-.228v.03l.412-.211a3.225,3.225,0,0,1,1.348-.437c.168,0,.594,0,.657.69l.068,9.954c0,.018,0,.036.006.054a.566.566,0,0,1-.56.517l-9.883.067a.938.938,0,0,1-.467-.146.642.642,0,0,1-.252-.564,3.028,3.028,0,0,1,.39-1.29l.208-.414h-.032a3.6,3.6,0,0,0,.211-1.242,3.644,3.644,0,0,0-7.288.049,3.6,3.6,0,0,0,.228,1.24h-.03l.211.412a3.234,3.234,0,0,1,.437,1.348c0,.168,0,.594-.691.657l-9.953.068h-.021a.569.569,0,0,1-.572-.564l-.068-9.962c-.069-.8-.606-1.435-2.42-.495v0a3.359,3.359,0,1,1-1.569-6.34Z" transform="translate(-708.553 -4174.228)" fill="#e29f3d"/>
              <path id="Trazado_144562" data-name="Trazado 144562" d="M717.171,4210a.227.227,0,0,1-.225-.225l-.068-9.961a1.24,1.24,0,0,0-1.277-1.306,3.022,3.022,0,0,0-1.143.273v-.024l-.5.257a2.985,2.985,0,0,1-1.367.341,3.017,3.017,0,1,1-.041-6.033h0a3.007,3.007,0,0,1,1.371.322l.574.289-.005-.042a2.924,2.924,0,0,0,.994.206,1.291,1.291,0,0,0,1.346-1.287l-.067-9.968a.224.224,0,0,1,.223-.227l9.962-.068a1.326,1.326,0,0,0,1.153-.632,2.057,2.057,0,0,0-.12-1.788h.025l-.258-.5a3.014,3.014,0,0,1,2.655-4.4,3.028,3.028,0,0,1,3.037,3,2.98,2.98,0,0,1-.321,1.372l-.25.5h.03a2.063,2.063,0,0,0-.066,1.765,1.348,1.348,0,0,0,1.119.646l9.968-.066a.223.223,0,0,1,.218.173c0,.015,0,.031,0,.047l.068,9.907a.6.6,0,0,1-.084.267c-.024.035-.074.106-.286.107a2.664,2.664,0,0,1-1.134-.353l-.917-.46v.133a3.987,3.987,0,1,0,.051,7.769v.1l.5-.227.412-.211a2.834,2.834,0,0,1,1.194-.4h.006c.144,0,.273,0,.307.379l.067,9.948,0,.025a.222.222,0,0,1-.216.177l-9.883.068a.6.6,0,0,1-.268-.085c-.031-.022-.105-.074-.106-.286a2.637,2.637,0,0,1,.353-1.133l.457-.912h-.132a3.987,3.987,0,1,0-7.768.052h-.1l.223.494.211.412a2.834,2.834,0,0,1,.4,1.194c0,.149,0,.279-.379.313l-9.925.067Z" transform="translate(-709.21 -4174.885)" fill="#ffca70"/>
            </g>
          </g>
          <g id="Grupo_73016" data-name="Grupo 73016" transform="translate(12.599 12.193)">
            <path id="Trazado_144563" data-name="Trazado 144563" d="M762.277,4225.062l-4.4-3.884a1.147,1.147,0,0,0-.168-.117,6.958,6.958,0,1,0-1.32,1.279,1.126,1.126,0,0,0,.13.2l3.377,4.908c1.276,1.529,3.175,2.385,3.971,1.588S763.806,4226.338,762.277,4225.062Zm-15.895-8.325a5.864,5.864,0,1,1,5.864,5.864A5.864,5.864,0,0,1,746.382,4216.736Zm11.2,0a5.339,5.339,0,0,1-9.149,3.743,8.743,8.743,0,0,0,7.85-7.228A5.315,5.315,0,0,1,757.587,4216.736Z" transform="translate(-745.277 -4209.768)" fill="#fff"/>
          </g>
        </g>
        <g id="Grupo_73026" data-name="Grupo 73026" transform="translate(-3.035 69.783)">
          <g id="Grupo_73025" data-name="Grupo 73025">
            <g id="Grupo_73023" data-name="Grupo 73023" transform="translate(0 11.655)">
              <g id="Grupo_73021" data-name="Grupo 73021" transform="translate(16.144)">
                <g id="Grupo_73020" data-name="Grupo 73020" transform="translate(7.484 2.034)">
                  <g id="Grupo_73018" data-name="Grupo 73018" transform="translate(2.758 5.579)">
                    <path id="Trazado_144564" data-name="Trazado 144564" d="M552.414,4242.449l-1.018-3.266a1.92,1.92,0,0,0-1.506-1.149c-1.48-.4-3.514-.959-4.856-1.333a1.92,1.92,0,0,0-1.236-.345l-.164-.045a1.381,1.381,0,0,0-1.106.313c-2.947,1.716-6.274,4.033-6.274,4.033-.8.64-.461,2.448.179,3.248s2.784,3.614,3.585,2.973c0,0,.941-3.158,2.16-4.391a9.152,9.152,0,0,0,2.715-2.12,17.016,17.016,0,0,0,4.071.64l.871,1.891a1.742,1.742,0,0,0,2.123,1.059C552.718,4243.643,552.828,4243.348,552.414,4242.449Z" transform="translate(-535.786 -4236.292)" fill="#dec29b"/>
                    <path id="Trazado_144565" data-name="Trazado 144565" d="M552.65,4243.286a1.886,1.886,0,0,0-.236-.837l-1.018-3.266a1.92,1.92,0,0,0-1.506-1.149c-1.48-.4-3.514-.959-4.856-1.333a1.92,1.92,0,0,0-1.236-.345l-.164-.045a1.381,1.381,0,0,0-1.106.313c-2.947,1.716-6.274,4.033-6.274,4.033-.8.64-.461,2.448.179,3.248s2.784,3.614,3.585,2.973a20.371,20.371,0,0,1,.917-2.408,7.723,7.723,0,0,1,1.14-2.113,10.1,10.1,0,0,0,2.819-2.562,18.8,18.8,0,0,0,4.543.369l1.117,2.014A2.028,2.028,0,0,0,552.65,4243.286Z" transform="translate(-535.786 -4236.292)" fill="#d3af85"/>
                  </g>
                  <g id="Grupo_73019" data-name="Grupo 73019" transform="translate(0.551 2.195)">
                    <path id="Trazado_144566" data-name="Trazado 144566" d="M550.714,4234.338l-1.308-4.2a2.466,2.466,0,0,0-1.935-1.477c-1.9-.508-4.516-1.232-6.239-1.712a2.464,2.464,0,0,0-1.587-.444l-.211-.059a1.777,1.777,0,0,0-1.422.4c-3.786,2.2-8.06,5.181-8.06,5.181-1.029.823-.593,3.145.23,4.173s3.577,4.642,4.606,3.819c0,0,1.209-4.057,2.775-5.642.785-.19,2.251-1.488,3.489-2.723a21.787,21.787,0,0,0,5.23.822l1.119,2.429a2.237,2.237,0,0,0,2.728,1.36C551.1,4235.872,551.245,4235.492,550.714,4234.338Z" transform="translate(-529.351 -4226.428)" fill="#dec29b"/>
                    <path id="Trazado_144567" data-name="Trazado 144567" d="M551.018,4235.413a2.428,2.428,0,0,0-.3-1.075l-1.308-4.2a2.466,2.466,0,0,0-1.935-1.477c-1.9-.508-4.516-1.232-6.239-1.712a2.464,2.464,0,0,0-1.587-.444l-.211-.059a1.777,1.777,0,0,0-1.422.4c-3.786,2.2-8.06,5.181-8.06,5.181-1.029.823-.593,3.145.23,4.173s3.577,4.642,4.606,3.819a26.162,26.162,0,0,1,1.178-3.093,9.928,9.928,0,0,1,1.464-2.715c.85-.275,2.359-1.827,3.622-3.291a24.114,24.114,0,0,0,5.836.473l1.435,2.587A2.6,2.6,0,0,0,551.018,4235.413Z" transform="translate(-529.351 -4226.428)" fill="#d3af85"/>
                  </g>
                  <path id="Trazado_144568" data-name="Trazado 144568" d="M551.374,4227.8l-1.789-4.519a2.729,2.729,0,0,0-2.256-1.468c-2.139-.4-5.081-.985-7.022-1.373a2.727,2.727,0,0,0-1.787-.358l-.237-.047a1.962,1.962,0,0,0-1.535.562c-3.993,2.744-8.46,6.38-8.46,6.38-1.067.992-.394,3.517.6,4.583s4.329,4.824,5.4,3.831c0,0,1-4.574,2.594-6.451.85-.275,2.359-1.827,3.622-3.291a24.137,24.137,0,0,0,5.836.474l1.435,2.586a2.475,2.475,0,0,0,3.121,1.274C551.93,4229.461,552.055,4229.031,551.374,4227.8Z" transform="translate(-527.746 -4220.03)" fill="#dec29b"/>
                </g>
                <path id="Trazado_144569" data-name="Trazado 144569" d="M551.063,4246.186a5.847,5.847,0,0,0,2.372,6.589c-3.743-1.531-5.571-6.616-4.778-9.486S551.063,4246.186,551.063,4246.186Z" transform="translate(-533.879 -4232.749)" fill="#d3af85"/>
                <path id="Trazado_144570" data-name="Trazado 144570" d="M589.734,4219.471a2.648,2.648,0,0,1-3.514.818l-3.892-1.87a2.4,2.4,0,0,1-1.394-3.176h0a2.649,2.649,0,0,1,3.514-.819l4.359,2.839c1.356.651,1.513,1.1.927,2.207Z" transform="translate(-555.058 -4214.102)" fill="#ead7b7"/>
                <path id="Trazado_144571" data-name="Trazado 144571" d="M565.675,4215.821a2.639,2.639,0,0,1-1.75,3.031,28.693,28.693,0,0,1-9.233,1.364,2.491,2.491,0,0,1-2.716-2.207h0a2.49,2.49,0,0,1,1.75-3.03s6.482-.5,10.2-.841c1.249-.114,1.482.238,1.749,1.684Z" transform="translate(-536.145 -4214.112)" fill="#ead7b7"/>
                <path id="Trazado_144572" data-name="Trazado 144572" d="M540.1,4217.147c1.121,1.084,2.96,1.46,2.109,2.766-.954,1.465-4.095,5.755-5.551,6.313-1.6,2.1-2.407,7.042-2.407,7.042-1.084,1.121-4.863-2.705-5.984-3.789h0c-1.121-1.084-1.983-3.744-.9-4.866,0,0,4.661-4.223,8.806-7.394.357-.273,2.806-1.157,3.927-.073Z" transform="translate(-519.688 -4215.757)" fill="#ead7b7"/>
                <path id="Trazado_144573" data-name="Trazado 144573" d="M524.117,4238.129c1.806.565,3.464.6,3.346,2.081-.395,4.976,1.908,8.774,3.858,9.152,3.013.583-7.775,11.532-11.165,12.388h0c-4.009,1.013-6.607-1.965-5.305-6.138l4.035-16.527c.52-1.686,2.524-1.134,3.872-1.478Z" transform="translate(-511.569 -4229.543)" fill="#ead7b7"/>
                <path id="Trazado_144574" data-name="Trazado 144574" d="M532.355,4273.207a34.764,34.764,0,0,0,7.606-5.509c.806-.707,3.671-3.595,5.9-5.362l3.2-5.114c.414-.825,2.409-2.314,1.652-3.629s-3.131-1.28-4.439-.512c-2.159,1.266-3.268,4.2-4.4,4.923-7.285.773-8.815,1.089-8.815,1.089-1.572.74-13.209,9.45-12.058,11.449S530.793,4273.968,532.355,4273.207Z" transform="translate(-515.774 -4239.357)" fill="#ead7b7"/>
                <path id="Trazado_144575" data-name="Trazado 144575" d="M531.369,4273.732c-3.111,6.9-11.168,7.032-14.632,4.1s-.95-7.519.888-13.771c1.018-3.464,3.581,3.922,10.71-1.586,1.677,3.1,1.309,3.58,5.985,3.026C534.32,4265.5,533.94,4268.03,531.369,4273.732Z" transform="translate(-511.896 -4245.881)" fill="#ead7b7"/>
                <path id="Trazado_144576" data-name="Trazado 144576" d="M508.876,4296.264c-.546,5.139-1.937,6.386-2.944,7.577l10.042,8.489s1.409-3.854,6.538-10.4A42.963,42.963,0,0,0,508.876,4296.264Z" transform="translate(-505.932 -4268.076)" fill="#ead7b7"/>
              </g>
              <g id="Grupo_73022" data-name="Grupo 73022" transform="translate(0 31.265)">
                <rect id="Rectángulo_32386" data-name="Rectángulo 32386" width="3.431" height="14.658" transform="translate(15.905 2.939) rotate(-58.958)" fill="#fff"/>
                <path id="Trazado_144577" data-name="Trazado 144577" d="M480.142,4332.009l.213-.386,8.558-14.22-14.539-8.75-15.5,23.355Z" transform="translate(-458.875 -4307.48)"/>
              </g>
            </g>
            <g id="Grupo_73024" data-name="Grupo 73024" transform="translate(45.629)">
              <path id="Trazado_144578" data-name="Trazado 144578" d="M609.687,4183.522a3.338,3.338,0,0,0,.383,1.521h0c.945,1.813.189,2.352-.514,2.421l-9.937.092a.568.568,0,0,0-.563.573l.091,9.962c-.056.8-.582,1.443-2.411.533v0a3.36,3.36,0,1,0,.055,5.981v0c1.812-.944,2.351-.188,2.421.514l.091,9.937a.567.567,0,0,0,.519.558c.019,0,.036-.006.055-.006l9.9-.091a.942.942,0,0,0,.465-.154.642.642,0,0,0,.243-.568,3.026,3.026,0,0,0-.41-1.283l-.214-.412h.032a3.59,3.59,0,0,1-.231-1.239,3.644,3.644,0,0,1,7.287-.067,3.592,3.592,0,0,1-.208,1.244h.03l-.2.415a3.231,3.231,0,0,0-.416,1.355c0,.167.006.594.7.646l9.953-.092c.019,0,.036,0,.055.005a.566.566,0,0,0,.508-.567l-.091-9.883a.947.947,0,0,0-.155-.465.642.642,0,0,0-.568-.243,3.039,3.039,0,0,0-1.283.411l-.411.214v-.032a3.587,3.587,0,0,1-1.239.23,3.644,3.644,0,1,1-.067-7.287,3.586,3.586,0,0,1,1.243.208v-.029l.415.2a3.239,3.239,0,0,0,1.354.416c.168,0,.594-.006.646-.7l-.091-9.953v-.021a.568.568,0,0,0-.574-.562l-9.962.091c-.8-.056-1.444-.582-.534-2.412h0a3.359,3.359,0,1,0-6.364-1.467Z" transform="translate(-591.876 -4180.132)" fill="#75af5d"/>
              <path id="Trazado_144579" data-name="Trazado 144579" d="M600.478,4215.932a.224.224,0,0,1-.178-.216l-.091-9.937a1.3,1.3,0,0,0-1.339-1.3,2.953,2.953,0,0,0-1.083.248v-.028l-.5.26a2.981,2.981,0,0,1-1.366.344,3.032,3.032,0,0,1-3.044-2.989,3.017,3.017,0,0,1,2.989-3.044h0a3.009,3.009,0,0,1,1.371.319l.573.287,0-.037a2.974,2.974,0,0,0,1.055.229,1.231,1.231,0,0,0,1.284-1.3l-.091-9.989a.225.225,0,0,1,.223-.227l9.937-.091a1.366,1.366,0,0,0,1.139-.667,2.059,2.059,0,0,0-.091-1.754h.028l-.26-.5a2.982,2.982,0,0,1-.344-1.366,3.016,3.016,0,1,1,6.033-.055,2.988,2.988,0,0,1-.318,1.373l-.248.5h.026a2.065,2.065,0,0,0-.1,1.8,1.31,1.31,0,0,0,1.136.612l9.989-.09a.226.226,0,0,1,.227.223l.091,9.974c-.027.353-.156.354-.305.356a2.866,2.866,0,0,1-1.2-.38l-.917-.451,0,.127a3.961,3.961,0,0,0-.86-.094h-.038a3.987,3.987,0,0,0,.036,7.974h.037a4,4,0,0,0,.9-.11v.1l.5-.227.411-.213a2.63,2.63,0,0,1,1.128-.372h0c.213,0,.264.069.288.1a.633.633,0,0,1,.09.294l.089,9.854a.222.222,0,0,1-.173.219l-.045,0-9.958.091c-.353-.027-.354-.156-.355-.306a2.839,2.839,0,0,1,.38-1.2l.448-.911h-.125a3.959,3.959,0,0,0,.095-.9,4,4,0,0,0-3.987-3.95h-.036a3.987,3.987,0,0,0-3.84,4.921l-.1,0,.226.5.214.412a2.645,2.645,0,0,1,.372,1.127c0,.212-.071.265-.1.288a.631.631,0,0,1-.3.089l-9.9.09Z" transform="translate(-592.532 -4180.789)" fill="#93d17c"/>
            </g>
          </g>
          <path id="Trazado_144580" data-name="Trazado 144580" d="M648.387,4219.41a1.545,1.545,0,0,1,1.632,1.069,6.085,6.085,0,0,0,1.531-.83,1.545,1.545,0,0,1,1.907-2.349,6.06,6.06,0,0,0,.5-1.668,1.545,1.545,0,0,1-.312-3.01,6.089,6.089,0,0,0-.83-1.531,1.545,1.545,0,0,1-2.348-1.907,6.055,6.055,0,0,0-1.669-.5,1.545,1.545,0,0,1-3.01.312,6.055,6.055,0,0,0-1.531.83,1.545,1.545,0,0,1-1.907,2.349,6.069,6.069,0,0,0-.5,1.669,1.545,1.545,0,0,1,.312,3.01,6.09,6.09,0,0,0,.83,1.531,1.545,1.545,0,0,1,2.348,1.907,6.054,6.054,0,0,0,1.669.5A1.545,1.545,0,0,1,648.387,4219.41Zm-3.557-4.352a3.089,3.089,0,1,1,3.392,2.754A3.089,3.089,0,0,1,644.83,4215.058Z" transform="translate(-579.075 -4198.89)" fill="#fff"/>
          <path id="Trazado_144581" data-name="Trazado 144581" d="M629.5,4244.007a1.288,1.288,0,0,1,1.519.583,5.07,5.07,0,0,0,1.1-.947,1.288,1.288,0,0,1,1.138-2.251,5.062,5.062,0,0,0,.11-1.448,1.288,1.288,0,0,1-.787-2.4,5.065,5.065,0,0,0-.947-1.1,1.288,1.288,0,0,1-2.251-1.139,5.061,5.061,0,0,0-1.447-.11,1.288,1.288,0,0,1-2.4.787,5.069,5.069,0,0,0-1.1.947,1.288,1.288,0,0,1-1.138,2.251,5.061,5.061,0,0,0-.11,1.448,1.288,1.288,0,0,1,.787,2.4,5.068,5.068,0,0,0,.947,1.1,1.288,1.288,0,0,1,2.251,1.138,5.08,5.08,0,0,0,1.448.111A1.289,1.289,0,0,1,629.5,4244.007Zm-3.669-2.917a2.576,2.576,0,1,1,3.251,1.644A2.576,2.576,0,0,1,625.831,4241.09Z" transform="translate(-566.809 -4216.297)" fill="#fff"/>
        </g>
        <g id="Grupo_73031" data-name="Grupo 73031" transform="translate(13.219 0)">
          <g id="Grupo_73029" data-name="Grupo 73029">
            <g id="Grupo_73028" data-name="Grupo 73028">
              <path id="Trazado_144582" data-name="Trazado 144582" d="M560.668,4007.208l-9.844,7.574c2.281,2.418,6.154,7.52,6.533,9.909.277,3.734,5.625,11.023,9.56,15.308h0c.9,1.017,1.7,1.87,2.577,2.962,1.268,1.586,1.985,1.927,3.14,3.534,1.178,1.64,2.364,1.549,2.78,1.3.85-.511,1.14-1.125-.711-3.038-.9-.927-2.154-2.828-2.947-3.825-1.279-1.607-2.394-2.729-1.887-2.961.544.2,1.7,1.588,3.948,4.464,1.841,2.355,3.469,4.161,5.169,6.53,1.734,2.417,2.98,2.659,3.474,2.375,1.008-.579,1.289-1.379-1.34-4.266-1.275-1.4-3.812-5.421-4.965-6.9a29,29,0,0,1-3.122-4.367c.223-.583,1.9.854,4.845,4.58,2.066,2.617,3.854,4.453,5.749,7.094,1.935,2.7,3.418,2.9,4.029,2.538,1.248-.734,1.636-1.68-1.346-4.863-1.446-1.544-4.188-5.893-5.482-7.539-2.086-2.653-4.038-4.931-3.218-5.176.527.221,1.451,1.169,3.686,3.792,1.887,2.214,3.563,3.929,5.3,6.173,1.771,2.29,3.1,2.4,3.636,2.055,1.1-.706,1.43-1.56-1.283-4.232-1.316-1.3-3.886-5.184-5.068-6.577-1.906-2.247-3.674-3.929-4.01-4.306-1.214-1.364-2.721-3.324-4.332-5.2.544-.818,1.16,1,2.767,1.667.77.318.609,2.241,4.286,3.982,1.435.68,3.366.251,3.159-1.217-1.385-1.245-2.826-2.786-6.474-8.186-2.579-2.246-8.7-5.806-11.147-6.3C564.43,4013.328,561.877,4009.41,560.668,4007.208Z" transform="translate(-535.533 -3996.751)" fill="#ead7b7"/>
              <g id="Grupo_73027" data-name="Grupo 73027">
                <rect id="Rectángulo_32387" data-name="Rectángulo 32387" width="14.658" height="3.431" transform="matrix(0.797, -0.604, 0.604, 0.797, 16.098, 20.712)" fill="#fff"/>
                <path id="Trazado_144583" data-name="Trazado 144583" d="M506.253,3976.729l16.046,22.386,13.528-10.245-8.684-12.141Z" transform="translate(-506.253 -3976.729)" fill="#fbca61"/>
              </g>
            </g>
            <path id="Trazado_144584" data-name="Trazado 144584" d="M590.455,4061.333a3.34,3.34,0,0,0,.242,1.55h0c.774,1.892-.027,2.359-.734,2.364l-9.9-.819a.569.569,0,0,0-.613.52l-.821,9.928c-.129.8-.712,1.385-2.45.31v0a3.36,3.36,0,1,0-.493,5.961v0c1.891-.774,2.359.027,2.364.734l-.819,9.9a.566.566,0,0,0,.465.6c.019,0,.036,0,.055,0l9.871.816a.944.944,0,0,0,.477-.111.641.641,0,0,0,.294-.543,3.038,3.038,0,0,0-.291-1.315l-.176-.429.032,0a3.594,3.594,0,0,1-.116-1.255,3.644,3.644,0,0,1,7.263.6,3.586,3.586,0,0,1-.321,1.219l.03,0-.242.395a3.239,3.239,0,0,0-.538,1.311c-.014.167-.048.592.64.707l9.92.821c.019,0,.036.007.054.01a.567.567,0,0,0,.558-.519l.814-9.85a.941.941,0,0,0-.111-.477.643.643,0,0,0-.543-.294,3.035,3.035,0,0,0-1.315.291l-.429.176,0-.033a3.583,3.583,0,0,1-1.255.116,3.644,3.644,0,1,1,.6-7.263,3.582,3.582,0,0,1,1.219.321l0-.03.395.241a3.244,3.244,0,0,0,1.311.539c.167.014.592.048.707-.64l.82-9.919,0-.021a.569.569,0,0,0-.519-.613l-9.929-.821c-.8-.129-1.385-.712-.31-2.45h0a3.359,3.359,0,1,0-6.2-2.043Z" transform="translate(-548.817 -4030.281)" fill="#3e3a3f"/>
            <path id="Trazado_144585" data-name="Trazado 144585" d="M605.272,4094.926l-9.92-.82c-.349-.059-.338-.187-.326-.336a2.838,2.838,0,0,1,.488-1.16l.534-.874-.128-.009a3.989,3.989,0,0,0-3.469-5.187q-.167-.014-.331-.014a4.008,4.008,0,0,0-3.97,3.658,3.939,3.939,0,0,0,.028.9l-.1-.009.18.516.176.429a2.646,2.646,0,0,1,.267,1.157c-.017.211-.092.256-.128.278a.632.632,0,0,1-.3.063l-9.856-.816h-.036a.222.222,0,0,1-.157-.23l.819-9.9a1.309,1.309,0,0,0-1.4-1.422,3.283,3.283,0,0,0-.967.17v-.022l-.473.192a3,3,0,0,1-1.144.228c-.082,0-.165,0-.248-.01a3.016,3.016,0,0,1-2.758-3.255,3.032,3.032,0,0,1,3-2.768c.083,0,.168,0,.253.011a2.976,2.976,0,0,1,1.337.443l.524.324v-.033a2.753,2.753,0,0,0,1.2.341,1.236,1.236,0,0,0,1.243-1.183l.824-9.955a.226.226,0,0,1,.224-.207l9.923.82a1.366,1.366,0,0,0,1.2-.559,2.069,2.069,0,0,0,.065-1.771h.026l-.206-.507a2.975,2.975,0,0,1-.217-1.392,3.031,3.031,0,0,1,3-2.768c.083,0,.168,0,.253.01a3.02,3.02,0,0,1,2.757,3.255,2.983,2.983,0,0,1-.443,1.337l-.3.483h.028a2.057,2.057,0,0,0-.254,1.771,1.31,1.31,0,0,0,1.075.714l9.955.824a.227.227,0,0,1,.206.244l-.822,9.94c-.056.33-.185.33-.262.33h0c-.029,0-.054,0-.074,0a2.839,2.839,0,0,1-1.159-.489l-.873-.534-.01.127a3.977,3.977,0,0,0-.885-.175q-.167-.014-.331-.014a4.009,4.009,0,0,0-3.971,3.658,3.99,3.99,0,0,0,3.645,4.3q.166.014.331.014a3.923,3.923,0,0,0,.572-.042l-.008.1.516-.18.429-.176a3.009,3.009,0,0,1,1.071-.27c.03,0,.058,0,.086,0,.211.017.258.095.277.127a.629.629,0,0,1,.063.3l-.813,9.821a.223.223,0,0,1-.195.2Z" transform="translate(-549.474 -4030.939)" fill="#514c52"/>
            <path id="Trazado_144586" data-name="Trazado 144586" d="M624.813,4042.164a26.076,26.076,0,0,0-2.4-1.8c-.239,1.831-4.139,3.31-1.146,5.782a12.877,12.877,0,0,0,2.574,1.443c.77.318.609,2.241,4.286,3.982,1.435.68,3.366.251,3.159-1.217C629.9,4049.1,628.461,4047.564,624.813,4042.164Z" transform="translate(-581.07 -4018.53)" fill="#ead7b7"/>
          </g>
          <g id="Grupo_73030" data-name="Grupo 73030" transform="translate(36.179 37.666)">
            <path id="Trazado_144587" data-name="Trazado 144587" d="M621.136,4106.888l4.027.289a2.333,2.333,0,0,1-4.027-.289Zm4.575-2.95h-.01l-4.8,1.938a2.326,2.326,0,0,0,.117.715l4.641-1.874C625.686,4104.3,625.71,4103.95,625.711,4103.938Zm-4.79,1.512,3.9-1.576-1.6-.115-2.242.9C620.956,4104.959,620.935,4105.252,620.92,4105.45Zm4.382,1.5a2.335,2.335,0,0,0,.208-.572l-1.236.5Zm-4.293-2.713,1.332-.537-1.285-.093C621.055,4103.614,621.035,4103.888,621.01,4104.233Zm.783,2.462,1.6.114,2.175-.878c.011-.15.032-.457.055-.785Zm5.02-5.294h0c-1.207,1.02-1.177,1.313-1.1,2.1h0c0,.022,0,.044,0,.067l-4.61-.332c0-.021.008-.044.013-.065h0c.188-.771.26-1.056-.789-2.239h0a4.655,4.655,0,1,1,6.485.466Zm.7-3.077-2.045-.354-.8-3.267-1.265,4.646-.795-2.982-.523,1.516-1.647-.119,1.876.549.232-.708.874,3.757,1.28-4.56.553,1.67Z" transform="translate(-616.599 -4090.901)" fill="#fff"/>
            <path id="Trazado_144588" data-name="Trazado 144588" d="M634.01,4088.067a.459.459,0,0,1-.491.425h0a.459.459,0,0,1-.425-.491l.076-1.057a.459.459,0,0,1,.491-.425h0a.459.459,0,0,1,.425.491Z" transform="translate(-625.755 -4086.518)" fill="#fff"/>
            <path id="Trazado_144589" data-name="Trazado 144589" d="M624.551,4089.4a.459.459,0,0,1-.212.613h0a.459.459,0,0,1-.613-.212l-.463-.953a.459.459,0,0,1,.213-.614h0a.459.459,0,0,1,.613.213Z" transform="translate(-619.268 -4087.615)" fill="#fff"/>
            <path id="Trazado_144590" data-name="Trazado 144590" d="M616.9,4095.358a.46.46,0,0,1,.122.638h0a.459.459,0,0,1-.637.123l-.877-.594a.459.459,0,0,1-.123-.638h0a.459.459,0,0,1,.638-.123Z" transform="translate(-614.072 -4091.883)" fill="#fff"/>
            <path id="Trazado_144591" data-name="Trazado 144591" d="M613.255,4104.343a.459.459,0,0,1,.425.491h0a.46.46,0,0,1-.491.425l-1.057-.076a.459.459,0,0,1-.425-.491h0a.459.459,0,0,1,.491-.425Z" transform="translate(-611.707 -4098.176)" fill="#fff"/>
            <path id="Trazado_144592" data-name="Trazado 144592" d="M614.59,4113.061a.459.459,0,0,1,.613.213h0a.458.458,0,0,1-.213.613l-.953.463a.459.459,0,0,1-.613-.212h0a.459.459,0,0,1,.212-.613Z" transform="translate(-612.805 -4103.924)" fill="#fff"/>
            <path id="Trazado_144593" data-name="Trazado 144593" d="M645.106,4116.813a.459.459,0,0,1-.122-.638h0a.459.459,0,0,1,.637-.123l.877.594a.459.459,0,0,1,.123.638h0a.458.458,0,0,1-.637.123Z" transform="translate(-633.515 -4105.867)" fill="#fff"/>
            <path id="Trazado_144594" data-name="Trazado 144594" d="M648.409,4108.821a.459.459,0,0,1-.425-.491h0a.458.458,0,0,1,.491-.425l1.057.076a.458.458,0,0,1,.425.49h0a.459.459,0,0,1-.491.425Z" transform="translate(-635.537 -4100.566)" fill="#fff"/>
            <path id="Trazado_144595" data-name="Trazado 144595" d="M647.272,4099.362a.459.459,0,0,1-.613-.212h0a.459.459,0,0,1,.213-.614l.953-.463a.459.459,0,0,1,.613.213h0a.458.458,0,0,1-.212.613Z" transform="translate(-634.637 -4094.078)" fill="#fff"/>
            <path id="Trazado_144596" data-name="Trazado 144596" d="M642,4091.712a.459.459,0,0,1-.637.123h0a.46.46,0,0,1-.123-.638l.594-.877a.459.459,0,0,1,.637-.123h0a.459.459,0,0,1,.123.638Z" transform="translate(-631.057 -4088.883)" fill="#fff"/>
          </g>
        </g>
        <g id="Grupo_73034" data-name="Grupo 73034" transform="translate(79.406 0)">
          <g id="Grupo_73033" data-name="Grupo 73033">
            <path id="Trazado_144597" data-name="Trazado 144597" d="M762.432,4066.929a2.3,2.3,0,0,0-.971-3.1l-3.23-1.69a2.3,2.3,0,0,0-3.1.971h0a2.3,2.3,0,0,0,.971,3.1l4.2,1.425c1.125.588,1.548.419,2.137-.706Z" transform="translate(-735.759 -4032.663)" fill="#dec29b"/>
            <path id="Trazado_144598" data-name="Trazado 144598" d="M772.958,4056.625a2.2,2.2,0,0,0-1.5-2.724l-3.347-.974a2.2,2.2,0,0,0-2.724,1.5h0a2.2,2.2,0,0,0,1.5,2.724l4.2.542c1.165.339,1.53.1,1.869-1.065Z" transform="translate(-742.615 -4026.728)" fill="#dec29b"/>
            <path id="Trazado_144599" data-name="Trazado 144599" d="M781.74,4049.433a1.905,1.905,0,0,0-1.479-2.252l-2.959-.614a1.905,1.905,0,0,0-2.253,1.479h0a1.905,1.905,0,0,0,1.479,2.252l3.668.183c1.031.213,1.33-.018,1.544-1.048Z" transform="translate(-748.992 -4022.581)" fill="#dec29b"/>
            <path id="Trazado_144600" data-name="Trazado 144600" d="M750.991,4035.914s4.334,7.006,4.765,7.643-2.16,6.531-4.4,5.416C747.51,4047.054,750.991,4035.914,750.991,4035.914Z" transform="translate(-732.265 -4015.609)" fill="#d3af85"/>
            <path id="Trazado_144601" data-name="Trazado 144601" d="M753.755,4028.474s4.334,7.006,4.765,7.643,6.288-12.448,2.1-11.476A14.856,14.856,0,0,0,753.755,4028.474Z" transform="translate(-735.029 -4008.17)" fill="#dec29b"/>
            <path id="Trazado_144602" data-name="Trazado 144602" d="M754.242,4075.791a2.3,2.3,0,0,0-.874-3.13l-3.176-1.79a2.3,2.3,0,0,0-3.131.874h0a2.3,2.3,0,0,0,.874,3.131l4.15,1.554c1.106.623,1.535.467,2.158-.639Z" transform="translate(-730.437 -4038.377)" fill="#ead7b7"/>
            <path id="Trazado_144603" data-name="Trazado 144603" d="M743.437,4062.755a2.3,2.3,0,0,0,1-3.093l-3.334-6.25a2.3,2.3,0,0,0-3.094-1h0a2.3,2.3,0,0,0-1,3.094s1.843,3.1,3.334,6.249a2.275,2.275,0,0,0,3.094,1Z" transform="translate(-723.862 -4026.281)" fill="#ead7b7"/>
            <path id="Trazado_144604" data-name="Trazado 144604" d="M738.927,4037.814a2.493,2.493,0,0,0,3.2-1.608c.688-1.639,1.33-3.189.969-4.732a6.133,6.133,0,0,0,2.1-5.137c.325-1.551-1.649-3.111-3.2-3.436h0a2.87,2.87,0,0,0-3.4,2.221,83.392,83.392,0,0,1-1.884,9.294,2.82,2.82,0,0,0,2.221,3.4Z" transform="translate(-723.773 -4007.02)" fill="#ead7b7"/>
            <path id="Trazado_144605" data-name="Trazado 144605" d="M749.239,4070.625l-.02-.017a3.215,3.215,0,0,1-.366-4.529l1.291-1.536,1.41,2.644,2.683,1.512a2.308,2.308,0,0,1,.5.375l-.983,1.17A3.223,3.223,0,0,1,749.239,4070.625Z" transform="translate(-731.307 -4034.416)" fill="#dec29b"/>
            <path id="Trazado_144606" data-name="Trazado 144606" d="M743.116,4008.356c.88,1.709,4.331,1.39,5.56,2.274,3.946,2.841,11.178-2.839,11.178-2.839a8.88,8.88,0,0,0,6.23-7.51h0c.318-4.19-3.117-6.275-7.07-4.247l-14.777,7.7c-1.6.814-1.771,1.942-1.881,3.353Z" transform="translate(-727.541 -3988.897)" fill="#ead7b7"/>
            <path id="Trazado_144607" data-name="Trazado 144607" d="M716.378,4071.728a3.334,3.334,0,0,0,.433,1.508h0c1,1.78.266,2.344-.434,2.437l-9.928.42a.569.569,0,0,0-.544.592l.421,9.954c-.029.806-.534,1.463-2.393.613v0a3.36,3.36,0,1,0,.253,5.977v0c1.78-1,2.344-.266,2.437.434l.42,9.928a.567.567,0,0,0,.537.541c.019,0,.036-.007.055-.008l9.9-.419a.942.942,0,0,0,.459-.17.642.642,0,0,0,.224-.576,3.037,3.037,0,0,0-.452-1.27l-.228-.4h.032a3.6,3.6,0,0,1-.271-1.231,3.644,3.644,0,0,1,7.281-.308,3.591,3.591,0,0,1-.166,1.25h.03l-.19.422a3.238,3.238,0,0,0-.371,1.368c.007.168.026.593.723.622l9.945-.421c.019,0,.036,0,.055,0a.567.567,0,0,0,.489-.584l-.418-9.875a.945.945,0,0,0-.17-.459.642.642,0,0,0-.576-.225,3.036,3.036,0,0,0-1.269.453l-.4.228v-.032a3.593,3.593,0,0,1-1.231.271,3.644,3.644,0,0,1-.308-7.281,3.585,3.585,0,0,1,1.249.167v-.03l.421.19a3.226,3.226,0,0,0,1.368.371c.168-.007.594-.025.622-.722l-.421-9.945v-.021a.568.568,0,0,0-.592-.544l-9.953.421c-.806-.029-1.463-.534-.613-2.393h0a3.359,3.359,0,1,0-6.409-1.255Z" transform="translate(-699.174 -4036.836)" fill="#6437f4"/>
            <path id="Trazado_144608" data-name="Trazado 144608" d="M708.227,4104.447a.221.221,0,0,1-.185-.209l-.421-9.928a1.287,1.287,0,0,0-1.321-1.252,2.827,2.827,0,0,0-1.115.277v-.032l-.512.287a2.976,2.976,0,0,1-1.354.389l-.13,0a3.016,3.016,0,0,1-.125-6.03c.043,0,.085,0,.128,0a2.986,2.986,0,0,1,1.254.276l.486.223v-.024a3.222,3.222,0,0,0,1.091.228,1.245,1.245,0,0,0,1.3-1.342l-.421-9.98a.225.225,0,0,1,.215-.234l9.928-.42a1.365,1.365,0,0,0,1.117-.7,2.068,2.068,0,0,0-.156-1.766h.026l-.267-.477a2.972,2.972,0,0,1-.389-1.354,3.021,3.021,0,0,1,2.886-3.142c.044,0,.087,0,.13,0a3.012,3.012,0,0,1,2.738,4.271l-.223.486h.024a2.079,2.079,0,0,0-.042,1.817,1.308,1.308,0,0,0,1.155.575l9.981-.421a.227.227,0,0,1,.234.215l.422,9.966c-.016.353-.145.359-.294.365h-.038a3,3,0,0,1-1.172-.342l-.932-.421.006.128a3.96,3.96,0,0,0-.73-.068c-.057,0-.114,0-.171,0a3.987,3.987,0,0,0,.167,7.97c.056,0,.114,0,.171,0a3.994,3.994,0,0,0,.892-.14l0,.1.49-.243.4-.228a2.645,2.645,0,0,1,1.115-.409h.036c.161,0,.219.047.255.094a.631.631,0,0,1,.1.292l.415,9.845a.223.223,0,0,1-.166.224h-.03l-9.965.421c-.354-.016-.359-.144-.365-.293a2.843,2.843,0,0,1,.34-1.211l.42-.929-.127.005a3.988,3.988,0,0,0-3.917-4.722c-.056,0-.113,0-.17,0a3.986,3.986,0,0,0-3.675,5.044l-.1,0,.243.489.228.4a2.639,2.639,0,0,1,.409,1.115c.009.211-.062.267-.092.291a.627.627,0,0,1-.292.1l-9.89.417Z" transform="translate(-699.832 -4037.493)" fill="#7e5ee3"/>
            <path id="Trazado_144609" data-name="Trazado 144609" d="M764.429,4038.4l-6.3,5.677-3.89,4.628a2.791,2.791,0,0,1-4.25-3.619l3.266-3.887,5.122-7.954c1.03-1.435,3.368-1.445,5.153.075S765.678,4037.155,764.429,4038.4Z" transform="translate(-732.116 -4013.155)" fill="#ead7b7"/>
            <path id="Trazado_144610" data-name="Trazado 144610" d="M779.613,4012.26c6.37-4.315,5.1-12.408,1.565-15.368s-7.7.356-13.638,3.283c-3.292,1.622,4.564,4.1.287,12.2a14.7,14.7,0,0,0,4.52,5.25A76.905,76.905,0,0,1,779.613,4012.26Z" transform="translate(-743.54 -3989.215)" fill="#ead7b7"/>
            <path id="Trazado_144611" data-name="Trazado 144611" d="M796.925,3987.307c5.052-1.44,6.059-3.051,7.077-4.267l8.751,7.328s-5.7,1.2-9.284,8.357C797.861,3992.583,796.925,3987.307,796.925,3987.307Z" transform="translate(-763.389 -3980.875)" fill="#ead7b7"/>
            <g id="Grupo_73032" data-name="Grupo 73032" transform="translate(36.49)">
              <rect id="Rectángulo_32388" data-name="Rectángulo 32388" width="3.487" height="12.012" transform="matrix(0.711, -0.703, 0.703, 0.711, 0, 4.522)" fill="#fff"/>
              <path id="Trazado_144612" data-name="Trazado 144612" d="M810.188,3976.729,807.906,3979l9.774,9.89,12.229-12.159Z" transform="translate(-807.093 -3976.729)" fill="silver"/>
            </g>
          </g>
          <path id="Trazado_144613" data-name="Trazado 144613" d="M749.586,4109.009l-1.884,2.605-2.112-2.47-.01.019-.039-.957a4.691,4.691,0,0,1-1.189-2.238c-.314,0-.674-.491-.827-1.158a2.6,2.6,0,0,1-.069-.641,3.813,3.813,0,0,0,.485.908l.5.628-.075-.8a1.72,1.72,0,0,1,.59-1.436c.3-.271.286-.817.263-1.353a5.7,5.7,0,0,1,2.282-.619,4.2,4.2,0,0,1,2.072.432c.1.836.207,1.1.5,1.234a3.571,3.571,0,0,1,.4,1.445l.025.62.4-.478a4.488,4.488,0,0,0,.423-.611,2.757,2.757,0,0,1-.029.352c-.1.678-.418,1.2-.732,1.221a4.692,4.692,0,0,1-1,2.327Zm-5.457-4.035a1.966,1.966,0,0,1,.669-1.636c.244-.217.2-.79.176-1.318a5.006,5.006,0,0,1,4.82-.195c.108.961.206,1.1.393,1.18a3.062,3.062,0,0,1,.519,1.642c1.534-1.856.972-4.37.758-5.12a.968.968,0,0,0-.277-1.161s-.037-.16.373-.253a2.951,2.951,0,0,0-1.864-.614.539.539,0,0,1,.306-.38,7.041,7.041,0,0,0-2.192.293s.057-.215.114-.516c-1.072.779-5.776,1.2-4.618,3.3C742.886,4103.407,744.129,4104.974,744.129,4104.974Zm10.4,8.847-.033-.8a2.526,2.526,0,0,0-1.592-2.129l-2.659-.9-1.014,2.6-1.53-.976-1.447,1.1-1.227-2.522-2.6,1.125a2.527,2.527,0,0,0-1.414,2.251l.033.8Z" transform="translate(-726.656 -4055.669)" fill="#fff"/>
        </g>
      </g>
    </g>
  </g>
</svg>
