<svg xmlns="http://www.w3.org/2000/svg" xmlns:xlink="http://www.w3.org/1999/xlink" width="208" height="208" viewBox="0 0 208 208">
  <defs>
    <filter id="Elipse_4066" x="0" y="0" width="208" height="208" filterUnits="userSpaceOnUse">
      <feOffset dy="3" input="SourceAlpha"/>
      <feGaussianBlur stdDeviation="3" result="blur"/>
      <feFlood flood-opacity="0.161"/>
      <feComposite operator="in" in2="blur"/>
      <feComposite in="SourceGraphic"/>
    </filter>
    <clipPath id="clip-path">
      <circle id="Elipse_4501" data-name="Elipse 4501" cx="73.5" cy="73.5" r="73.5" transform="translate(0 0)" fill="none"/>
    </clipPath>
  </defs>
  <g id="Grupo_73303" data-name="Grupo 73303" transform="translate(-1006 -1008)">
    <g transform="matrix(1, 0, 0, 1, 1006, 1008)" filter="url(#Elipse_4066)">
      <circle id="Elipse_4066-2" data-name="Elipse 4066" cx="95" cy="95" r="95" transform="translate(9 6)" fill="#fff"/>
    </g>
    <circle id="Elipse_4067" data-name="Elipse 4067" cx="73.5" cy="73.5" r="73.5" transform="translate(1035 1036)" fill="#81d4fa"/>
    <g id="Grupo_73007" data-name="Grupo 73007" transform="translate(942.646 942.646)">
      <g id="Grupo_73006" data-name="Grupo 73006" transform="translate(92.355 92.355)" clip-path="url(#clip-path)">
        <g id="Grupo_73005" data-name="Grupo 73005" transform="translate(-7.098 -7.008)">
          <g id="Grupo_72983" data-name="Grupo 72983" transform="translate(64.879 111.543)">
            <g id="Grupo_72982" data-name="Grupo 72982">
              <g id="Grupo_72981" data-name="Grupo 72981">
                <path id="Trazado_144539" data-name="Trazado 144539" d="M855.642,1499.04c.782,1.318,4.222,8.275,8.423,9.245l-.044,11.137h12.246l-.117-11.493.007-.005a14.713,14.713,0,0,0,2.564-3.956c1.136-2.356.287-7.861.631-10.457a84.228,84.228,0,0,1,2.557-10.9c.4-1.251.334-2.239-.21-2.594-.483-.316-1.648-.02-2.124,1.452-1.2,3.695-3.3,8.242-3.3,8.242s-.284-.076-.38-.112c-.053-.02.462-10.936.83-14.743.213-1.8-.38-2.6-1.1-2.7a2.051,2.051,0,0,0-1.82,1.386c-.21.481-2.6,15.1-2.67,15.1l-.351-.016c-.159-.007-1.2-12.126-1.387-16.3-.044-1.815-.725-2.321-2.051-2.319-.869,0-1.481.9-1.672,2.16-.049.313-.039,16.887-.127,16.908s-.256.043-.332.062c-.615-3.45-1.926-7.385-3.3-13.661-.388-1.772-1.454-2.134-2.126-1.937-.7.2-1.26,1.135-1.178,2.518.012.2,1.545,12.1,2.278,16.1.169.92.732,3.928-.374,4.726-.638-.057-1.5-1.689-1.957-2.626-.757-1.556-2.041-3.606-3.517-3.51-.927.062-1.279.648-1.19,1.163C854.082,1493.265,854.927,1497.837,855.642,1499.04Z" transform="translate(-853.835 -1470.001)" fill="#ed9457"/>
              </g>
            </g>
          </g>
          <g id="Grupo_72986" data-name="Grupo 72986" transform="translate(96.092 100.585)">
            <g id="Grupo_72985" data-name="Grupo 72985">
              <g id="Grupo_72984" data-name="Grupo 72984">
                <path id="Trazado_144540" data-name="Trazado 144540" d="M1266.271,1340.589c.148.132,9.651,7.466,13,9.777.77.531,3.295,2.259,3.077,3.607-.491.41-2.256-.134-3.241-.474-1.635-.564-3.993-1.107-4.968.005-.612.7-.446,1.363-.019,1.665,1.125.794,4.955,3.429,6.312,3.774,1.485.379,8.837,2.866,12.494.582l26.234,26.442h10.893v-6.986l-28.833-28.254a.042.042,0,0,0,0-.008,14.712,14.712,0,0,0-.984-4.611c-.863-2.47-5.356-5.762-6.948-7.84a84.213,84.213,0,0,1-5.9-9.515c-.6-1.17-1.346-1.819-1.982-1.686-.565.119-1.179,1.151-.476,2.529,1.763,3.461,3.493,8.163,3.493,8.163s-.254.147-.348.19c-.052.024-7.406-8.059-9.838-11.011-1.124-1.425-2.1-1.567-2.691-1.133a2.049,2.049,0,0,0-.306,2.266c.191.488,8.842,12.514,8.787,12.563-.087.077-.174.157-.26.236-.118.108-9.419-7.729-12.506-10.544-1.314-1.251-2.153-1.128-3.09-.189-.613.615-.409,1.685.344,2.71.187.255,11.915,11.968,11.866,12.045s-.15.211-.191.278c-2.874-2.005-6.584-3.86-11.991-7.328-1.528-.979-2.537-.482-2.873.133C1264.973,1338.615,1265.235,1339.669,1266.271,1340.589Z" transform="translate(-1265.177 -1325.588)" fill="#89413f"/>
              </g>
            </g>
          </g>
          <g id="Grupo_72989" data-name="Grupo 72989" transform="translate(109.187 71.142)">
            <g id="Grupo_72988" data-name="Grupo 72988">
              <g id="Grupo_72987" data-name="Grupo 72987">
                <path id="Trazado_144541" data-name="Trazado 144541" d="M1489.53,943.439l-13.849.141-.005-.007a14.724,14.724,0,0,0-3.956-2.563c-2.356-1.137-7.861-.287-10.457-.631a84.48,84.48,0,0,1-10.9-2.556c-1.25-.405-2.239-.336-2.594.208-.316.484-.019,1.648,1.452,2.125,3.694,1.2,8.242,3.3,8.242,3.3s-.077.283-.112.38c-.019.054-10.936-.461-14.742-.83-1.8-.213-2.6.38-2.7,1.1a2.049,2.049,0,0,0,1.386,1.82c.481.211,15.1,2.6,15.1,2.669-.006.117-.011.234-.016.352-.006.16-12.126,1.195-16.3,1.386-1.814.045-2.321.726-2.32,2.052,0,.869.9,1.481,2.16,1.673.313.048,16.888.039,16.908.127s.043.255.062.332c-3.45.614-7.385,1.925-13.661,3.3-1.773.388-2.135,1.454-1.938,2.126.2.7,1.135,1.259,2.518,1.178.2-.012,12.1-1.545,16.1-2.278.92-.169,3.928-.732,4.727.374-.057.638-1.69,1.5-2.627,1.957-1.555.757-3.606,2.041-3.51,3.517.061.926.648,1.279,1.164,1.191,1.357-.235,5.928-1.08,7.132-1.795,1.318-.782,8.275-4.222,9.246-8.423l13.493.053Z" transform="translate(-1437.752 -937.563)" fill="#edae81"/>
              </g>
            </g>
          </g>
          <g id="Grupo_72992" data-name="Grupo 72992" transform="translate(98.228 0)">
            <g id="Grupo_72991" data-name="Grupo 72991">
              <g id="Grupo_72990" data-name="Grupo 72990">
                <path id="Trazado_144542" data-name="Trazado 144542" d="M1356.073,11.948V0h-6.022l-31.573,32.221-.009,0a14.744,14.744,0,0,0-4.61.986c-2.47.862-5.761,5.355-7.84,6.948a84.285,84.285,0,0,1-9.515,5.9c-1.171.6-1.82,1.346-1.687,1.983.119.565,1.152,1.179,2.529.475,3.462-1.762,8.163-3.493,8.163-3.493s.146.254.189.348c.025.052-8.059,7.407-11.011,9.838-1.424,1.123-1.567,2.1-1.133,2.69a2.051,2.051,0,0,0,2.266.308c.489-.191,12.515-8.842,12.563-8.788.078.087.157.172.237.26.109.117-7.73,9.419-10.544,12.5-1.252,1.315-1.127,2.154-.19,3.091.616.613,1.686.408,2.71-.344.256-.187,11.97-11.915,12.046-11.867s.212.151.279.191c-2.005,2.874-3.861,6.584-7.328,11.991-.979,1.528-.482,2.538.133,2.874.639.35,1.692.088,2.614-.948.132-.149,7.465-9.651,9.776-13,.531-.77,2.26-3.3,3.607-3.078.41.491-.134,2.257-.474,3.242-.565,1.635-1.107,3.993.005,4.968.7.612,1.362.446,1.665.019.793-1.125,3.429-4.955,3.774-6.312.379-1.484,2.866-8.836.582-12.493Z" transform="translate(-1293.337 -0.005)" fill="#be6949"/>
              </g>
            </g>
          </g>
          <g id="Grupo_72995" data-name="Grupo 72995" transform="translate(68.785 0)">
            <g id="Grupo_72994" data-name="Grupo 72994">
              <g id="Grupo_72993" data-name="Grupo 72993">
                <path id="Trazado_144543" data-name="Trazado 144543" d="M931.835,26.131c-.781-1.317-4.221-8.275-8.422-9.245L923.479,0H911.153l.175,17.237-.008.005a14.75,14.75,0,0,0-2.563,3.958c-1.138,2.356-.287,7.86-.631,10.457a84.441,84.441,0,0,1-2.557,10.9c-.4,1.25-.335,2.238.209,2.594.485.315,1.649.019,2.124-1.452,1.2-3.694,3.3-8.242,3.3-8.242s.283.076.38.112c.054.019-.461,10.935-.829,14.742-.213,1.8.38,2.6,1.1,2.7a2.051,2.051,0,0,0,1.82-1.385c.21-.481,2.6-15.1,2.67-15.1l.351.016c.16.006,1.2,12.126,1.386,16.3.044,1.815.726,2.32,2.052,2.32.869,0,1.481-.9,1.673-2.159.049-.313.039-16.889.127-16.909s.256-.043.332-.062c.614,3.45,1.926,7.385,3.3,13.66.388,1.773,1.454,2.136,2.126,1.938.7-.2,1.259-1.134,1.178-2.518-.012-.2-1.545-12.1-2.278-16.1-.169-.92-.732-3.928.374-4.727.638.058,1.5,1.69,1.957,2.627.757,1.555,2.041,3.606,3.517,3.509.926-.061,1.279-.648,1.19-1.163C933.4,31.906,932.551,27.335,931.835,26.131Z" transform="translate(-905.311 -0.005)" fill="#89413f"/>
              </g>
            </g>
          </g>
          <g id="Grupo_72998" data-name="Grupo 72998" transform="translate(0 0)">
            <g id="Grupo_72997" data-name="Grupo 72997">
              <g id="Grupo_72996" data-name="Grupo 72996">
                <path id="Trazado_144544" data-name="Trazado 144544" d="M63.622,51.127c-.149-.133-9.65-7.466-13-9.777-.77-.532-3.3-2.26-3.078-3.608.492-.41,2.256.134,3.241.474,1.635.564,3.993,1.107,4.969-.006.612-.7.446-1.362.019-1.664-1.125-.793-4.955-3.428-6.312-3.774-1.483-.379-8.836-2.867-12.492-.582L5.037,0H-1.188v11.72L28.677,40.988s0,.007,0,.009a14.761,14.761,0,0,0,.986,4.61c.861,2.471,5.355,5.761,6.948,7.84a84.427,84.427,0,0,1,5.9,9.515c.6,1.17,1.346,1.819,1.982,1.687.566-.119,1.179-1.153.475-2.529-1.762-3.463-3.492-8.163-3.492-8.163s.254-.146.349-.189c.051-.024,7.406,8.059,9.837,11.011,1.124,1.424,2.1,1.567,2.69,1.133a2.048,2.048,0,0,0,.307-2.265c-.191-.489-8.841-12.515-8.787-12.563.087-.078.173-.157.259-.237.117-.109,9.42,7.729,12.506,10.543,1.315,1.252,2.154,1.127,3.09.19.613-.616.409-1.686-.344-2.71-.187-.255-11.915-11.969-11.867-12.045s.151-.213.191-.28c2.874,2.006,6.584,3.861,11.992,7.329,1.528.979,2.538.482,2.874-.133C64.92,53.1,64.659,52.049,63.622,51.127Z" transform="translate(1.188 -0.005)" fill="#edae81"/>
              </g>
            </g>
          </g>
          <g id="Grupo_73001" data-name="Grupo 73001" transform="translate(0 67.236)">
            <g id="Grupo_73000" data-name="Grupo 73000">
              <g id="Grupo_72999" data-name="Grupo 72999">
                <path id="Trazado_144545" data-name="Trazado 144545" d="M49.3,901.642c1.815-.044,2.32-.726,2.32-2.051,0-.87-.9-1.482-2.16-1.673-.313-.048-16.889-.038-16.909-.126s-.043-.257-.062-.332c3.45-.615,7.386-1.925,13.661-3.3,1.773-.388,2.136-1.453,1.938-2.126-.205-.7-1.134-1.258-2.518-1.177-.2.011-12.1,1.544-16.1,2.277-.92.169-3.928.732-4.727-.374.057-.638,1.689-1.5,2.627-1.956,1.555-.757,3.606-2.042,3.509-3.518-.06-.926-.648-1.279-1.163-1.19-1.356.234-5.928,1.079-7.132,1.795-1.316.781-8.275,4.221-9.245,8.422l-14.525-.057V908.55l14.881-.151a.03.03,0,0,1,0,.008,14.762,14.762,0,0,0,3.958,2.562c2.355,1.138,7.86.286,10.456.631a84.353,84.353,0,0,1,10.9,2.556c1.25.4,2.238.335,2.594-.209.316-.485.019-1.649-1.452-2.124-3.694-1.2-8.243-3.3-8.243-3.3s.077-.284.113-.38c.019-.054,10.936.461,14.742.829,1.8.213,2.6-.38,2.7-1.1a2.05,2.05,0,0,0-1.385-1.82c-.482-.21-15.1-2.6-15.1-2.67.006-.116.011-.233.016-.351C33.01,902.869,45.13,901.833,49.3,901.642Z" transform="translate(1.188 -886.083)" fill="#be6949"/>
              </g>
            </g>
          </g>
          <g id="Grupo_73004" data-name="Grupo 73004" transform="translate(0 98.448)">
            <g id="Grupo_73003" data-name="Grupo 73003">
              <g id="Grupo_73002" data-name="Grupo 73002">
                <path id="Trazado_144546" data-name="Trazado 144546" d="M-1.188,1359.938H11.5l25.944-26.478a.033.033,0,0,1,.009,0,14.777,14.777,0,0,0,4.612-.986c2.47-.861,5.76-5.355,7.84-6.948a84.412,84.412,0,0,1,9.515-5.9c1.17-.6,1.819-1.346,1.686-1.982-.119-.565-1.152-1.178-2.529-.475-3.463,1.761-8.164,3.493-8.164,3.493s-.146-.254-.189-.349c-.025-.051,8.058-7.407,11.011-9.837,1.424-1.123,1.566-2.1,1.133-2.691a2.047,2.047,0,0,0-2.266-.307c-.489.192-12.515,8.841-12.562,8.787-.078-.087-.157-.173-.237-.26-.109-.117,7.729-9.42,10.543-12.505,1.253-1.315,1.128-2.154.191-3.091-.617-.613-1.686-.409-2.711.344-.255.187-11.969,11.915-12.045,11.867s-.212-.151-.28-.191c2.006-2.875,3.861-6.584,7.328-11.992.979-1.528.483-2.538-.133-2.874-.639-.349-1.692-.088-2.612.949-.133.148-7.467,9.65-9.777,13-.532.771-2.26,3.3-3.608,3.078-.41-.491.133-2.255.475-3.24.563-1.635,1.106-3.994-.006-4.969-.7-.612-1.363-.446-1.665-.019-.793,1.125-3.429,4.955-3.774,6.313-.378,1.483-2.866,8.835-.582,12.492l-29.83,29.595Z" transform="translate(1.188 -1297.421)" fill="#e3af91"/>
              </g>
            </g>
          </g>
        </g>
      </g>
    </g>
  </g>
</svg>
