<svg xmlns="http://www.w3.org/2000/svg" xmlns:xlink="http://www.w3.org/1999/xlink" width="179" height="179" viewBox="0 0 179 179">
  <defs>
    <filter id="Elipse_4062" x="0" y="0" width="179" height="179" filterUnits="userSpaceOnUse">
      <feOffset dy="3" input="SourceAlpha"/>
      <feGaussianBlur stdDeviation="3" result="blur"/>
      <feFlood flood-opacity="0.161"/>
      <feComposite operator="in" in2="blur"/>
      <feComposite in="SourceGraphic"/>
    </filter>
  </defs>
  <g id="Grupo_73307" data-name="Grupo 73307" transform="translate(-276 -856.273)">
    <g transform="matrix(1, 0, 0, 1, 276, 856.27)" filter="url(#Elipse_4062)">
      <circle id="Elipse_4062-2" data-name="Elipse 4062" cx="80.5" cy="80.5" r="80.5" transform="translate(9 6)" fill="#fff"/>
    </g>
    <circle id="Elipse_4063" data-name="Elipse 4063" cx="62" cy="62" r="62" transform="translate(302 881.273)" fill="#7e5ee3"/>
    <g id="Grupo_73263" data-name="Grupo 73263" transform="translate(220.273 843.014)">
      <path id="Trazado_145397" data-name="Trazado 145397" d="M205.268,237.49l-1.606,8.069-5.38,1.85,3.184,50.228,20.471-.116.956-51.061-3.436-1.081-1.751-8.231-12.438.342Z" transform="translate(-67.931 -138.333)" fill="#f0ba7d"/>
      <path id="Trazado_145398" data-name="Trazado 145398" d="M191.9,342.31c8.957,4.342,18.17,5.254,27.869.246l-.331,37.488a59.5,59.5,0,0,1-27.867-.452Z" transform="translate(-62.767 -219.22)" fill="#21d0c3"/>
      <path id="Trazado_145399" data-name="Trazado 145399" d="M263.866,275.471l15.6,4.255c4.046,1.249,7.661,3.641,7.777,7.941l.856,31.774a58.988,58.988,0,0,1-11.467,6.252l-1-17.572-2.732,18.952a58.976,58.976,0,0,1-18.619,3c-.17,0-.338-.005-.508-.006l-.006-16.109Z" transform="translate(-110.612 -167.81)" fill="#eef3f7"/>
      <g id="Grupo_73259" data-name="Grupo 73259" transform="translate(109.964 107.5)">
        <path id="Trazado_145400" data-name="Trazado 145400" d="M263.718,274.993l2.056.829,7.013,10.529-8.221-.132,5.1,2.727-15.889,24.641,9.945-38.594Z" transform="translate(-220.577 -274.942)" fill="#fff"/>
        <path id="Trazado_145401" data-name="Trazado 145401" d="M135,274.774l-15.675,3.979c-4.068,1.178-7.724,3.506-7.916,7.8l-1.445,32.421a59.005,59.005,0,0,0,11.355,6.178l1.334-17.943,2.441,19.339a58.969,58.969,0,0,0,18.071,2.977l-.006-16.109L135,274.774Z" transform="translate(-109.964 -274.774)" fill="#fff"/>
      </g>
      <path id="Trazado_145402" data-name="Trazado 145402" d="M188.194,274.306l-2.451.939L178.926,285.5l8.222.013-5.143,2.636,14.2,24.906-8.009-38.752Z" transform="translate(-53.043 -166.914)" fill="#eef3f7"/>
      <path id="Trazado_145403" data-name="Trazado 145403" d="M182.384,107.5c-.262,2.644.268,8.516,3.475,8.293,0,0,4.617,13.457,13.506,14.98,7.674-1.4,12.343-13.59,12.7-14.749,1.057.361,4.016-4.56,1.748-8.587-.651-1.155-2.492-.22-2.492-.22l-.142-3.362C199.049,105.028,191.487,93.3,191.487,93.3c-4.623,5.029-5.735,7.9-6.23,14.153a4.118,4.118,0,0,0-1.832-.56,1.8,1.8,0,0,0-1.042.6Z" transform="translate(-55.658 -27.69)" fill="#fed298"/>
      <path id="Trazado_145404" data-name="Trazado 145404" d="M178.572,107.225l1.571-7.889c-4.55-4.48-6.923-11.238-6.923-11.238-3.1.346-4.346-8.2-2.26-8.5a3.031,3.031,0,0,1,1.593.162c.47-6.6,1.742-8.612,6.118-14.153,0,0,7.645,12.862,19.762,11.684l.173,2.773a1.437,1.437,0,0,1,2.493.343c1.42,2.335-.437,7.641-2.157,7.965-.244.818-2.157,6.855-6.21,10.991l1.634,7.681c4.547,1.472,8.931,2.61,13.332,3.78-2.236-13.628-3.517-28.375-6.186-40.963-2.562-12.08-16.566-15.458-24.619-10.093,0,0-6.944,2.8-8.212,12.077S167.9,82.02,167.9,82.02l-2.237,28.573c4.149-1.053,8.953-2.006,12.909-3.367Z" transform="translate(-42.842)" fill="#666"/>
      <path id="Trazado_145405" data-name="Trazado 145405" d="M336.808,390.878a4.238,4.238,0,1,1,4.9-3.454A4.238,4.238,0,0,1,336.808,390.878Z" transform="translate(-171.775 -250.105)" fill="#fefefe"/>
      <path id="Trazado_145406" data-name="Trazado 145406" d="M337.672,391.458a3.991,3.991,0,1,1,4.612-3.253A3.99,3.99,0,0,1,337.672,391.458Z" transform="translate(-172.598 -250.928)" fill="#0f7986"/>
      <path id="Trazado_145407" data-name="Trazado 145407" d="M343.916,395.644a2.208,2.208,0,1,1,2.551-1.8,2.209,2.209,0,0,1-2.551,1.8Z" transform="translate(-178.538 -256.871)" fill="#ebecec"/>
      <path id="Trazado_145408" data-name="Trazado 145408" d="M351.147,382.357l.97.167.522-3.022-.97-.167-.522,3.022Z" transform="translate(-185.51 -247.699)" fill="#fefefe"/>
      <path id="Trazado_145409" data-name="Trazado 145409" d="M148.26,351.921l1.818-.361a2.871,2.871,0,0,0,2.251-3.366l-2.138-10.773c-.807-4.065-3.987-6.138-7.621-6.6a13.707,13.707,0,0,0-8.273,1.641c-3.175,1.808-5.315,4.935-4.506,9.006l2.138,10.773a2.858,2.858,0,0,0,1.219,1.82h0a2.852,2.852,0,0,0,2.147.431l1.817-.361-.149-.749-1.818.361a2.1,2.1,0,0,1-1.575-.316h0a2.1,2.1,0,0,1-.894-1.334l-2.138-10.773c-.733-3.694,1.227-6.542,4.132-8.2a12.932,12.932,0,0,1,7.8-1.548c3.326.42,6.235,2.3,6.966,5.992l2.139,10.773a2.105,2.105,0,0,1-1.652,2.468l-1.818.361.149.749Z" transform="translate(-15.118 -210.31)" fill="#21d0c3"/>
      <path id="Trazado_145410" data-name="Trazado 145410" d="M149.916,338.173l-.327-1.646c-.831-4.191-4.1-6.327-7.84-6.8a13.96,13.96,0,0,0-8.428,1.671c-3.265,1.86-5.465,5.079-4.632,9.277l.327,1.646,1.248-.248-.327-1.645c-.708-3.568,1.193-6.323,4.008-7.926a12.69,12.69,0,0,1,7.649-1.516c3.223.407,6.04,2.228,6.748,5.79l.326,1.646,1.248-.247Z" transform="translate(-14.267 -209.466)" fill="#4d4d4d"/>
      <g id="Grupo_73260" data-name="Grupo 73260" transform="translate(120.343 140.396)">
        <path id="Trazado_145411" data-name="Trazado 145411" d="M155.137,427.516l.973-.193a1.068,1.068,0,1,0-.21-1.059l-.972.193Z" transform="translate(-154.927 -423.638)" fill="#076673"/>
        <path id="Trazado_145412" data-name="Trazado 145412" d="M203.561,418.509l-.972.193a1.068,1.068,0,1,1-.21-1.06l.972-.193.21,1.06Z" transform="translate(-189.989 -417.284)" fill="#076673"/>
      </g>
      <path id="Trazado_145413" data-name="Trazado 145413" d="M163.443,324.151l-.371-1.869-.738.147-.736.146.375,1.887q.421-.123.852-.208Q163.132,324.192,163.443,324.151Z" transform="translate(-39.715 -203.815)" fill="#666"/>
      <g id="Grupo_73261" data-name="Grupo 73261" transform="translate(121.75 140.682)">
        <path id="Trazado_145414" data-name="Trazado 145414" d="M161.41,427.443a.323.323,0,1,0-.38-.254.323.323,0,0,0,.38.254Z" transform="translate(-161.024 -424.891)" fill="#0f7986"/>
        <path id="Trazado_145415" data-name="Trazado 145415" d="M203.063,419.162a.323.323,0,1,0-.38-.253A.322.322,0,0,0,203.063,419.162Z" transform="translate(-193.062 -418.522)" fill="#0f7986"/>
      </g>
      <path id="Trazado_145416" data-name="Trazado 145416" d="M343.736,396.348a2.088,2.088,0,1,1,2.413-1.7A2.089,2.089,0,0,1,343.736,396.348Z" transform="translate(-178.476 -257.595)" fill="#fefefe"/>
      <g id="Grupo_73262" data-name="Grupo 73262" transform="translate(121.834 107.291)">
        <path id="Trazado_145417" data-name="Trazado 145417" d="M172.277,274.951c-.033,0-11.51.1-9.571,10.136l-1.067.2c-2.186-11.32,10.589-11.424,10.626-11.424l.012,1.084Z" transform="translate(-161.387 -273.867)" fill="#4d4d4d"/>
        <path id="Trazado_145418" data-name="Trazado 145418" d="M307.69,274.091a10.861,10.861,0,0,1,8.278,3.95c2.726,3.316,4.638,9.407,3.208,20.574l-1.076-.136c1.383-10.808-.4-16.627-2.97-19.749a9.8,9.8,0,0,0-7.466-3.555l.026-1.084Z" transform="translate(-273.898 -274.039)" fill="#4d4d4d"/>
      </g>
    </g>
  </g>
</svg>
