<svg xmlns="http://www.w3.org/2000/svg" xmlns:xlink="http://www.w3.org/1999/xlink" width="208" height="208" viewBox="0 0 208 208">
  <defs>
    <filter id="Elipse_4062" x="0" y="0" width="208" height="208" filterUnits="userSpaceOnUse">
      <feOffset dy="3" input="SourceAlpha"/>
      <feGaussianBlur stdDeviation="3" result="blur"/>
      <feFlood flood-opacity="0.161"/>
      <feComposite operator="in" in2="blur"/>
      <feComposite in="SourceGraphic"/>
    </filter>
  </defs>
  <g id="Grupo_73301" data-name="Grupo 73301" transform="translate(-386 -1008)">
    <g transform="matrix(1, 0, 0, 1, 386, 1008)" filter="url(#Elipse_4062)">
      <circle id="Elipse_4062-2" data-name="Elipse 4062" cx="95" cy="95" r="95" transform="translate(9 6)" fill="#fff"/>
    </g>
    <circle id="Elipse_4063" data-name="Elipse 4063" cx="73.5" cy="73.5" r="73.5" transform="translate(415 1036)" fill="#81d4fa"/>
    <g id="Grupo_72976" data-name="Grupo 72976" transform="translate(-317.476 -2172.487)">
      <g id="Grupo_72972" data-name="Grupo 72972" transform="translate(785.59 3286.543)">
        <path id="Trazado_144511" data-name="Trazado 144511" d="M896.7,3468.672l.112-.026c.071-.019.175-.038.3-.076l.414-.122c.152-.042.313-.092.471-.15l.467-.163c.149-.054.284-.114.4-.16l.39-.159.382-.178c.114-.055.249-.114.39-.186l.437-.231c.15-.077.3-.161.431-.244l.371-.222c.11-.063.194-.126.256-.166l.1-.064s.555.443,1.145.86,1.2.8,1.2.8l.243-.181c.145-.11.33-.268.518-.421s.369-.315.5-.438l.224-.2s-.267-.669-.578-1.321-.64-1.273-.64-1.273.031-.029.08-.084l.2-.227c.084-.094.185-.2.288-.322l.313-.384c.216-.259.405-.538.559-.739l.235-.35.065-.1c.039-.062.1-.147.166-.256.126-.219.313-.5.466-.8l.234-.437.186-.39.131-.276.045-.107s.7.07,1.424.1c.361.017.721.024.989.025h.45l.1-.285c.065-.17.138-.4.209-.633s.145-.462.188-.64l.076-.293-.37-.257c-.222-.152-.52-.35-.827-.542-.61-.384-1.229-.727-1.229-.727s.037-.165.074-.415c.02-.125.043-.27.068-.427s.037-.324.057-.492c.044-.334.052-.672.071-.924.01-.126.008-.231.01-.3v-.116s0-.168.005-.421-.013-.59-.04-.926-.055-.672-.1-.922l-.057-.417s.628-.321,1.248-.685c.31-.181.619-.37.849-.515l.378-.245-.07-.3c-.046-.176-.092-.415-.165-.646l-.188-.64c-.054-.174-.1-.287-.1-.287s-.727-.031-1.44-.022c-.355,0-.714.016-.983.031l-.446.026-.159-.39c-.1-.231-.245-.536-.392-.84-.3-.6-.659-1.176-.659-1.176s-.084-.146-.227-.354l-.24-.359c-.088-.131-.193-.264-.292-.4-.2-.275-.416-.53-.576-.726-.079-.1-.148-.178-.2-.232l-.078-.086s.358-.612.685-1.255.618-1.3.618-1.3-.339-.347-.706-.667l-.265-.238-.24-.2-.235-.192s-.623.359-1.224.76-1.17.817-1.17.817l-.094-.068-.254-.169-.359-.239-.425-.255c-.286-.178-.591-.324-.811-.448l-.379-.183s-.151-.075-.382-.179l-.4-.167c-.145-.063-.3-.125-.461-.181l-.465-.169-.412-.128-.292-.091-.112-.029s-.03-.707-.1-1.423c-.034-.359-.077-.718-.115-.983l-.065-.445-.3-.062c-.177-.04-.416-.081-.656-.118-.478-.085-.961-.129-.961-.129l-.2.4c-.119.242-.273.564-.418.9-.294.659-.545,1.321-.545,1.321s-.168-.015-.421-.014-.59-.01-.927.008-.673.042-.925.063c-.126.009-.231.021-.3.033l-.115.016-.418.057c-.249.039-.581.1-.911.169s-.658.149-.9.227l-.4.118-.261-.363c-.158-.213-.373-.5-.6-.777-.444-.562-.927-1.108-.927-1.108s-.113.044-.281.112l-.616.251-.6.281c-.164.077-.273.13-.273.13s.072.726.183,1.433c.054.354.116.7.165.965l.089.438-.361.216c-.221.124-.495.321-.777.5s-.545.4-.743.553l-.326.268-.09.073c-.058.046-.138.114-.23.2-.186.171-.441.392-.674.636s-.467.486-.636.674-.275.319-.275.319-.656-.265-1.34-.5c-.342-.118-.682-.224-.941-.3l-.433-.126s-.3.385-.558.793c-.136.2-.269.4-.359.562l-.156.26.283.35c.169.208.4.483.644.752.477.54.975,1.042.975,1.042l-.055.1-.132.276-.186.39-.192.457c-.068.154-.129.311-.181.461l-.148.406c-.081.24-.128.4-.128.4l-.123.4c-.059.246-.159.568-.222.9l-.1.485-.069.426-.048.3-.014.115s-.694.13-1.394.3-1.389.381-1.389.381l-.019.3c-.006.091-.012.2-.018.31s0,.235-.005.357c-.015.486.01.971.01.971s.682.236,1.373.429,1.387.35,1.387.35l.01.115c0,.074.016.178.035.3.036.25.073.586.142.916.033.165.058.332.095.486l.1.42c.055.247.106.408.106.408s.18.65.415,1.282c.123.314.249.626.35.858l.178.382-.322.309c-.193.188-.446.442-.69.7-.491.517-.962,1.071-.962,1.071s.055.108.145.266l.342.573c.12.211.264.407.362.56l.169.252.437-.111c.263-.07.612-.167.955-.272.688-.208,1.351-.45,1.351-.45l.268.325c.156.2.384.447.612.7s.474.479.652.659l.313.282.086.078c.055.048.131.122.23.2.2.157.451.381.726.575.136.1.27.2.4.293l.359.239c.208.144.354.228.354.228s-.169.688-.3,1.4c-.068.355-.126.709-.165.975l-.063.446.267.143c.159.09.378.193.6.3s.437.209.606.276l.279.117.307-.33c.182-.2.421-.467.654-.743.467-.549.894-1.113.894-1.113l.109.04.291.092.412.129.479.125c.325.092.658.146.9.2.123.028.228.039.3.052l.114.018.416.066c.252.023.585.074.922.092l.494.03c.158.007.305.005.432.008l.305,0c.074,0,.116,0,.116,0s.228.668.5,1.334.576,1.322.576,1.322l.3-.026c.182-.015.424-.035.664-.072s.482-.063.661-.094l.3-.055s.135-.713.228-1.419S896.7,3468.672,896.7,3468.672Zm-5.939-2.484-.351-.074-.216-.044-.237-.062a12.792,12.792,0,0,1-4.48-2.134c-.279-.2-.487-.389-.644-.51s-.233-.207-.233-.207l-.231-.208c-.074-.066-.156-.155-.255-.251s-.213-.2-.323-.332a12.366,12.366,0,0,1-1.51-1.978,13.448,13.448,0,0,1-1.1-2.241c-.108-.323-.213-.588-.261-.781l-.088-.3s-.036-.108-.079-.3-.117-.468-.173-.8a12.643,12.643,0,0,1,.083-4.953c.031-.167.071-.318.107-.452l.089-.347.094-.3.093-.3.123-.337c.045-.131.1-.277.169-.433a12.72,12.72,0,0,1,2.747-4.128,10.909,10.909,0,0,1,.834-.766l.24-.2c.074-.066.173-.134.284-.217s.233-.179.375-.274a12.756,12.756,0,0,1,4.55-1.988c.165-.04.32-.062.455-.089s.253-.051.352-.061l.309-.042a10.988,10.988,0,0,1,1.128-.092,12.722,12.722,0,0,1,4.9.79c.161.055.306.114.433.17l.331.138.282.135.282.134.315.17c.123.064.261.137.4.229a12.635,12.635,0,0,1,3.691,3.3c.208.269.361.508.471.673s.168.262.168.262l.16.268c.108.167.232.423.4.722a13.417,13.417,0,0,1,.9,2.331,12.385,12.385,0,0,1,.425,2.451c.019.169.017.325.024.463s.013.258.011.357c0,.2,0,.312,0,.312s0,.113-.006.311-.018.482-.064.819a12.781,12.781,0,0,1-1.478,4.738l-.115.216-.114.189-.184.307-.172.26-.173.26-.213.288c-.082.111-.172.239-.283.367a12.431,12.431,0,0,1-1.741,1.777,12.862,12.862,0,0,1-2.057,1.4l-.411.218-.325.152-.283.133-.29.117-.333.135-.439.153a12.913,12.913,0,0,1-2.427.556,12.424,12.424,0,0,1-2.487.069c-.17-.006-.325-.026-.462-.042l-.356-.04-.308-.05Z" transform="translate(-874.966 -3435.676)" fill="#12263f"/>
        <path id="Trazado_144512" data-name="Trazado 144512" d="M916.25,3487.39a.575.575,0,0,1-.077-1.144l5.446-.74,5.423-4.323a.575.575,0,1,1,.717.9l-5.671,4.521-5.76.782A.564.564,0,0,1,916.25,3487.39Z" transform="translate(-903.837 -3467.859)" fill="#12263f"/>
        <path id="Trazado_144513" data-name="Trazado 144513" d="M935.292,3495.579a1.177,1.177,0,1,1-.964-1.357A1.176,1.176,0,0,1,935.292,3495.579Z" transform="translate(-916.09 -3477.184)" fill="#12263f"/>
        <path id="Trazado_144514" data-name="Trazado 144514" d="M909.95,3481.248a11.26,11.26,0,0,1-1.88-.158,11.134,11.134,0,1,1,12.834-9.123h0a11.14,11.14,0,0,1-10.954,9.281Zm-.029-21.41a10.272,10.272,0,1,0,10.133,11.985h0a10.279,10.279,0,0,0-10.133-11.985Z" transform="translate(-891.861 -3452.2)" fill="#12263f"/>
      </g>
      <g id="Grupo_72974" data-name="Grupo 72974" transform="translate(810.114 3258.354)">
        <path id="Trazado_144515" data-name="Trazado 144515" d="M1023.457,3389.616a.43.43,0,0,1-.352-.181l-3.636-5.114,1.3-7.686a.431.431,0,0,1,.85.144l-1.24,7.333,3.429,4.823a.431.431,0,0,1-.351.681Z" transform="translate(-1001.97 -3365.361)" fill="#ff9d00"/>
        <g id="Grupo_72973" data-name="Grupo 72973">
          <path id="Trazado_144516" data-name="Trazado 144516" d="M991.837,3367.117c-.29-.407-.694-.94-1.11-1.448-.178-.218-.358-.429-.533-.63.092-.154.176-.3.255-.436.165-.271.277-.511.364-.674l.133-.258.12-.265c.074-.169.193-.406.3-.7.057-.146.12-.3.184-.47.266.013.544.022.825.027.656.012,1.324,0,1.824-.027s.829-.055.829-.055.033-.118.083-.294c.024-.089.055-.191.082-.3l.081-.35.079-.351.036-.161.026-.146.054-.3s-.288-.173-.722-.414l-.352-.191-.4-.208c-.278-.141-.576-.287-.874-.426-.255-.119-.51-.233-.754-.338.022-.178.028-.347.042-.5.03-.316.03-.58.036-.765l.007-.291-.007-.29c0-.185-.005-.449-.033-.765-.006-.079-.012-.161-.018-.247s-.012-.169-.024-.256c.245-.1.5-.217.756-.336.6-.275,1.195-.58,1.627-.818s.725-.41.725-.41l-.052-.3c-.031-.18-.088-.418-.139-.657-.027-.119-.05-.239-.08-.35l-.081-.3-.079-.295-.228-.018c-.145-.011-.351-.027-.6-.039-.5-.027-1.165-.045-1.821-.037-.279,0-.56.012-.829.024-.06-.169-.119-.327-.177-.472-.118-.294-.228-.535-.3-.706-.037-.085-.071-.149-.092-.194l-.033-.068-.127-.261c-.076-.169-.21-.4-.36-.676-.078-.136-.164-.281-.258-.434.177-.2.359-.414.54-.632.213-.256.417-.513.6-.758s.361-.479.507-.682c.292-.406.479-.686.479-.686l-.048-.069-.132-.177-.406-.537-.43-.517-.143-.17-.057-.062s-.316.119-.777.311c-.231.1-.5.211-.78.338s-.578.266-.875.415c-.253.126-.5.256-.738.382-.127-.126-.249-.243-.364-.349l-.323-.288-.135-.12c-.042-.036-.083-.067-.119-.1l-.226-.182-.226-.182c-.148-.111-.363-.264-.619-.451-.129-.088-.271-.181-.422-.277.072-.258.144-.53.212-.805.156-.637.285-1.284.372-1.778s.134-.827.134-.827-.026-.016-.074-.04l-.2-.1-.6-.307-.61-.277-.2-.091c-.049-.022-.077-.033-.077-.033s-.233.244-.566.617-.761.877-1.164,1.4c-.174.224-.342.449-.5.665-.169-.059-.33-.113-.479-.16-.305-.085-.559-.159-.738-.206l-.283-.065-.283-.064c-.045-.01-.095-.023-.149-.033l-.178-.031-.426-.075c-.155-.024-.323-.047-.5-.069-.047-.263-.1-.539-.158-.816-.067-.326-.142-.644-.217-.944s-.15-.581-.218-.822c-.135-.481-.239-.8-.239-.8l-.084-.006-.222-.007-.673-.017-.672.014-.222.006-.084.006s-.1.321-.241.8c-.069.24-.145.521-.221.82s-.151.619-.22.944c-.059.277-.113.552-.161.815-.178.021-.345.044-.5.067-.312.055-.574.092-.754.136l-.284.062-.074.017c-.048.011-.12.024-.209.048-.178.05-.435.113-.738.2-.15.045-.311.1-.48.154-.157-.218-.325-.444-.5-.665-.4-.519-.827-1.028-1.158-1.405-.166-.19-.306-.342-.4-.449l-.156-.167-.281.12-.287.124c-.105.045-.214.1-.324.154-.219.108-.441.211-.6.3l-.268.147s.045.332.128.823.213,1.145.367,1.784c.066.274.135.544.206.8-.076.045-.147.093-.216.141l-.2.139c-.265.174-.473.337-.621.448l-.232.175-.223.186c-.141.119-.348.283-.578.5-.114.107-.243.217-.368.345-.234-.126-.482-.256-.733-.382-.294-.148-.592-.291-.876-.421l-.411-.185-.368-.157c-.459-.192-.772-.31-.772-.31l-.2.229-.1.111-.1.128-.226.28-.225.281c-.07.091-.131.179-.186.252l-.18.247s.184.28.471.684.693.94,1.11,1.447c.178.218.358.43.533.631-.092.154-.176.3-.255.436-.165.271-.276.511-.364.674l-.133.258-.12.265c-.074.169-.193.406-.3.7-.057.146-.121.3-.184.47-.266-.013-.544-.022-.825-.027-.656-.012-1.324,0-1.823.027s-.829.055-.829.055l-.083.294c-.024.088-.055.191-.082.3l-.081.35-.079.351-.036.161-.026.146-.053.3s.287.173.722.414l.352.191.4.208c.278.142.575.287.874.426.255.119.51.233.754.338-.022.178-.029.347-.042.5-.03.316-.03.58-.036.764l-.007.291.006.291c0,.184.005.449.033.765l.017.246c.005.083.012.169.024.256-.245.1-.5.217-.756.336-.6.275-1.195.58-1.627.819s-.725.41-.725.41l.051.3c.031.181.088.418.139.657.027.119.05.239.08.35l.081.3.08.295.228.018c.145.011.351.027.6.039.5.027,1.165.046,1.82.037.279,0,.56-.011.829-.023.06.168.119.327.177.472.117.294.227.534.3.705.036.085.071.149.092.194l.033.068.127.261c.076.168.209.4.36.675.078.136.164.282.257.434-.177.2-.359.413-.54.631-.213.255-.417.513-.6.758s-.361.479-.507.682c-.292.406-.479.686-.479.686l.047.069.133.178.406.536.43.517.142.17.056.062s.316-.119.778-.311c.231-.1.5-.211.779-.338s.578-.266.875-.415c.253-.126.5-.256.738-.382.127.126.25.243.364.35l.323.288.135.12c.042.036.083.067.119.1l.226.182.226.182c.148.111.363.264.619.451.13.088.271.181.422.277-.072.258-.144.529-.212.8-.156.638-.285,1.285-.372,1.779s-.134.827-.134.827.026.016.073.04l.2.1.6.307.61.278.2.091c.048.022.077.033.077.033s.233-.244.566-.618.761-.876,1.164-1.395c.174-.224.342-.449.5-.665.169.059.33.112.479.16.305.085.559.159.738.206l.283.064.283.065c.045.01.095.023.149.033l.177.031.426.075c.155.024.322.047.5.068.047.263.1.539.158.816.067.326.142.644.217.944s.151.581.218.821c.136.481.239.8.239.8l.084.006.222.007.672.017.672-.015.222-.006.084-.006s.1-.321.241-.8c.068-.24.145-.52.221-.82s.151-.619.22-.944c.059-.277.113-.552.16-.815.178-.021.345-.044.5-.067.312-.054.574-.091.754-.136l.284-.062.074-.016c.048-.011.12-.024.209-.048.178-.05.435-.112.738-.2.15-.045.311-.1.48-.155.157.219.325.445.5.665.4.519.827,1.028,1.158,1.405.166.189.306.342.4.448l.156.167.28-.12.287-.124c.1-.045.213-.1.324-.154.219-.108.44-.211.6-.3l.268-.146s-.045-.333-.128-.823-.213-1.145-.367-1.784c-.066-.274-.135-.544-.206-.8.076-.045.147-.093.216-.14l.2-.139c.265-.174.473-.337.62-.448l.232-.175.223-.186c.141-.119.349-.283.578-.5.113-.108.243-.218.368-.345.234.126.482.256.733.382.294.148.593.291.876.421l.411.185.368.157c.459.192.772.31.772.31l.2-.229.1-.111.1-.128.226-.279.225-.281c.07-.091.132-.178.186-.252l.18-.247S992.124,3367.522,991.837,3367.117Zm-19.884-1.29a10.275,10.275,0,1,1,14.155-3.285A10.287,10.287,0,0,1,971.952,3365.827Z" transform="translate(-959.293 -3338.744)" fill="#ff9d00"/>
        </g>
        <circle id="Elipse_4500" data-name="Elipse 4500" cx="1.15" cy="1.15" r="1.15" transform="matrix(0.346, -0.938, 0.938, 0.346, 16.503, 19.54)" fill="#ff9d00"/>
        <path id="Trazado_144517" data-name="Trazado 144517" d="M999.282,3388.529a9.259,9.259,0,1,1,9.124-7.716A9.256,9.256,0,0,1,999.282,3388.529Zm-.023-17.945a8.685,8.685,0,1,0,8.581,10.133h0a8.683,8.683,0,0,0-7.115-10.009A8.818,8.818,0,0,0,999.258,3370.584Z" transform="translate(-981.081 -3360.917)" fill="#ff9d00"/>
      </g>
      <g id="Grupo_72975" data-name="Grupo 72975" transform="translate(766.348 3243.856)">
        <path id="Trazado_144518" data-name="Trazado 144518" d="M850.328,3320.184c-.264-.238-.529-.469-.786-.687.086-.209.163-.41.236-.594.155-.37.248-.691.327-.912l.117-.348.1-.354c.06-.226.164-.544.245-.937.043-.193.093-.4.14-.623.336-.034.684-.076,1.037-.123.823-.11,1.656-.255,2.275-.381s1.026-.226,1.026-.226l.048-.384c.013-.115.032-.249.045-.394s.023-.3.034-.453.022-.309.033-.454c0-.073.01-.143.014-.209l0-.187c.006-.232.01-.387.01-.387s-.392-.162-.982-.38l-.476-.172-.54-.184c-.375-.124-.774-.249-1.173-.366-.342-.1-.682-.194-1.008-.28-.006-.226-.031-.439-.043-.637-.023-.4-.073-.73-.1-.963s-.046-.365-.046-.365l-.063-.362c-.041-.23-.092-.561-.187-.95l-.069-.305c-.022-.1-.047-.209-.078-.316.287-.177.584-.367.882-.563.694-.458,1.384-.952,1.879-1.333s.829-.651.829-.651l-.122-.367c-.074-.22-.189-.506-.3-.8-.057-.144-.108-.289-.166-.422l-.159-.363-.156-.354-.289.02c-.184.014-.444.034-.761.066-.632.062-1.466.165-2.284.3-.348.056-.7.121-1.032.188-.107-.2-.211-.387-.311-.558-.2-.346-.386-.625-.507-.825-.062-.1-.118-.173-.152-.225l-.055-.079-.209-.3c-.127-.2-.338-.457-.579-.777-.123-.155-.258-.321-.4-.494.183-.284.371-.585.555-.892.217-.36.424-.721.612-1.063s.36-.668.5-.949c.288-.563.469-.949.469-.949l-.073-.077-.2-.2-.609-.594-.636-.565-.211-.185-.082-.067s-.372.208-.913.536c-.271.164-.582.358-.911.571s-.672.442-1.016.686c-.293.206-.579.416-.85.618-.183-.133-.358-.257-.521-.368l-.459-.3-.191-.125c-.06-.037-.117-.068-.167-.1l-.318-.185-.318-.184c-.206-.111-.5-.262-.86-.447-.179-.085-.373-.175-.58-.265.041-.337.079-.69.112-1.047.074-.827.112-1.661.127-2.295s.01-1.059.01-1.059-.035-.015-.1-.036l-.264-.09-.8-.27-.816-.231-.269-.075c-.065-.019-.1-.027-.1-.027s-.245.35-.59.88-.785,1.241-1.191,1.965c-.175.313-.343.626-.5.927-.222-.042-.434-.078-.629-.108-.4-.048-.729-.093-.962-.117l-.366-.027-.366-.027c-.058,0-.123-.01-.193-.013l-.228-.005-.547-.013c-.2,0-.412,0-.638.01-.109-.321-.227-.656-.352-.991-.146-.395-.3-.778-.451-1.139s-.3-.7-.429-.985c-.261-.576-.451-.958-.451-.958l-.106.009-.278.033-.844.107-.838.146-.276.05-.1.023s-.069.421-.149,1.048c-.04.313-.082.678-.12,1.068s-.072.8-.1,1.222c-.021.357-.036.712-.046,1.05-.218.061-.424.121-.613.179-.38.127-.7.224-.916.314l-.343.131-.09.034c-.058.024-.145.052-.252.1-.213.1-.522.224-.885.395-.179.084-.371.18-.572.284-.238-.243-.49-.494-.746-.737-.6-.573-1.229-1.129-1.716-1.537-.244-.206-.447-.369-.591-.484l-.227-.18-.328.2-.336.21c-.123.077-.248.168-.376.254-.253.177-.511.348-.7.488l-.307.234s.119.407.316,1.005.484,1.391.8,2.161c.134.33.273.655.409.963-.086.071-.167.145-.243.217l-.229.213c-.3.268-.527.512-.691.678l-.257.263-.244.275c-.154.176-.382.42-.627.738-.122.156-.262.318-.395.5-.317-.114-.651-.228-.989-.339-.4-.129-.8-.251-1.175-.36l-.549-.153-.49-.126c-.61-.153-1.025-.241-1.025-.241l-.211.324-.1.158-.106.18-.229.393-.228.393c-.07.127-.13.249-.184.351l-.178.344s.284.314.72.766,1.046,1.043,1.663,1.6c.264.238.529.469.786.687-.086.209-.163.41-.236.594-.155.37-.248.691-.327.912l-.117.348-.1.354c-.06.226-.164.544-.245.937-.043.193-.093.4-.14.623-.336.035-.684.076-1.037.123-.823.11-1.656.255-2.275.381s-1.026.226-1.026.226l-.048.384c-.013.115-.032.249-.045.393s-.023.3-.034.454l-.033.453-.014.209,0,.187c-.006.232-.01.387-.01.387s.392.161.982.379l.476.173.539.183c.375.124.774.249,1.173.366.342.1.682.194,1.008.279.006.227.031.439.043.637.023.4.073.731.1.963s.046.364.046.364l.063.362c.041.23.092.56.187.95l.069.305c.022.1.047.209.079.316-.287.177-.585.367-.882.563-.694.458-1.384.952-1.879,1.333s-.829.651-.829.651l.122.366c.074.22.189.507.3.8.057.144.108.29.166.422l.158.363.156.354.289-.02c.183-.013.444-.034.761-.066.632-.062,1.466-.165,2.284-.3.348-.056.7-.121,1.032-.187.107.2.211.386.311.557.2.346.386.625.508.825.062.1.117.173.152.225l.055.079.209.3c.127.2.338.457.579.776.123.155.258.321.4.494-.183.285-.371.585-.555.892-.218.36-.424.721-.612,1.063s-.36.667-.5.949c-.288.563-.469.949-.469.949l.073.078.2.2.609.594.636.565.211.185.082.067s.372-.208.913-.536c.27-.164.582-.358.911-.571s.672-.442,1.016-.686c.293-.206.579-.416.85-.619.183.133.358.257.521.368l.459.3.191.125c.06.037.117.068.167.1l.318.185.318.185c.206.111.5.261.86.447.179.085.373.174.581.266-.041.336-.079.689-.112,1.046-.074.827-.112,1.661-.127,2.294s-.01,1.06-.01,1.06.036.015.1.036l.264.09.8.27.816.231.269.075c.065.019.1.027.1.027s.245-.35.59-.88.785-1.241,1.191-1.966c.175-.313.343-.627.5-.927.222.042.434.078.629.109.4.048.729.092.962.117l.366.027.367.027c.058,0,.123.011.193.013l.228.005.547.013c.2,0,.412,0,.638-.01.109.321.227.655.352.991.146.395.3.777.451,1.139s.3.7.429.986c.261.576.451.958.451.958l.106-.009.278-.034.844-.107.838-.146.276-.05.1-.023s.069-.421.149-1.048c.04-.313.082-.678.12-1.068s.072-.8.1-1.222c.021-.357.036-.712.046-1.05.218-.06.424-.121.613-.179.38-.128.7-.223.916-.313l.343-.132.09-.034c.058-.024.145-.053.252-.1.213-.1.522-.223.885-.394.179-.084.371-.179.572-.284.238.243.49.494.746.738.6.573,1.229,1.129,1.716,1.537.244.206.447.369.591.484l.227.18.328-.2.336-.21c.123-.077.248-.168.376-.254.253-.177.511-.348.7-.488l.307-.234s-.119-.407-.316-1.005-.484-1.391-.8-2.161c-.134-.33-.273-.654-.409-.963.086-.071.167-.144.243-.217l.229-.213c.3-.268.527-.512.691-.679l.257-.263.244-.275c.154-.176.382-.42.627-.738.122-.156.262-.318.395-.5.317.114.651.228.989.338.4.128.8.251,1.175.36l.549.153.49.126c.61.153,1.025.241,1.025.241l.211-.325.1-.157.106-.181.229-.393.228-.394c.07-.127.13-.248.184-.351l.178-.343s-.284-.315-.72-.766S850.945,3320.739,850.328,3320.184Zm-7.162,2.592c-.133.135-.318.335-.562.552l-.186.173c-.063.061-.13.123-.2.181l-.449.379c-.16.126-.33.252-.5.383l-.128.1-.134.092-.268.185a16.148,16.148,0,0,1-2.074,1.191c-.3.139-.548.241-.721.321-.087.039-.158.062-.206.081l-.073.028-.279.107c-.175.076-.437.151-.746.256a16.458,16.458,0,0,1-2.326.541,16.666,16.666,0,0,1-2.378.168l-.444-.01-.185,0c-.057,0-.11-.008-.157-.011l-.3-.022-.3-.021-.781-.095a15.686,15.686,0,0,1-4.56-1.41l-.7-.363-.258-.151-.258-.15c-.041-.024-.088-.048-.136-.079l-.155-.1-.372-.242a15.167,15.167,0,0,1-3.483-3.241c-.2-.261-.369-.471-.471-.632l-.17-.246-.045-.064c-.028-.043-.074-.1-.124-.183-.1-.163-.248-.39-.413-.672a16.1,16.1,0,0,1-1.039-2.154l-.117-.3-.059-.151-.05-.153c-.065-.2-.135-.4-.2-.6l-.156-.566c-.027-.089-.047-.178-.065-.264l-.056-.248c-.079-.316-.119-.585-.152-.772l-.053-.294s-.013-.108-.036-.3-.065-.457-.082-.782c-.01-.163-.032-.338-.036-.524s-.01-.383-.016-.586c.006-.406.007-.841.048-1.273l.023-.324c.013-.107.027-.214.04-.32l.038-.315c.007-.052.012-.1.02-.155l.027-.152.1-.579.117-.514c.064-.32.152-.58.2-.764l.08-.289.1-.284c.065-.18.138-.444.266-.744l.194-.49.244-.535.063-.14c.022-.047.048-.092.072-.139l.146-.282.147-.287.164-.28c.21-.38.454-.739.679-1.078l.344-.475c.109-.152.226-.284.325-.412.2-.259.384-.456.509-.6l.2-.224.209-.213c.133-.135.318-.335.562-.552l.186-.173c.063-.061.13-.123.2-.181l.449-.379c.16-.126.33-.251.5-.383l.128-.1.134-.091.268-.185a16.123,16.123,0,0,1,2.074-1.191c.3-.139.548-.241.721-.321.087-.039.159-.061.206-.081l.073-.028.28-.107c.175-.075.437-.15.746-.256a16.459,16.459,0,0,1,2.326-.54,16.708,16.708,0,0,1,2.378-.169l.444.011.185,0c.057,0,.11.008.157.011l.3.022.3.021.781.095a15.667,15.667,0,0,1,4.56,1.41l.7.363.258.151.258.149c.041.024.088.049.136.079l.155.1.372.241a15.187,15.187,0,0,1,3.483,3.241c.2.261.369.471.471.632l.17.246.045.064c.028.042.074.1.124.183.1.164.248.39.413.672a16.14,16.14,0,0,1,1.039,2.154l.117.3.059.151.05.153c.065.2.135.4.2.6l.156.566c.027.09.047.178.065.264s.037.169.056.248c.079.316.119.585.152.772l.053.294.036.3c.022.189.065.457.082.782.01.162.032.337.036.524s.01.383.015.586c-.006.406-.007.841-.048,1.273l-.023.324c-.013.107-.027.215-.04.32l-.038.316c-.007.052-.012.1-.019.155l-.027.152-.1.579-.117.514c-.064.32-.152.58-.2.765l-.08.289-.1.284c-.065.179-.138.443-.266.744l-.194.491-.244.534-.063.141c-.022.046-.048.092-.072.138l-.146.282-.147.287-.164.28c-.21.38-.454.739-.679,1.078l-.344.475c-.108.151-.226.284-.325.412-.2.259-.384.456-.509.6l-.2.224Z" transform="translate(-808.801 -3288.892)" fill="#7e5ee3"/>
        <path id="Trazado_144519" data-name="Trazado 144519" d="M849.588,3348.993a.719.719,0,0,1-.018-1.437l10.657-.272,1.333-7.89a.718.718,0,0,1,1.417.24l-1.531,9.057-11.839.3Z" transform="translate(-837.217 -3324.283)" fill="#7e5ee3"/>
        <path id="Trazado_144520" data-name="Trazado 144520" d="M887.611,3366.074a1.62,1.62,0,1,1-1.328-1.868A1.62,1.62,0,0,1,887.611,3366.074Z" transform="translate(-862.409 -3342.288)" fill="#7e5ee3"/>
        <path id="Trazado_144521" data-name="Trazado 144521" d="M853.726,3347.659a14.231,14.231,0,1,1,14-11.861h0a14.237,14.237,0,0,1-14,11.861Zm-.037-27.348a13.116,13.116,0,1,0,12.938,15.3h0a13.124,13.124,0,0,0-12.938-15.3Z" transform="translate(-830.548 -3310.384)" fill="#7e5ee3"/>
      </g>
      <path id="Trazado_144522" data-name="Trazado 144522" d="M916.572,3439.743a55.648,55.648,0,0,1-9.282-.782,1.163,1.163,0,0,1,.388-2.294,53.733,53.733,0,0,0,61.112-65.652,1.163,1.163,0,1,1,2.261-.549,56.094,56.094,0,0,1-54.478,69.277Z" transform="translate(-111.612 -102.256)" fill="#ff9d00"/>
      <path id="Trazado_144523" data-name="Trazado 144523" d="M755.942,3307.216a1.163,1.163,0,0,1-1.041-.643,56.32,56.32,0,0,1-4.355-11.9,56.053,56.053,0,0,1,66.568-67.946,1.163,1.163,0,1,1-.5,2.271,53.715,53.715,0,0,0-63.8,65.126,54.017,54.017,0,0,0,4.174,11.41,1.164,1.164,0,0,1-1.039,1.685Z" transform="translate(0 0)" fill="#7e5ee3"/>
      <path id="Trazado_144524" data-name="Trazado 144524" d="M753.489,3489.076l8.638-4.277.124,10.694Z" transform="translate(-3.226 -183.97)" fill="#7e5ee3"/>
      <path id="Trazado_144525" data-name="Trazado 144525" d="M1118.867,3351.641l-9.154,3.018,1.383-10.6Z" transform="translate(-255.855 -84.156)" fill="#ff9d00"/>
    </g>
  </g>
</svg>
