<svg xmlns="http://www.w3.org/2000/svg" xmlns:xlink="http://www.w3.org/1999/xlink" width="208" height="208" viewBox="0 0 208 208">
  <defs>
    <filter id="Elipse_4071" x="0" y="0" width="208" height="208" filterUnits="userSpaceOnUse">
      <feOffset dy="3" input="SourceAlpha"/>
      <feGaussianBlur stdDeviation="3" result="blur"/>
      <feFlood flood-opacity="0.161"/>
      <feComposite operator="in" in2="blur"/>
      <feComposite in="SourceGraphic"/>
    </filter>
    <clipPath id="clip-path">
      <circle id="Elipse_4503" data-name="Elipse 4503" cx="73.5" cy="73.5" r="73.5" transform="translate(0 0)" fill="none"/>
    </clipPath>
  </defs>
  <g id="Grupo_73306" data-name="Grupo 73306" transform="translate(-1006 -1564)">
    <g transform="matrix(1, 0, 0, 1, 1006, 1564)" filter="url(#Elipse_4071)">
      <circle id="Elipse_4071-2" data-name="Elipse 4071" cx="95" cy="95" r="95" transform="translate(9 6)" fill="#fff"/>
    </g>
    <circle id="Elipse_4073" data-name="Elipse 4073" cx="73.5" cy="73.5" r="73.5" transform="translate(1035 1592)" fill="#81d4fa"/>
    <g id="Grupo_73047" data-name="Grupo 73047" transform="translate(1003.792 -2376.996)">
      <g id="Grupo_73046" data-name="Grupo 73046" transform="translate(31.208 3968.996)" clip-path="url(#clip-path)">
        <g id="Grupo_73043" data-name="Grupo 73043" transform="translate(10.124 25.913)">
          <g id="Grupo_73042" data-name="Grupo 73042">
            <path id="Trazado_144622" data-name="Trazado 144622" d="M60.29,4336.407s14.815-7.595,35.93-1.466C92.549,4343.887,64.674,4342.855,60.29,4336.407Z" transform="translate(-60.29 -4231.904)" fill="#362951"/>
            <path id="Trazado_144623" data-name="Trazado 144623" d="M99.471,4068.589s4.481-.931,6.426-2.453,3.382-6.764,3.551-9.639a3.787,3.787,0,0,0-2.706-3.721s.761-2.959.338-4.4-3.382-2.367-4.481-1.183c-.846-1.522-2.368-3.129-4.82-1.437-1.268-2.368-3.3-3.383-6.173-.846a5.407,5.407,0,0,0-5.75.761c-1.691,1.184-5.073,6.426-3.89,13.529a16.242,16.242,0,0,0,3.129,6.764s-13.878,30.335-15.9,49.38c-1.945,18.348,0,28.579,1.438,34.583s25.958,2.706,27.4-.845c-4.723-23.345-4.82-34.161-4.82-34.161Z" transform="translate(-65.564 -4043.432)" fill="#a05e48"/>
            <path id="Trazado_144624" data-name="Trazado 144624" d="M125.461,4076.858c.963,1.008,2.934,2.292,3.117,5.73,1.1.55,4.08-.184,6.188-1.467a8.154,8.154,0,0,1,6.051-.825,4.353,4.353,0,0,0,.6-2.292c-.733,1.054-3.942,2.43-4.309-.78-1.375,1.147-1.559,1.468-3.209.872s-1.339-1.823-1.357-2.4c-1.027,1.347-1.852,2.125-3.548,1.668s-1.758-1.532-1.758-1.761A6.267,6.267,0,0,1,125.461,4076.858Z" transform="translate(-102.774 -4064.403)" fill="#935544"/>
            <path id="Trazado_144625" data-name="Trazado 144625" d="M119.777,4060.644a2.668,2.668,0,0,1-.4-.031,2.641,2.641,0,0,1-1.77-1.145,4.3,4.3,0,0,1-.7-1.951,18.96,18.96,0,0,1,1.362-6.65.267.267,0,1,1,.484.227,18.654,18.654,0,0,0-1.314,6.368,3.756,3.756,0,0,0,.61,1.708,2.1,2.1,0,0,0,1.409.916,1.694,1.694,0,0,0,1.936-1.156.267.267,0,1,1,.508.166A2.236,2.236,0,0,1,119.777,4060.644Z" transform="translate(-97.192 -4048.179)" fill="#864431"/>
            <path id="Trazado_144626" data-name="Trazado 144626" d="M132.471,4060.557a2.428,2.428,0,0,1-2.261-1.276,5.033,5.033,0,0,1-.244-3.169,39.418,39.418,0,0,1,1.355-6.4.267.267,0,0,1,.511.158,38.87,38.87,0,0,0-1.337,6.317,4.455,4.455,0,0,0,.182,2.832,2,2,0,0,0,2.183.978,2.655,2.655,0,0,0,2.357-1.782.267.267,0,1,1,.518.135,3.183,3.183,0,0,1-2.814,2.178A3.79,3.79,0,0,1,132.471,4060.557Z" transform="translate(-105.619 -4047.406)" fill="#864431"/>
            <path id="Trazado_144627" data-name="Trazado 144627" d="M147.827,4062.967a3.184,3.184,0,0,1-2.326-.938,3.1,3.1,0,0,1-.494-1.893,38.821,38.821,0,0,1,2.235-8.275.267.267,0,1,1,.5.177,38.417,38.417,0,0,0-2.208,8.165,2.575,2.575,0,0,0,.406,1.528,2.771,2.771,0,0,0,2.2.669,3.317,3.317,0,0,0,2.088-2.883.267.267,0,0,1,.528.084,3.834,3.834,0,0,1-2.487,3.318A1.915,1.915,0,0,1,147.827,4062.967Z" transform="translate(-115.506 -4048.81)" fill="#864431"/>
            <path id="Trazado_144628" data-name="Trazado 144628" d="M163.5,4068.561H163.5a5.752,5.752,0,0,1-5.047-3.349,4.017,4.017,0,0,1-.322-2.5,1.661,1.661,0,0,1,1.472-1.418,2.1,2.1,0,0,1,1.2.539,15.018,15.018,0,0,0,4.3,2.22.267.267,0,1,1-.165.508,15.494,15.494,0,0,1-4.426-2.279,1.76,1.76,0,0,0-.913-.454h-.006c-.464,0-.824.5-.94,1a3.489,3.489,0,0,0,.29,2.164,5.28,5.28,0,0,0,4.57,3.032.267.267,0,0,1-.006.534Z" transform="translate(-124.014 -4055.075)" fill="#864431"/>
            <path id="Trazado_144629" data-name="Trazado 144629" d="M140.177,4090.4a.221.221,0,0,1-.044,0,.266.266,0,0,1-.22-.306,8.575,8.575,0,0,1,10.273-6.976,12.072,12.072,0,0,0,.43-2.155.267.267,0,0,1,.531.06,12.845,12.845,0,0,1-.523,2.493l-.076.242-.246-.062a8.037,8.037,0,0,0-9.863,6.484A.266.266,0,0,1,140.177,4090.4Z" transform="translate(-112.193 -4067.738)" fill="#864431"/>
            <path id="Trazado_144630" data-name="Trazado 144630" d="M127.781,4082.87a.267.267,0,0,1-.258-.2,7.947,7.947,0,0,0-2.956-4.331.267.267,0,0,1,.317-.431,8.48,8.48,0,0,1,3.155,4.624.267.267,0,0,1-.189.327A.261.261,0,0,1,127.781,4082.87Z" transform="translate(-102.12 -4065.873)" fill="#864431"/>
            <path id="Trazado_144631" data-name="Trazado 144631" d="M160.918,4081.276a3.87,3.87,0,0,1-.561-.042,2.1,2.1,0,0,1-1.477-.83,2.73,2.73,0,0,1-.376-1.9.267.267,0,0,1,.525.1,2.216,2.216,0,0,0,.288,1.5,1.588,1.588,0,0,0,1.116.609c1.767.253,2.177-.914,2.194-.964a.267.267,0,0,1,.509.164A2.226,2.226,0,0,1,160.918,4081.276Z" transform="translate(-124.29 -4066.149)" fill="#864431"/>
            <path id="Trazado_144632" data-name="Trazado 144632" d="M60.29,4340.88s5.377,3.544,19.31,2.811,16.621-4.278,16.621-4.278l4.155,20.392H63.1Z" transform="translate(-60.29 -4236.376)" fill="#51406d"/>
          </g>
          <path id="Trazado_144633" data-name="Trazado 144633" d="M109.716,4249.107a.267.267,0,0,1-.105-.513,7.629,7.629,0,0,1,5.879-.038.267.267,0,0,1-.2.494,7.183,7.183,0,0,0-5.465.035A.266.266,0,0,1,109.716,4249.107Z" transform="translate(-92.336 -4176.777)" fill="#864431"/>
          <path id="Trazado_144634" data-name="Trazado 144634" d="M118.794,4255.3h-.014l-2.933-.155a.267.267,0,0,1-.253-.28.263.263,0,0,1,.281-.253l2.933.154a.267.267,0,0,1-.014.534Z" transform="translate(-96.341 -4181.095)" fill="#864431"/>
        </g>
        <g id="Grupo_73044" data-name="Grupo 73044" transform="translate(55.684 18.488)">
          <path id="Trazado_144635" data-name="Trazado 144635" d="M195.458,4028.281s-2.854.031-3.608.785-.848,1.884-.471,4.521,1.791,9.5,4.522,11.777c3.392,2.826,6.124,2.543,6.124,2.543l1.884,17.429s5.37,4.9,11.023,3.015,6.689-8.479,6.689-8.479l-6.783-13.378s2.732-5.37,1.79-9.61-2.544-12.247-5.558-13.095c-2.544-2.073-4.711-2.167-8.762-.66-.754-1.036-2.355-.471-4.428,1.037S195.08,4026.681,195.458,4028.281Z" transform="translate(-191.164 -4022.103)" fill="#fe9d88"/>
          <path id="Trazado_144636" data-name="Trazado 144636" d="M215.665,4050.632c1.575.923,3.149,1.955,3.638,3.964a4.774,4.774,0,0,0,4.832-3.1,27.613,27.613,0,0,1,2.443-5.918l-.706-1.725s-1.411.313-2.063.531c.163,1.574.652,5.429-.977,5.918s-1.67-.5-2.165-.737a2.566,2.566,0,0,1-3.634.019C217.763,4050.625,215.665,4050.632,215.665,4050.632Z" transform="translate(-207.136 -4036.284)" fill="#f17762"/>
          <path id="Trazado_144637" data-name="Trazado 144637" d="M199.767,4044.2a8.021,8.021,0,0,1-3.07-.447.267.267,0,0,1,.2-.5,7.557,7.557,0,0,0,2.871.409,3.273,3.273,0,0,0,2.668-.964,1.58,1.58,0,0,0,.179-2.16,2.22,2.22,0,0,0-1.442-.791,5.854,5.854,0,0,0-1.8.067.268.268,0,0,1-.082-.529,6.333,6.333,0,0,1,1.967-.067,2.72,2.72,0,0,1,1.787,1,2.119,2.119,0,0,1-.213,2.837A3.8,3.8,0,0,1,199.767,4044.2Z" transform="translate(-194.661 -4033.23)" fill="#e8604d"/>
          <path id="Trazado_144638" data-name="Trazado 144638" d="M213.305,4063.233a.307.307,0,0,1-.055-.005.268.268,0,0,1-.207-.317,5.629,5.629,0,0,0-1.419-4.8,7.951,7.951,0,0,0-3.88-2.311,1.584,1.584,0,0,1-1.158-1.2l-.445-2.021a.267.267,0,0,1,.522-.115l.445,2.021a1.051,1.051,0,0,0,.77.792,8.5,8.5,0,0,1,4.143,2.472,6.17,6.17,0,0,1,1.545,5.271A.268.268,0,0,1,213.305,4063.233Z" transform="translate(-200.923 -4041.759)" fill="#e8604d"/>
          <path id="Trazado_144639" data-name="Trazado 144639" d="M211.089,4030.8a.266.266,0,0,1-.235-.139,1.91,1.91,0,0,1,.043-1.755,4.377,4.377,0,0,1,1.069-1.27,17.342,17.342,0,0,1,2.972-2.123.267.267,0,1,1,.263.465,16.775,16.775,0,0,0-2.88,2.058,3.805,3.805,0,0,0-.945,1.109,1.4,1.4,0,0,0-.052,1.261.268.268,0,0,1-.107.363A.271.271,0,0,1,211.089,4030.8Z" transform="translate(-203.874 -4024.302)" fill="#e8604d"/>
          <path id="Trazado_144640" data-name="Trazado 144640" d="M214.2,4061.652a2,2,0,0,1-.733-.127.267.267,0,0,1,.2-.5,2.117,2.117,0,0,0,1.969-.441.267.267,0,1,1,.391.365A2.624,2.624,0,0,1,214.2,4061.652Z" transform="translate(-205.591 -4047.134)" fill="#e8604d"/>
          <path id="Trazado_144641" data-name="Trazado 144641" d="M217.164,4054.214a3.036,3.036,0,0,1-.767-.1,4.024,4.024,0,0,1-2.294-1.725,7.2,7.2,0,0,1-1-2.642.267.267,0,1,1,.525-.1,6.679,6.679,0,0,0,.925,2.45,3.494,3.494,0,0,0,1.983,1.5,2.364,2.364,0,0,0,2.266-.58.267.267,0,0,1,.39.366A2.77,2.77,0,0,1,217.164,4054.214Z" transform="translate(-205.459 -4039.917)" fill="#e8604d"/>
          <path id="Trazado_144642" data-name="Trazado 144642" d="M227.868,4039.006a3,3,0,0,1-2.128-1.168,8.112,8.112,0,0,1-1.254-3.2,11.022,11.022,0,0,1-.423-3.587,4.207,4.207,0,0,1,.691-2.026,6.353,6.353,0,0,1,2.329-1.5c.18-.083.355-.163.518-.243a14.585,14.585,0,0,1,3.85-1.281.256.256,0,0,1,.088.5,14.01,14.01,0,0,0-3.714,1.237c-.166.081-.345.164-.529.248a6.018,6.018,0,0,0-2.145,1.361,3.56,3.56,0,0,0-.581,1.758,10.474,10.474,0,0,0,.413,3.418,7.74,7.74,0,0,0,1.159,3.007c.465.6,1.49,1.227,2.2.859.865-.447.851-1.841.8-2.419l-.36-4.478a.256.256,0,0,1,.234-.275.26.26,0,0,1,.275.235l.36,4.478c.055.68.059,2.327-1.079,2.913A1.528,1.528,0,0,1,227.868,4039.006Z" transform="translate(-212.59 -4024.635)" fill="#e8604d"/>
          <path id="Trazado_144643" data-name="Trazado 144643" d="M238.543,4043.006a.255.255,0,0,1-.053-.505,7.521,7.521,0,0,0,2.622-1.111.255.255,0,0,1,.285.423,8.05,8.05,0,0,1-2.8,1.188A.284.284,0,0,1,238.543,4043.006Z" transform="translate(-221.883 -4034.647)" fill="#e8604d"/>
          <path id="Trazado_144644" data-name="Trazado 144644" d="M245.19,4045.415a.255.255,0,0,1-.238-.164l-.682-1.781a.256.256,0,0,1,.477-.183l.681,1.781a.255.255,0,0,1-.147.33A.26.26,0,0,1,245.19,4045.415Z" transform="translate(-225.771 -4035.805)" fill="#e8604d"/>
          <path id="Trazado_144645" data-name="Trazado 144645" d="M239.939,4060.887a.255.255,0,0,1-.246-.187,14.811,14.811,0,0,1,1.951-12.032.255.255,0,1,1,.424.284,14.292,14.292,0,0,0-1.882,11.611.256.256,0,0,1-.179.315A.272.272,0,0,1,239.939,4060.887Z" transform="translate(-222.465 -4039.346)" fill="#e8604d"/>
          <path id="Trazado_144646" data-name="Trazado 144646" d="M250.856,4179.2c-.577,13.271-3.389,33.327-7.213,42.778H213.85l9.594-45.954-4.316-33.225-1.167-8.976a21.7,21.7,0,0,0,9.956-.937,30.9,30.9,0,0,0,8.513-4.905s1,2.4,2.48,6.237C243.066,4144.994,250.963,4167.117,250.856,4179.2Z" transform="translate(-205.952 -4091.12)" fill="#f9b919"/>
          <path id="Trazado_144647" data-name="Trazado 144647" d="M246.608,4134.213a21.991,21.991,0,0,1-8.008,5.879,29.309,29.309,0,0,1-11.773,2.7l-1.167-8.976a21.7,21.7,0,0,0,9.956-.937,30.9,30.9,0,0,0,8.513-4.905S245.131,4130.376,246.608,4134.213Z" transform="translate(-213.651 -4091.12)" fill="#ef890f"/>
          <path id="Trazado_144648" data-name="Trazado 144648" d="M233.819,4153.832a.234.234,0,0,1-.231-.2l-1.121-7.425a.234.234,0,0,1,.2-.266.231.231,0,0,1,.266.2l1.121,7.425a.234.234,0,0,1-.2.266A.216.216,0,0,1,233.819,4153.832Z" transform="translate(-218.088 -4102.829)" fill="#dd7403"/>
          <path id="Trazado_144649" data-name="Trazado 144649" d="M241.379,4153.977a.233.233,0,0,1-.232-.212,41.046,41.046,0,0,0-.866-4.742c-.115-.52-.23-1.039-.338-1.552a.234.234,0,1,1,.457-.1c.107.511.222,1.028.337,1.546a41.383,41.383,0,0,1,.875,4.8.232.232,0,0,1-.211.253Z" transform="translate(-222.959 -4103.644)" fill="#dd7403"/>
          <path id="Trazado_144650" data-name="Trazado 144650" d="M247.881,4152.946a.234.234,0,0,1-.226-.177l-1.5-5.93a.234.234,0,1,1,.453-.114l1.5,5.93a.234.234,0,0,1-.17.284A.232.232,0,0,1,247.881,4152.946Z" transform="translate(-227.01 -4103.227)" fill="#dd7403"/>
          <path id="Trazado_144651" data-name="Trazado 144651" d="M254.725,4150.806a.234.234,0,0,1-.226-.175l-1.511-5.814a.234.234,0,1,1,.452-.119l1.511,5.815a.234.234,0,0,1-.167.285A.249.249,0,0,1,254.725,4150.806Z" transform="translate(-231.461 -4101.906)" fill="#dd7403"/>
          <path id="Trazado_144652" data-name="Trazado 144652" d="M260.6,4148.524a.234.234,0,0,1-.221-.158l-1.729-5.1a.234.234,0,0,1,.442-.151l1.729,5.1a.234.234,0,0,1-.146.3A.224.224,0,0,1,260.6,4148.524Z" transform="translate(-235.152 -4100.889)" fill="#dd7403"/>
          <path id="Trazado_144653" data-name="Trazado 144653" d="M267.589,4144.741a.232.232,0,0,1-.212-.136l-2.19-4.779a.234.234,0,0,1,.425-.194l2.19,4.779a.232.232,0,0,1-.212.331Z" transform="translate(-239.403 -4098.629)" fill="#dd7403"/>
          <path id="Trazado_144654" data-name="Trazado 144654" d="M274.317,4138.749a.234.234,0,0,1-.216-.146l-1.924-4.695a.234.234,0,0,1,.432-.177l1.924,4.694a.235.235,0,0,1-.216.323Z" transform="translate(-243.963 -4094.776)" fill="#dd7403"/>
          <path id="Trazado_144655" data-name="Trazado 144655" d="M246.891,4257.921a.234.234,0,0,1-.16-.4,14.715,14.715,0,0,1,16.467-2.237.234.234,0,0,1-.217.414,14.239,14.239,0,0,0-15.93,2.164A.234.234,0,0,1,246.891,4257.921Z" transform="translate(-227.339 -4173.085)" fill="#ef890f"/>
          <path id="Trazado_144656" data-name="Trazado 144656" d="M255.822,4266.652a22.227,22.227,0,0,1-2.626-.156c-.86-.1-1.367-.413-1.506-.923-.2-.72.477-1.314,1.174-1.63a12.85,12.85,0,0,1,7.25-.978.233.233,0,0,1,.194.267.237.237,0,0,1-.267.195,12.358,12.358,0,0,0-6.983.942c-.5.225-1.036.644-.916,1.081.085.309.458.5,1.111.583a21.554,21.554,0,0,0,7.31-.375.234.234,0,1,1,.1.456A22.054,22.054,0,0,1,255.822,4266.652Z" transform="translate(-230.597 -4179.015)" fill="#ef890f"/>
          <path id="Trazado_144657" data-name="Trazado 144657" d="M232.7,4092.911c-.014-.237-.311-.246-.416-.075a17.072,17.072,0,0,0-.94,2.667,15.213,15.213,0,0,1-1.529,2.911,22.86,22.86,0,0,1-4.152,4.639,21.615,21.615,0,0,1-2.5,1.82c-.919.577-2.424,1.563-3.409.615a3.191,3.191,0,0,1-.5-2.762,11.251,11.251,0,0,1,1.518-3.675c.1-.157-.16-.333-.269-.181a10.88,10.88,0,0,0-1.707,3.773,4.671,4.671,0,0,0-.02,2.977c1.165,2.667,4.411.691,5.946-.418a19.771,19.771,0,0,0,5.174-5.551,26.5,26.5,0,0,0,1.707-3.293A8.512,8.512,0,0,0,232.7,4092.911Z" transform="translate(-209.008 -4068.136)" fill="#f9b919"/>
          <path id="Trazado_144658" data-name="Trazado 144658" d="M214.724,4134.31a.676.676,0,0,0-.006,1.351A.676.676,0,0,0,214.724,4134.31Z" transform="translate(-206.095 -4095.248)" fill="#f9b919"/>
        </g>
        <g id="Grupo_73045" data-name="Grupo 73045" transform="translate(97.274 19.142)">
          <path id="Trazado_144659" data-name="Trazado 144659" d="M323.059,4052.591s-4.336-2.5-5.753-6.754-1.168-5-1-6.5,3.252-9.505,4.169-10.589a4.638,4.638,0,0,1,5.67-.417c2.168-3.919,3.419-4.419,5.5-4.335s2.585,3.085,2.585,3.085a2.624,2.624,0,0,1,2.752.333,4.894,4.894,0,0,1,1.25,3,2.494,2.494,0,0,1,2.5-.167c1.084.751,1.251,3.419,1.251,3.419a3.378,3.378,0,0,1,2.918,1.251c1.251,1.5,1,5.836-1.334,11.173s-4.836,6.254-4.836,6.254,6.837,33.6,7.421,40.107c-7.838,4.253-24.348,3.168-24.348,3.168Z" transform="translate(-314.246 -4023.983)" fill="#ffc3bd"/>
          <path id="Trazado_144660" data-name="Trazado 144660" d="M334.943,4043.782a.239.239,0,0,1-.069-.01.255.255,0,0,1-.178-.314,29.973,29.973,0,0,1,3.447-7.823.255.255,0,0,1,.433.271,29.442,29.442,0,0,0-3.388,7.689A.255.255,0,0,1,334.943,4043.782Z" transform="translate(-326.315 -4031.501)" fill="#e8604d"/>
          <path id="Trazado_144661" data-name="Trazado 144661" d="M328.431,4047.675a.255.255,0,0,1-.2-.416,13.812,13.812,0,0,1,4.178-3.458.255.255,0,1,1,.242.45,13.3,13.3,0,0,0-4.023,3.33A.256.256,0,0,1,328.431,4047.675Z" transform="translate(-322.07 -4036.882)" fill="#e8604d"/>
          <path id="Trazado_144662" data-name="Trazado 144662" d="M354.3,4034.161a.255.255,0,0,1-.255-.251,2.583,2.583,0,0,1,1.181-2.181.255.255,0,0,1,.273.432,2.061,2.061,0,0,0-.943,1.741.256.256,0,0,1-.251.259Z" transform="translate(-338.936 -4029.006)" fill="#e8604d"/>
          <path id="Trazado_144663" data-name="Trazado 144663" d="M365.576,4044.692a.256.256,0,0,1-.252-.22,2.846,2.846,0,0,1,.581-2.133.255.255,0,0,1,.4.318,2.326,2.326,0,0,0-.475,1.744.255.255,0,0,1-.217.289Z" transform="translate(-346.269 -4035.886)" fill="#e8604d"/>
          <path id="Trazado_144664" data-name="Trazado 144664" d="M389.09,4063.571a.255.255,0,0,1-.1-.49,5.521,5.521,0,0,0,2.181-1.669.255.255,0,0,1,.4.316,6.041,6.041,0,0,1-2.383,1.823A.258.258,0,0,1,389.09,4063.571Z" transform="translate(-361.612 -4048.318)" fill="#e8604d"/>
          <path id="Trazado_144665" data-name="Trazado 144665" d="M369.184,4043.895a.255.255,0,0,1-.157-.457,3.252,3.252,0,0,0,1.126-1.675.255.255,0,1,1,.492.138,3.769,3.769,0,0,1-1.3,1.939A.255.255,0,0,1,369.184,4043.895Z" transform="translate(-348.636 -4035.451)" fill="#e8604d"/>
          <path id="Trazado_144666" data-name="Trazado 144666" d="M316.914,4194.9s4-4.946,8.847-5.231a45.78,45.78,0,0,1,6.278,6.659l.19-7.42s7.325-.285,10.178,1.236c2.473,18.55,5.612,65.732,4.947,71.535H310.636s3.234-23.21,4.756-35.292S316.914,4194.9,316.914,4194.9Z" transform="translate(-310.636 -4131.483)" fill="#6849d7"/>
          <path id="Trazado_144667" data-name="Trazado 144667" d="M340.75,4289.9a.234.234,0,0,1-.025-.466,27.466,27.466,0,0,0,9.272-2.7c.329-.163.681-.439.594-.688-.065-.186-.358-.273-.573-.321A18.489,18.489,0,0,0,336.337,4288a.234.234,0,1,1-.246-.4,18.963,18.963,0,0,1,14.03-2.336,1.127,1.127,0,0,1,.911.622c.159.455-.15.926-.827,1.263a27.968,27.968,0,0,1-9.429,2.745Z" transform="translate(-327.158 -4194.012)" fill="#4835a8"/>
          <path id="Trazado_144668" data-name="Trazado 144668" d="M343.675,4306.425a17.726,17.726,0,0,1-9.324-2.63.233.233,0,0,1,.247-.4,17.275,17.275,0,0,0,13.762,1.9.236.236,0,0,1,.29.159.233.233,0,0,1-.159.29A17.244,17.244,0,0,1,343.675,4306.425Z" transform="translate(-326.023 -4206.105)" fill="#4835a8"/>
        </g>
      </g>
    </g>
  </g>
</svg>
