<svg xmlns="http://www.w3.org/2000/svg" xmlns:xlink="http://www.w3.org/1999/xlink" width="663.999" height="428.923" viewBox="0 0 663.999 428.923">
  <defs>
    <linearGradient id="linear-gradient" y1="0.5" x2="1" y2="0.5" gradientUnits="objectBoundingBox">
      <stop offset="0.25" stop-color="#00bcd4" stop-opacity="0.102"/>
      <stop offset="1" stop-color="#81d4fa" stop-opacity="0.2"/>
    </linearGradient>
  </defs>
  <g id="Grupo_73337" data-name="Grupo 73337" transform="translate(-800 -420)">
    <path id="Trazado_108700" data-name="Trazado 108700" d="M1102.882,121.611a142.23,142.23,0,0,1,81.528,22.95c26.921,17.689,47.155,43.964,70.647,66.29,0,.172.172.172.343.344a166.246,166.246,0,0,0,78.02,41.216l13.313,3.218V550.484H909.664l.97-3.04c18.7-49.981,68.565-91.31,79.154-145.45,10.631-54.1-19.891-108.709-14.575-163.494,4.458-45.854,35.666-87.586,77.678-105.962A133.63,133.63,0,0,1,1102.882,121.611Z" transform="translate(117.268 298.439)" fill-rule="evenodd" fill="url(#linear-gradient)"/>
    <g id="Grupo_73249" data-name="Grupo 73249" transform="translate(761.94 420.881)">
      <g id="freepik--background-complete--inject-8" transform="translate(46.089 44.598)">
        <path id="Trazado_145134" data-name="Trazado 145134" d="M631.621,140.6c-3.85,9.626-10,25.186-12.831,32.335a4.112,4.112,0,0,0,2.308,5.327l26.3,10.476a4.1,4.1,0,0,0,5.332-2.288l0-.011,12.757-32.074A9.121,9.121,0,0,0,660.4,142.51l-.015-.006h0l1.869-4.673L645.041,131l-1.776,4.43H643.2A9.122,9.122,0,0,0,631.621,140.6Z" transform="translate(-84.083 -50.254)" fill="#f5f5f5"/>
        <path id="Trazado_145135" data-name="Trazado 145135" d="M646.59,131.61l-.85,2.14,16.971,7.476,1.1-2.757Z" transform="translate(-85.866 -50.294)" fill="#e0e0e0"/>
        <path id="Trazado_145136" data-name="Trazado 145136" d="M649.96,124.216l16.053,6.394a2.8,2.8,0,0,1,1.567,3.642l-1.7,4.272a1.8,1.8,0,0,1-2.343,1.008l-17.9-7.132a1.8,1.8,0,0,1-1.008-2.343l1.7-4.272a2.8,2.8,0,0,1,3.642-1.567Z" transform="translate(-85.784 -49.797)" fill="#ebebeb"/>
        <path id="Trazado_145137" data-name="Trazado 145137" d="M646.84,132.834a22.044,22.044,0,0,1,1.467-4.336,22.434,22.434,0,0,1,1.925-4.168,22.3,22.3,0,0,1-1.467,4.364A20.815,20.815,0,0,1,646.84,132.834Z" transform="translate(-85.938 -49.817)" fill="#e0e0e0"/>
        <path id="Trazado_145138" data-name="Trazado 145138" d="M649.27,133.8a22.271,22.271,0,0,1,1.467-4.346,20.857,20.857,0,0,1,1.925-4.159,22.276,22.276,0,0,1-1.467,4.346A20.863,20.863,0,0,1,649.27,133.8Z" transform="translate(-86.097 -49.881)" fill="#e0e0e0"/>
        <path id="Trazado_145139" data-name="Trazado 145139" d="M651.7,134.774a22,22,0,0,1,1.467-4.346,21.061,21.061,0,0,1,1.925-4.168,21.868,21.868,0,0,1-1.467,4.346A22.434,22.434,0,0,1,651.7,134.774Z" transform="translate(-86.256 -49.944)" fill="#e0e0e0"/>
        <path id="Trazado_145140" data-name="Trazado 145140" d="M654.13,135.744A21.151,21.151,0,0,1,655.6,131.4a21.064,21.064,0,0,1,1.925-4.168,21.963,21.963,0,0,1-1.477,4.346A22.427,22.427,0,0,1,654.13,135.744Z" transform="translate(-86.415 -50.007)" fill="#e0e0e0"/>
        <path id="Trazado_145141" data-name="Trazado 145141" d="M656.56,136.7a21.482,21.482,0,0,1,1.467-4.346A21.8,21.8,0,0,1,659.9,128.2a21.478,21.478,0,0,1-1.467,4.346A21.8,21.8,0,0,1,656.56,136.7Z" transform="translate(-86.574 -50.071)" fill="#e0e0e0"/>
        <path id="Trazado_145142" data-name="Trazado 145142" d="M659,137.674a21.955,21.955,0,0,1,1.477-4.346,22.424,22.424,0,0,1,1.916-4.168,21.157,21.157,0,0,1-1.467,4.346A21.068,21.068,0,0,1,659,137.674Z" transform="translate(-86.734 -50.133)" fill="#e0e0e0"/>
        <path id="Trazado_145143" data-name="Trazado 145143" d="M661.41,138.644a21.872,21.872,0,0,1,1.467-4.346,22.443,22.443,0,0,1,1.925-4.168,22.01,22.01,0,0,1-1.467,4.346A21.062,21.062,0,0,1,661.41,138.644Z" transform="translate(-86.891 -50.197)" fill="#e0e0e0"/>
        <path id="Trazado_145144" data-name="Trazado 145144" d="M663.84,139.6a22.048,22.048,0,0,1,1.467-4.336,21.068,21.068,0,0,1,1.925-4.168,22.283,22.283,0,0,1-1.467,4.346A21.526,21.526,0,0,1,663.84,139.6Z" transform="translate(-87.05 -50.26)" fill="#e0e0e0"/>
        <rect id="Rectángulo_32485" data-name="Rectángulo 32485" width="17.569" height="26.56" rx="1.48" transform="translate(543.974 113.248) rotate(-68.28)" fill="#ebebeb"/>
        <path id="Trazado_145145" data-name="Trazado 145145" d="M652.328,172.752a2.67,2.67,0,0,1,.094-.28l.28-.766,1.093-2.888c.935-2.5,2.336-6.018,4-10.28l.1.252-21.644-8.57c-.065,0,.6-.252.318-.131h0v.056l-.047.121-.094.234-.187.467-.374.935c-.252.617-.5,1.234-.738,1.869-.486,1.224-.935,2.43-1.449,3.617l-2.729,6.813-.122-.29,15.476,6.28,4.448,1.869,1.2.5a4.294,4.294,0,0,1,.42.2l-.392-.131-1.168-.439-4.448-1.7-15.7-6.14-.206-.075.084-.215c.86-2.168,1.757-4.448,2.7-6.822.467-1.187.935-2.392,1.439-3.617.243-.617.486-1.234.738-1.869l.364-.935.2-.467.093-.234.047-.122v-.056h0l.327-.14,21.616,8.6.178.075-.075.178c-1.757,4.3-3.205,7.831-4.224,10.345l-1.178,2.8-.308.72C652.384,172.687,652.34,172.765,652.328,172.752Z" transform="translate(-84.865 -51.484)" fill="#e0e0e0"/>
        <path id="Trazado_145146" data-name="Trazado 145146" d="M653.328,162.27a65.5,65.5,0,0,1-7.476-2.7,64.525,64.525,0,0,1-7.261-3.149,63.74,63.74,0,0,1,7.476,2.7A64.947,64.947,0,0,1,653.328,162.27Z" transform="translate(-85.398 -51.918)" fill="#e0e0e0"/>
        <path id="Trazado_145147" data-name="Trazado 145147" d="M652.268,164.94a63.121,63.121,0,0,1-7.476-2.7,66.408,66.408,0,0,1-7.261-3.149,64.491,64.491,0,0,1,7.476,2.7A65.614,65.614,0,0,1,652.268,164.94Z" transform="translate(-85.328 -52.092)" fill="#e0e0e0"/>
        <path id="Trazado_145148" data-name="Trazado 145148" d="M651.248,167.51a62.457,62.457,0,0,1-7.476-2.7,65.613,65.613,0,0,1-7.261-3.149,63.111,63.111,0,0,1,7.476,2.7A66.413,66.413,0,0,1,651.248,167.51Z" transform="translate(-85.261 -52.261)" fill="#e0e0e0"/>
        <path id="Trazado_145149" data-name="Trazado 145149" d="M661.207,142.323a76.07,76.07,0,0,1-8.1-2.963,77.875,77.875,0,0,1-7.934-3.42,73.944,73.944,0,0,1,8.112,2.962A76.809,76.809,0,0,1,661.207,142.323Z" transform="translate(-85.828 -50.577)" fill="#e0e0e0"/>
        <path id="Trazado_145150" data-name="Trazado 145150" d="M621.12,172.068a10.776,10.776,0,0,1,.523-1.551c.4-1.056.935-2.458,1.589-4.159,1.355-3.5,3.262-8.327,5.4-13.644,1.075-2.654,2.093-5.187,3.037-7.476a16.071,16.071,0,0,1,3.411-5.682,7.168,7.168,0,0,1,3.972-2.028,5.364,5.364,0,0,1,1.224,0,1.6,1.6,0,0,1,.411.1,10.748,10.748,0,0,0-1.607.093,7.283,7.283,0,0,0-3.738,2.084,16.1,16.1,0,0,0-3.243,5.607c-.935,2.318-1.935,4.85-3,7.476-2.131,5.318-4.093,10.13-5.532,13.6l-1.729,4.093A9.633,9.633,0,0,1,621.12,172.068Z" transform="translate(-84.254 -50.679)" fill="#fff"/>
        <path id="Trazado_145151" data-name="Trazado 145151" d="M650.6,191.722a6.416,6.416,0,0,1-1.028-.832c-.318-.29-.72-.626-1.2-1s-.991-.832-1.617-1.271a45.6,45.6,0,0,0-4.458-2.953,47.824,47.824,0,0,0-5.878-2.8,48.356,48.356,0,0,0-6.233-1.972,45.394,45.394,0,0,0-5.262-.935c-.757-.112-1.449-.14-2.047-.2s-1.131-.075-1.551-.084a7.983,7.983,0,0,1-1.327-.1,6.513,6.513,0,0,1,1.327-.093h1.561a12.55,12.55,0,0,1,2.065.121,41.139,41.139,0,0,1,5.336.822,46.361,46.361,0,0,1,6.318,1.953,45.347,45.347,0,0,1,5.925,2.925,41.886,41.886,0,0,1,4.439,3.065c.607.458,1.121.935,1.579,1.336a15.154,15.154,0,0,1,1.14,1.065A7.108,7.108,0,0,1,650.6,191.722Z" transform="translate(-84.181 -53.427)" fill="#fff"/>
        <rect id="Rectángulo_32486" data-name="Rectángulo 32486" width="84.81" height="116.509" rx="2.41" transform="translate(0 166.992) rotate(-25.7)" fill="#e0e0e0"/>
        <rect id="Rectángulo_32487" data-name="Rectángulo 32487" width="75.343" height="108.444" transform="translate(5.348 167.173) rotate(-25.7)" fill="#fafafa"/>
        <path id="Trazado_145152" data-name="Trazado 145152" d="M102.3,199.862a9.215,9.215,0,0,0-9.654-1.009l-2.084-4.1a6.327,6.327,0,0,0-8.411-2.962h0a6.337,6.337,0,0,0-2.968,8.455l.006.012,2.084,4.327-1.449.729a9.242,9.242,0,0,0-5.093,8.131v2.149l29.56-14.224Zm-15.775.673a3.462,3.462,0,1,1,.011-.006Z" transform="translate(-48.489 -54.193)" fill="#ebebeb"/>
        <path id="Trazado_145153" data-name="Trazado 145153" d="M85.138,225.33c.065.122-4.009,2.206-9.093,4.673a93.121,93.121,0,0,1-9.345,4.205c-.093-.121,4.009-2.206,9.093-4.673A97.676,97.676,0,0,1,85.138,225.33Z" transform="translate(-47.963 -56.428)" fill="#e0e0e0"/>
        <path id="Trazado_145154" data-name="Trazado 145154" d="M77.209,233.56a24.892,24.892,0,0,1-4.327,2.355,24.783,24.783,0,0,1-4.542,1.869,25.25,25.25,0,0,1,4.355-2.308A26.1,26.1,0,0,1,77.209,233.56Z" transform="translate(-48.071 -56.967)" fill="#e0e0e0"/>
        <path id="Trazado_145155" data-name="Trazado 145155" d="M124.972,220.55c.056.112-11.364,5.738-25.513,12.542S73.8,245.325,73.74,245.24s11.364-5.775,25.476-12.588S124.916,220.428,124.972,220.55Z" transform="translate(-48.424 -56.115)" fill="#e0e0e0"/>
        <path id="Trazado_145156" data-name="Trazado 145156" d="M127.492,225.77c.056.121-11.364,5.738-25.513,12.551S76.316,250.554,76.26,250.47s11.355-5.738,25.513-12.551S127.417,225.648,127.492,225.77Z" transform="translate(-48.589 -56.457)" fill="#e0e0e0"/>
        <path id="Trazado_145157" data-name="Trazado 145157" d="M130,231c.065.121-11.364,5.738-25.5,12.551S78.835,255.784,78.77,255.7s11.364-5.738,25.513-12.551S129.946,230.878,130,231Z" transform="translate(-48.753 -56.799)" fill="#e0e0e0"/>
        <path id="Trazado_145158" data-name="Trazado 145158" d="M132.522,236.23c.056.122-11.364,5.738-25.513,12.551S81.346,261,81.29,260.93s11.364-5.738,25.513-12.542S132.466,236.108,132.522,236.23Z" transform="translate(-48.918 -57.142)" fill="#e0e0e0"/>
        <path id="Trazado_145159" data-name="Trazado 145159" d="M135.042,241.45c.056.121-11.364,5.747-25.513,12.551S83.866,266.234,83.81,266.15s11.392-5.775,25.5-12.588S134.976,241.338,135.042,241.45Z" transform="translate(-49.083 -57.483)" fill="#e0e0e0"/>
        <path id="Trazado_145160" data-name="Trazado 145160" d="M137.552,246.68c.056.121-11.364,5.738-25.5,12.551S86.376,271.464,86.32,271.38s11.364-5.738,25.513-12.551S137.5,246.558,137.552,246.68Z" transform="translate(-49.247 -57.826)" fill="#e0e0e0"/>
        <path id="Trazado_145161" data-name="Trazado 145161" d="M114.206,264.59a4.755,4.755,0,0,1-.935.57l-2.71,1.392c-2.3,1.149-5.5,2.72-9.028,4.42s-6.757,3.224-9.093,4.3l-2.8,1.252a4.519,4.519,0,0,1-1.047.393,5.849,5.849,0,0,1,.935-.57l2.71-1.383c2.3-1.159,5.5-2.729,9.028-4.43s6.757-3.215,9.093-4.29l2.8-1.252A4.954,4.954,0,0,1,114.206,264.59Z" transform="translate(-49.396 -58.998)" fill="#e0e0e0"/>
        <path id="Trazado_145162" data-name="Trazado 145162" d="M124.075,206.35a21.612,21.612,0,0,1-4,2.2,21.283,21.283,0,0,1-4.205,1.757,21.61,21.61,0,0,1,4-2.2A21.281,21.281,0,0,1,124.075,206.35Z" transform="translate(-51.182 -55.186)" fill="#e0e0e0"/>
        <path id="Trazado_145163" data-name="Trazado 145163" d="M108.069,282a54.934,54.934,0,0,1-6.542,3.42A56.411,56.411,0,0,1,94.77,288.4a54.93,54.93,0,0,1,6.542-3.42A56.412,56.412,0,0,1,108.069,282Z" transform="translate(-49.801 -60.138)" fill="#e0e0e0"/>
        <path id="Trazado_145164" data-name="Trazado 145164" d="M110.833,286.5a56.744,56.744,0,0,1-6.654,3.467A57.375,57.375,0,0,1,97.31,293a58.659,58.659,0,0,1,6.654-3.477A58.281,58.281,0,0,1,110.833,286.5Z" transform="translate(-49.967 -60.432)" fill="#e0e0e0"/>
        <path id="Trazado_145165" data-name="Trazado 145165" d="M149.55,261.39a12.8,12.8,0,0,1-3.1,1.766,13.1,13.1,0,0,1-3.327,1.327,13.621,13.621,0,0,1,3.112-1.766A13.484,13.484,0,0,1,149.55,261.39Z" transform="translate(-52.965 -58.789)" fill="#e0e0e0"/>
        <path id="Trazado_145166" data-name="Trazado 145166" d="M151.82,265.55a13.62,13.62,0,0,1-3.112,1.766,13.484,13.484,0,0,1-3.318,1.327,12.8,12.8,0,0,1,3.1-1.766A13.1,13.1,0,0,1,151.82,265.55Z" transform="translate(-53.114 -59.061)" fill="#e0e0e0"/>
        <path id="Trazado_145167" data-name="Trazado 145167" d="M107.1,294.68a12.537,12.537,0,0,1-3,1.71,12.648,12.648,0,0,1-3.215,1.28,12.716,12.716,0,0,1,3-1.757A12.478,12.478,0,0,1,107.1,294.68Z" transform="translate(-50.201 -60.968)" fill="#e0e0e0"/>
        <path id="Trazado_145168" data-name="Trazado 145168" d="M154.574,270.42a6.934,6.934,0,0,1-2.215,1.336,7.486,7.486,0,0,1-2.439.935,6.958,6.958,0,0,1,2.224-1.346A7.081,7.081,0,0,1,154.574,270.42Z" transform="translate(-53.411 -59.38)" fill="#e0e0e0"/>
        <path id="Trazado_145169" data-name="Trazado 145169" d="M105.87,308.667a1.621,1.621,0,0,1,.262-.2l.785-.523,3.019-1.935,10.85-6.813.215-.14.093.234a6.155,6.155,0,0,1,.121,4.121,5.028,5.028,0,0,1-2.991,3.234,4.973,4.973,0,0,1-4.673-.514,4.347,4.347,0,0,1-1.542-4.551,4.024,4.024,0,0,1,.935-1.7,3.1,3.1,0,0,1,.355-.336,1.883,1.883,0,0,1,.421-.29.71.71,0,0,1,.654,0,1.137,1.137,0,0,1,.374.43,8.148,8.148,0,0,1,.935,3.458,8.048,8.048,0,0,1-.533,3.411,5.166,5.166,0,0,1-2.009,2.663,2.98,2.98,0,0,1-3.159-.065,4.539,4.539,0,0,1-1.869-2.346,10.924,10.924,0,0,1,0-5.28l.056-.355.243.271a7.375,7.375,0,0,1,1.785,4.028,7.914,7.914,0,0,1-.318,3.318,7.032,7.032,0,0,1-.935,1.869c-.15.2-.271.327-.355.421s-.121.14-.131.131a8.709,8.709,0,0,0,1.243-2.486,7.991,7.991,0,0,0,.224-3.224,7.06,7.06,0,0,0-1.766-3.832l.3-.084a10.514,10.514,0,0,0,0,5.084,4.108,4.108,0,0,0,1.71,2.112,2.541,2.541,0,0,0,2.7.047,4.793,4.793,0,0,0,1.813-2.439,7.83,7.83,0,0,0,.486-3.233,7.706,7.706,0,0,0-.935-3.243.579.579,0,0,0-.2-.252.207.207,0,0,0-.206,0,2.3,2.3,0,0,0-.607.5,3.515,3.515,0,0,0-.785,1.486A3.87,3.87,0,0,0,113.8,305.7a4.514,4.514,0,0,0,4.168.467,4.578,4.578,0,0,0,2.729-2.934,5.687,5.687,0,0,0-.084-3.822l.308.1-10.943,6.663-3.084,1.869-.813.467A1.2,1.2,0,0,1,105.87,308.667Z" transform="translate(-50.527 -61.255)" fill="#e0e0e0"/>
        <path id="Trazado_145170" data-name="Trazado 145170" d="M156.99,283.794a2.81,2.81,0,0,1-.15.878,3.721,3.721,0,0,1-.43.991,2.091,2.091,0,0,1-1.168.935,1.455,1.455,0,0,1-.935,0,1.873,1.873,0,0,1-.785-.607,17.721,17.721,0,0,1-1.047-1.776l-2.29-4.28.421-.093c-.075,2.14-.15,4.476-.243,6.925a15.117,15.117,0,0,1-.065,1.729v.935l-.421-.869c-1.28-2.626-2.467-5.084-3.514-7.215h.393a24.9,24.9,0,0,0-.935,6.542c0,1.6.1,2.5.056,2.514a2.149,2.149,0,0,1-.14-.654,18.671,18.671,0,0,1-.159-1.869,22.788,22.788,0,0,1,.729-6.626l.14-.542.243.5,3.579,7.187-.467.093a15.526,15.526,0,0,1,.065-1.729c.1-2.448.2-4.785.28-6.925V279l.383.738c.822,1.542,1.579,2.981,2.262,4.271a18.7,18.7,0,0,0,.981,1.766,1.251,1.251,0,0,0,1.355.57,2.394,2.394,0,0,0,1.523-1.663A7.164,7.164,0,0,1,156.99,283.794Z" transform="translate(-53.125 -59.941)" fill="#e0e0e0"/>
        <path id="Trazado_145171" data-name="Trazado 145171" d="M156.464,280.39c.075.1-3.785,2.86-8.616,6.149s-8.813,5.86-8.887,5.747,3.738-2.86,8.616-6.149S156.389,280.278,156.464,280.39Z" transform="translate(-52.693 -60.032)" fill="#e0e0e0"/>
        <path id="Trazado_145172" data-name="Trazado 145172" d="M161.853,281.26a73.85,73.85,0,0,1-6.318,5.747,74.364,74.364,0,0,1-6.635,5.383,75.672,75.672,0,0,1,6.318-5.747A74.37,74.37,0,0,1,161.853,281.26Z" transform="translate(-53.344 -60.089)" fill="#e0e0e0"/>
        <path id="Trazado_145173" data-name="Trazado 145173" d="M197.016,64.44h-3.934l-8.532-11.99V44.6s-6.084-.374-5.364,9.906-.056,7.654-.056,7.654-12.906.056-14.018,1.178c-.785.813-1.131,13.635-1.271,20.56a7.533,7.533,0,0,0,5.336,7.579,5.414,5.414,0,0,0,1.355.224c3.215,0,19.625-2.617,19.625-2.617h6.794Z" transform="translate(-54.321 -44.598)" fill="#f5f5f5"/>
        <path id="Trazado_145174" data-name="Trazado 145174" d="M210.749,63.52l-2.42,26.9H201.59V64.062Z" transform="translate(-56.793 -45.837)" fill="#f5f5f5"/>
      </g>
      <g id="freepik--Icons--inject-8" transform="translate(262.818 47.769)">
        <path id="Trazado_145175" data-name="Trazado 145175" d="M519.364,67.045c-1.009-8.187-7.934-15.822-16.186-15.822-4.869,0-9.495,2.542-12.822,6.093a34.179,34.179,0,0,0-3.262,3.86,33.342,33.342,0,0,0-2.43-4.42c-2.561-4.14-6.6-7.551-11.373-8.5-8.084-1.617-16.373,4.5-18.981,12.327s-.439,16.607,3.85,23.653,11.663,16.252,25.233,20.822c9.345-1.206,21.924-9.514,27.513-15.579S520.346,75.223,519.364,67.045Z" transform="translate(-289.99 -47.991)" fill="#7e5ee3"/>
        <path id="Trazado_145176" data-name="Trazado 145176" d="M516.433,82.985a1.2,1.2,0,0,1-.271,0l-.794-.056-3.056-.252L501.1,81.649l.206-.121c-1.355,3.523-2.934,7.654-4.673,12.149l-.28.729-.187-.766c-1.43-5.906-3.019-12.532-4.673-19.513-.514-2.159-1.028-4.29-1.523-6.364l.477.093-8.56,11.775-.084.112h-.14l-19.7-2.056-5.607-.617-1.477-.187a1.979,1.979,0,0,1-.5-.093,2.624,2.624,0,0,1,.514,0l1.477.1,5.607.486,19.719,1.869-.215.093,8.523-11.794.336-.477.131.57c.5,2.075,1.009,4.2,1.533,6.364l4.673,19.523H496.2c1.766-4.514,3.383-8.635,4.766-12.149l.047-.14h.15l11.215,1.2,3.037.355.794.1A.926.926,0,0,1,516.433,82.985Z" transform="translate(-290.068 -49.24)" fill="#fafafa"/>
        <rect id="Rectángulo_32488" data-name="Rectángulo 32488" width="6.168" height="27.653" transform="translate(20.261 70.146)" fill="#7e5ee3"/>
        <rect id="Rectángulo_32489" data-name="Rectángulo 32489" width="27.653" height="6.168" transform="translate(9.514 80.884)" fill="#7e5ee3"/>
        <path id="Trazado_145177" data-name="Trazado 145177" d="M324.867,136.293a3.148,3.148,0,0,1-.047-.374c0-.271-.047-.635-.075-1.093a4.108,4.108,0,0,0-.056-.8c-.056-.29-.093-.617-.15-.935a16.578,16.578,0,0,0-.486-2.374,21.961,21.961,0,0,0-2.561-6.093,22.831,22.831,0,0,0-27.448-9.747,23.228,23.228,0,0,0-2.981,1.308,24.046,24.046,0,0,0-2.8,1.8,25.892,25.892,0,0,0-2.589,2.2,26.563,26.563,0,0,0-2.234,2.645,22.291,22.291,0,0,0-3.262,6.28,22.6,22.6,0,0,0,0,14.4,22.169,22.169,0,0,0,3.262,6.28,24.612,24.612,0,0,0,2.234,2.645,24.885,24.885,0,0,0,2.589,2.206,24.047,24.047,0,0,0,2.8,1.8,24.716,24.716,0,0,0,2.981,1.308,22.906,22.906,0,0,0,27.448-9.738,21.882,21.882,0,0,0,2.561-6.1,16.173,16.173,0,0,0,.486-2.364c.056-.355.121-.673.15-.935a7.394,7.394,0,0,1,.056-.8c0-.467.056-.822.075-1.093a2.8,2.8,0,0,1,.047-.374,2.268,2.268,0,0,1,0,.374v1.906a8.552,8.552,0,0,1-.121.935,17.317,17.317,0,0,1-.449,2.392,22.018,22.018,0,0,1-2.514,6.2,23.223,23.223,0,0,1-27.859,10.009,22.62,22.62,0,0,1-8.542-5.4,25.259,25.259,0,0,1-2.28-2.691,22.307,22.307,0,0,1-3.336-6.42,24.8,24.8,0,0,1-1.206-7.355,25.075,25.075,0,0,1,1.206-7.346,22.5,22.5,0,0,1,3.336-6.411,26.413,26.413,0,0,1,2.28-2.7,26.93,26.93,0,0,1,2.645-2.234,23.085,23.085,0,0,1,33.662,6.86,22.083,22.083,0,0,1,2.514,6.187,17.617,17.617,0,0,1,.449,2.4c0,.346.1.673.122.935v1.906A2.3,2.3,0,0,1,324.867,136.293Z" transform="translate(-278.56 -52.25)" fill="#7e5ee3"/>
      </g>
      <g id="freepik--character-3--inject-8" transform="translate(433.615 107.145)">
        <path id="Trazado_145178" data-name="Trazado 145178" d="M621.435,334.9s27.345-6.542,28.251-7.673l-22.495-57.942a42.384,42.384,0,0,0-26.233-25.569,74.324,74.324,0,0,0-26.56-4.1l-37.97-2.009a75.2,75.2,0,0,0-29.961,8.289,60.455,60.455,0,0,0-28.12,31L461.32,319.419l42.989,8.981,1.635,45.7-6.476,63.054H618.024l-.822-99.94h0Z" transform="translate(-461.32 -119.778)" fill="#7e5ee3"/>
        <g id="Grupo_73243" data-name="Grupo 73243" transform="translate(151.807 199.869)" opacity="0.3">
          <path id="Trazado_145179" data-name="Trazado 145179" d="M655.637,325.4c0,.131-7.056,2.448-15.887,5.168S623.8,335.4,623.76,335.24s7.046-2.448,15.887-5.177S655.6,325.269,655.637,325.4Z" transform="translate(-623.76 -325.394)" fill="#fff"/>
        </g>
        <path id="Trazado_145180" data-name="Trazado 145180" d="M523.428,280.472a6.323,6.323,0,0,1-.729-1c-.43-.654-1.093-1.589-1.953-2.71a45.108,45.108,0,0,0-3.224-3.738,49.639,49.639,0,0,0-4.448-4.112,52.044,52.044,0,0,0-4.962-3.5,47.648,47.648,0,0,0-4.364-2.346c-1.271-.607-2.327-1.056-3.065-1.346a5.33,5.33,0,0,1-1.131-.5,7.259,7.259,0,0,1,1.2.327,33.391,33.391,0,0,1,3.14,1.206,43.315,43.315,0,0,1,4.458,2.28,47.888,47.888,0,0,1,5.028,3.5,45.7,45.7,0,0,1,4.476,4.187,41.61,41.61,0,0,1,3.168,3.869,29.585,29.585,0,0,1,1.869,2.8A5.621,5.621,0,0,1,523.428,280.472Z" transform="translate(-463.822 -121.324)" fill="#263238"/>
        <path id="Trazado_145181" data-name="Trazado 145181" d="M518.661,296.62c.131,0-1.2,13.962-2.963,31.158s-3.308,31.13-3.439,31.111,1.187-13.962,2.962-31.158S518.558,296.6,518.661,296.62Z" transform="translate(-464.654 -123.642)" fill="#263238"/>
        <path id="Trazado_145182" data-name="Trazado 145182" d="M618.537,267.709a26.369,26.369,0,0,1-.607-2.8,52.536,52.536,0,0,0-1.869-6.691,51.748,51.748,0,0,0-2.8-6.374,27.148,27.148,0,0,1-1.327-2.57,4.471,4.471,0,0,1,.5.607c.29.411.682,1.028,1.14,1.794a39.734,39.734,0,0,1,2.953,6.374,38.832,38.832,0,0,1,1.766,6.794c.14.888.224,1.607.262,2.112A2.737,2.737,0,0,1,618.537,267.709Z" transform="translate(-471.179 -120.542)" fill="#263238"/>
        <path id="Trazado_145183" data-name="Trazado 145183" d="M621.449,318.686a8.326,8.326,0,0,1-.224-1.374c-.122-.878-.262-2.168-.421-3.738-.308-3.177-.635-7.588-.8-12.457s-.159-9.3-.075-12.495c.047-1.6.094-2.888.15-3.738a6.878,6.878,0,0,1,.14-1.383,9,9,0,0,1,.056,1.383v3.757c0,3.187.047,7.6.215,12.467s.439,9.261.663,12.448c.1,1.523.187,2.8.262,3.738A7.15,7.15,0,0,1,621.449,318.686Z" transform="translate(-471.698 -122.783)" fill="#263238"/>
        <path id="Trazado_145184" data-name="Trazado 145184" d="M558.025,312.381a194.833,194.833,0,0,1-29.905-.561v3.906h29.905Z" transform="translate(-465.693 -124.637)" fill="#fff"/>
        <g id="Grupo_73244" data-name="Grupo 73244" transform="translate(56.129 121.494)" opacity="0.3">
          <path id="Trazado_145185" data-name="Trazado 145185" d="M587.377,243.165a2.536,2.536,0,0,1,.121.589l.262,1.72c.187,1.514.449,3.738.664,6.542.449,5.607.841,13.6.935,23.027v.355l-.327-.15c-5.962-2.906-12.644-6.065-19.625-9.542L535.417,248.7l-10.28-5.205-2.8-1.43-.71-.393a1.033,1.033,0,0,1-.243-.14,1.052,1.052,0,0,1,.262.1l.738.336,2.8,1.355,10.336,5.065,34.1,16.878c6.953,3.477,13.626,6.645,19.625,9.57l-.318.2c-.1-9.411-.43-17.392-.8-23.008-.168-2.8-.393-5.018-.533-6.542-.084-.729-.149-1.308-.2-1.729A5.63,5.63,0,0,1,587.377,243.165Z" transform="translate(-521.38 -241.53)" fill="#fff"/>
        </g>
        <g id="Grupo_73245" data-name="Grupo 73245" transform="translate(2.85 192.279)" opacity="0.3">
          <path id="Trazado_145186" data-name="Trazado 145186" d="M512.2,328.849a1.684,1.684,0,0,1-.5-.084l-1.392-.327-5.112-1.3c-4.318-1.112-10.28-2.617-16.878-4.215s-12.6-2.981-16.943-3.972l-5.14-1.178-1.392-.336a2.371,2.371,0,0,1-.477-.15,1.829,1.829,0,0,1,.5,0l1.411.252c1.224.224,2.991.579,5.177,1.028,4.364.935,10.373,2.234,16.981,3.832s12.56,3.168,16.822,4.355c2.149.6,3.888,1.093,5.075,1.449l1.374.421A2.464,2.464,0,0,1,512.2,328.849Z" transform="translate(-464.37 -317.272)" fill="#fff"/>
        </g>
        <path id="Trazado_145187" data-name="Trazado 145187" d="M586.37,235.709c0-.14,2.57,1.206,5.047,4.878s4.729,9.345,6.009,15.887a65.294,65.294,0,0,1,1.093,9.345c0,1.439.065,2.8,0,4.084s-.084,2.467-.2,3.551-.224,2.047-.318,2.916-.262,1.579-.365,2.177a6.645,6.645,0,0,1-.449,1.869,7.111,7.111,0,0,1,.075-1.869l.2-2.187c.056-.869.112-1.869.168-2.906s0-2.252.084-3.514-.065-2.617-.112-4.028a73.074,73.074,0,0,0-1.15-9.159,49.837,49.837,0,0,0-5.607-15.672,21.515,21.515,0,0,0-3.112-3.962A18.164,18.164,0,0,1,586.37,235.709Z" transform="translate(-469.505 -119.654)" fill="#263238"/>
        <path id="Trazado_145188" data-name="Trazado 145188" d="M540.01,236a20.17,20.17,0,0,1-1.972,2.8,40.07,40.07,0,0,0-4.4,8.224,55.974,55.974,0,0,0-3.262,13.429c-.682,5.177-.935,10.972-1.355,17.037s-.327,11.841-.336,17.1,0,10.009,0,14.018-.1,7.224-.215,9.458a15.975,15.975,0,0,1-.346,3.458,16.327,16.327,0,0,1-.224-3.467c-.065-2.271-.14-5.486-.243-9.439s-.234-8.729-.308-14.018-.093-11.084.224-17.2.71-11.878,1.477-17.139a53.6,53.6,0,0,1,3.645-13.644,34.239,34.239,0,0,1,4.906-8.159A12.7,12.7,0,0,1,540.01,236Z" transform="translate(-465.639 -119.674)" fill="#263238"/>
        <path id="Trazado_145189" data-name="Trazado 145189" d="M606.465,317.169a17.822,17.822,0,0,1-.187-3.084c-.056-1.991-.1-4.869-.14-8.411,0-1.785,0-3.738-.056-5.813s0-4.336-.121-6.635a10.979,10.979,0,0,0-2.383-6.542,9.01,9.01,0,0,0-6.542-3.121,10.278,10.278,0,0,0-6.888,2.673,11.869,11.869,0,0,0-3.477,6.065c-.579,2.224-.822,4.458-1.168,6.542l-.935,5.738c-.561,3.5-1.037,6.346-1.383,8.3a18.786,18.786,0,0,1-.635,3.028,17.5,17.5,0,0,1,.262-3.084c.234-1.972.6-4.822,1.075-8.345.243-1.766.514-3.691.794-5.757a60.021,60.021,0,0,1,1.1-6.626,12.616,12.616,0,0,1,3.738-6.542,11.216,11.216,0,0,1,7.467-2.953,9.9,9.9,0,0,1,7.289,3.467,11.774,11.774,0,0,1,2.561,7.084c.14,2.392,0,4.607,0,6.7s-.047,4.037-.075,5.813c0,3.551-.1,6.43-.168,8.411A19.02,19.02,0,0,1,606.465,317.169Z" transform="translate(-469.255 -122.724)" fill="#263238"/>
        <path id="Trazado_145190" data-name="Trazado 145190" d="M598.236,273.87c-.308,3.271-1.355,6.944-3.626,9.345a13.15,13.15,0,0,1,6.028.112c-1.421-2.8-1.645-6.261-1.607-9.43" transform="translate(-470.045 -122.152)" fill="#263238"/>
        <path id="Trazado_145191" data-name="Trazado 145191" d="M606.764,295.9a28.623,28.623,0,0,0-1.477-3.738,11.631,11.631,0,0,0-2.72-3.252,10.092,10.092,0,0,0-4.6-2.187,9.808,9.808,0,0,0-5.065.5,11.061,11.061,0,0,0-3.617,2.187,27.778,27.778,0,0,0-2.57,3.056c-.159-.084.28-1.654,2.093-3.551a10.878,10.878,0,0,1,3.738-2.523,10.278,10.278,0,0,1,5.551-.636,10.465,10.465,0,0,1,5.009,2.467,11.156,11.156,0,0,1,2.748,3.617C607.007,294.237,606.848,295.91,606.764,295.9Z" transform="translate(-469.526 -122.922)" fill="#263238"/>
        <path id="Trazado_145192" data-name="Trazado 145192" d="M634.018,405.086c5.607,0,10.542-4.009,13.158-8.916s3.29-10.616,3.542-16.177a131.3,131.3,0,0,0-5.346-43.643L621,340.6l6.645,65.689Z" transform="translate(-471.772 -126.242)" fill="#ffbe9d"/>
        <path id="Trazado_145193" data-name="Trazado 145193" d="M529.37,411.93l79.417-2.888,19.261-93.062L544.4,320.625Z" transform="translate(-465.774 -124.909)" fill="#263238"/>
        <path id="Trazado_145194" data-name="Trazado 145194" d="M573.11,318.719l1.2-2.374,6.336-.458s1.607-4.159,10.672-4.589c8.112-.374,8.411,3.738,8.411,3.738H604.1v1.991Z" transform="translate(-468.638 -124.601)" fill="#455a64"/>
        <path id="Trazado_145195" data-name="Trazado 145195" d="M618.844,386.417l6.018-1.748a7.348,7.348,0,0,1,3.486-.159h0a7.345,7.345,0,0,1,3.738,1.972c1.991,1.963,5.205,5.205,5.663,6.177.673,1.411.673,3.86,0,4.757s1.477,5.542,1.206,7.084a9.641,9.641,0,0,1-1.206,3.738c-.542.645,0,2.85-1.346,4.514a22.327,22.327,0,0,1-2.551,2.691s-16.541.776-18.149,0-4.439-3.738-4.439-3.738-1.477-2.7.8-2.962l-9.411-3.6a2.243,2.243,0,0,1-1.365-2.8,1.572,1.572,0,0,1,.832-.935s-4.224-1.336-5.205-1.766c-1.953-.86-2.691-5.4,1.355-4.822,2.131.308,5.018.935,5.018.935s-1.542-2.5.617-4c1.308-.935,7.2.2,7.2.2l7.738-5.523Z" transform="translate(-470.093 -129.386)" fill="#ffbe9d"/>
        <path id="Trazado_145196" data-name="Trazado 145196" d="M622.072,412.926a13.917,13.917,0,0,1-4.888-.729,12.158,12.158,0,0,1-4.5-2.037c.065-.112,2.037.85,4.673,1.57S622.091,412.813,622.072,412.926Z" transform="translate(-471.228 -131.073)" fill="#eb996e"/>
        <path id="Trazado_145197" data-name="Trazado 145197" d="M617.814,406.558a63.857,63.857,0,0,1-7.673-1.71,61.6,61.6,0,0,1-7.551-2.177,128.051,128.051,0,0,1,15.224,3.888Z" transform="translate(-470.567 -130.583)" fill="#eb996e"/>
        <path id="Trazado_145198" data-name="Trazado 145198" d="M619.851,400.3a145.2,145.2,0,0,1-16.411-3.841A145.211,145.211,0,0,1,619.851,400.3Z" transform="translate(-470.623 -130.177)" fill="#eb996e"/>
        <path id="Trazado_145199" data-name="Trazado 145199" d="M626.49,392.51a10.842,10.842,0,0,1-2.121.682l-2.336.6-1.383.346a5.286,5.286,0,0,1-1.589.15,8.806,8.806,0,0,1-1.551-.252l-1.392-.318-2.336-.561a10.252,10.252,0,0,1-2.14-.645,10.037,10.037,0,0,1,2.206.308l2.374.458a27.933,27.933,0,0,0,2.869.523,10.479,10.479,0,0,0,2.8-.439l2.364-.5A10.377,10.377,0,0,1,626.49,392.51Z" transform="translate(-471.16 -129.918)" fill="#eb996e"/>
        <path id="Trazado_145200" data-name="Trazado 145200" d="M628.568,395.9c.056,0,.28.168.458.617a2.74,2.74,0,0,1,.065,1.869,2.8,2.8,0,0,1-1.1,1.486c-.4.262-.7.3-.729.243a4.724,4.724,0,0,0,1.364-1.869A5.192,5.192,0,0,0,628.568,395.9Z" transform="translate(-472.182 -130.14)" fill="#eb996e"/>
        <path id="Trazado_145201" data-name="Trazado 145201" d="M628.286,402.74c.112-.056.486.607.43,1.514s-.486,1.533-.6,1.458.075-.692.112-1.486S628.146,402.787,628.286,402.74Z" transform="translate(-472.236 -130.588)" fill="#eb996e"/>
        <path id="Trazado_145202" data-name="Trazado 145202" d="M628.372,410.16c.121-.047.374.4.252.991s-.514.935-.617.813.056-.449.14-.935S628.241,410.2,628.372,410.16Z" transform="translate(-472.229 -131.073)" fill="#eb996e"/>
        <path id="Trazado_145203" data-name="Trazado 145203" d="M629.626,392.037a5.123,5.123,0,0,1-1.589-.075l-1.7-.224a6.624,6.624,0,0,0-2.028-.1,5.053,5.053,0,0,0-1.794.813c-.523.346-.935.738-1.411.991a2.682,2.682,0,0,1-1.523.523c0-.084.57-.243,1.336-.813a8.145,8.145,0,0,1,3.327-1.991,5.809,5.809,0,0,1,1.14,0,5.519,5.519,0,0,1,1.019.168l1.692.318A5.6,5.6,0,0,1,629.626,392.037Z" transform="translate(-471.679 -129.828)" fill="#eb996e"/>
        <path id="Trazado_145204" data-name="Trazado 145204" d="M639.682,408.531a8.094,8.094,0,0,1,.421-1.15,8.111,8.111,0,0,0,.308-5.607c-.187-.822-.57-1.645-.776-2.626a8.236,8.236,0,0,1,.206-3.056,5.421,5.421,0,0,0-.542-3,14.047,14.047,0,0,0-1.72-2.663c-.645-.813-1.271-1.607-1.869-2.318a11.081,11.081,0,0,0-3.916-3.056,6.3,6.3,0,0,0-3.29-.5c-.785.112-1.2.318-1.215.28s.094-.075.29-.178a4.531,4.531,0,0,1,.935-.29,6.313,6.313,0,0,1,3.448.364,11.116,11.116,0,0,1,4.112,3.084c.654.72,1.29,1.5,1.944,2.318a14.7,14.7,0,0,1,1.785,2.8,5.8,5.8,0,0,1,.57,3.271,8.415,8.415,0,0,0-.234,2.906c.178.935.551,1.766.729,2.607a9.346,9.346,0,0,1,.308,2.4,8.56,8.56,0,0,1-.832,3.364A4.688,4.688,0,0,1,639.682,408.531Z" transform="translate(-472.184 -129.379)" fill="#eb996e"/>
        <path id="Trazado_145205" data-name="Trazado 145205" d="M573.79,358.851l-65.2,10.355,2.9-34.027-36.26-7.009-4.411,50.381-.766,11.551a22.568,22.568,0,0,0,9.467,19.887h0a22.588,22.588,0,0,0,20.018,3.065l14.018-4.57,68.334-24.3" transform="translate(-461.888 -125.707)" fill="#ffbe9d"/>
        <path id="Trazado_145206" data-name="Trazado 145206" d="M620.516,353.317a1.87,1.87,0,0,0-1.535-2.152,1.827,1.827,0,0,0-.335-.025c-3.673,0-13.6,0-17.1,1.037-4.336,1.224-20.495,8.159-20.495,8.159l6.85,25.233,24.793.262s9.056-4.159,9.168-5.962a29.072,29.072,0,0,0-.224-3.374l2.738-1.467c4.075-2.579,1.458-7.542,1.458-7.542s2.8-1.57,2.953-4.411A4.41,4.41,0,0,0,626.6,358.9s1.121-4-.935-5.075-5.607.3-5.607.3A1.446,1.446,0,0,0,620.516,353.317Z" transform="translate(-469.157 -127.21)" fill="#ffbe9d"/>
        <path id="Trazado_145207" data-name="Trazado 145207" d="M623.413,353.909a2.544,2.544,0,0,1-.766.271c-.5.14-1.234.3-2.14.458-1.869.327-4.355.6-7.149.935a57.9,57.9,0,0,0-7.084,1.084,13.172,13.172,0,0,0-2.8.935,2.653,2.653,0,0,1,.682-.439,12,12,0,0,1,2.056-.794,43.769,43.769,0,0,1,7.112-1.234c2.8-.3,5.336-.514,7.149-.748S623.385,353.844,623.413,353.909Z" transform="translate(-470.625 -127.391)" fill="#eb996e"/>
        <path id="Trazado_145208" data-name="Trazado 145208" d="M628.9,359.33a5.957,5.957,0,0,1-1.748.888,27.775,27.775,0,0,1-4.514,1.318c-1.8.374-3.439.617-4.673.776a8.045,8.045,0,0,1-1.934.15,58.423,58.423,0,0,1,6.467-1.4A46.216,46.216,0,0,0,627,359.9,11.11,11.11,0,0,1,628.9,359.33Z" transform="translate(-471.447 -127.746)" fill="#eb996e"/>
        <path id="Trazado_145209" data-name="Trazado 145209" d="M628.238,368.729A26.893,26.893,0,0,1,617.36,371.2c0-.15,2.467-.458,5.458-1.14S628.238,368.589,628.238,368.729Z" transform="translate(-471.534 -128.361)" fill="#eb996e"/>
        <path id="Trazado_145210" data-name="Trazado 145210" d="M626.831,376.75a18.69,18.69,0,0,1-8.411,2.028Q622.631,377.791,626.831,376.75Z" transform="translate(-471.603 -128.887)" fill="#eb996e"/>
        <path id="Trazado_145211" data-name="Trazado 145211" d="M613.313,371.814c0,.056-.252.215-.757.262a2.807,2.807,0,0,1-1.869-.514,2.868,2.868,0,0,1-1.112-1.6c-.121-.5-.056-.8,0-.8a4.05,4.05,0,0,0,1.383,2A5.13,5.13,0,0,0,613.313,371.814Z" transform="translate(-471.02 -128.39)" fill="#eb996e"/>
        <path id="Trazado_145212" data-name="Trazado 145212" d="M612.813,380.178c0,.131-.935.187-1.822-.57s-.935-1.748-.776-1.738.383.748,1.1,1.374S612.813,380.038,612.813,380.178Z" transform="translate(-471.062 -128.96)" fill="#eb996e"/>
        <path id="Trazado_145213" data-name="Trazado 145213" d="M609.873,363.218c.056.131-.626.346-1.262-.14s-.617-1.2-.477-1.178.3.458.766.794S609.807,363.087,609.873,363.218Z" transform="translate(-470.925 -127.915)" fill="#eb996e"/>
        <path id="Trazado_145214" data-name="Trazado 145214" d="M581.06,360.341l.2-.112.589-.271,2.3-1.019c2.019-.869,4.944-2.131,8.654-3.654,1.869-.748,3.888-1.579,6.131-2.411a23.246,23.246,0,0,1,3.551-1.1,37.559,37.559,0,0,1,3.944-.486c2.71-.215,5.607-.308,8.579-.346h3.43a2.453,2.453,0,0,1,1.234.262,1.981,1.981,0,0,1,1.056,2.252.692.692,0,0,1-.28.318l-.28.178-.561.262a9.155,9.155,0,0,1-1.178.411.243.243,0,0,1-.29-.168.233.233,0,0,1,.162-.288l.006,0a25.437,25.437,0,0,1,3.084-.692,11.226,11.226,0,0,1,3.271-.112,3.006,3.006,0,0,1,1.607.692,2.94,2.94,0,0,1,.794,1.579,8.243,8.243,0,0,1-.215,3.411l-.121-.29a4.6,4.6,0,0,1,1.374,1.215,4.868,4.868,0,0,1,.71,4.42,6.543,6.543,0,0,1-2.8,3.392l.093-.327a7.735,7.735,0,0,1,.785,4.318,4.963,4.963,0,0,1-2.336,3.533h0l-2.729,1.467.122-.234c.065.654.131,1.308.178,1.953a6.083,6.083,0,0,0,.047.935v.5a1.3,1.3,0,0,1-.2.533,5.976,5.976,0,0,1-1.411,1.346c-.5.374-1.028.71-1.542,1.028a67.662,67.662,0,0,1-6.159,3.224h-.084l-18.046-.28-4.99-.1-1.308-.047a2,2,0,0,1-.449,0,2.4,2.4,0,0,1,.449,0h6.3l18.046.1h-.084a65.857,65.857,0,0,0,6.1-3.234c.5-.308,1.019-.645,1.5-1.009a5.387,5.387,0,0,0,1.29-1.224.8.8,0,0,0,.14-.327v-1.392c-.047-.635-.112-1.28-.187-1.925a.215.215,0,0,1,.121-.224l2.729-1.477h0a4.5,4.5,0,0,0,2.121-3.205,7.342,7.342,0,0,0-.748-4.028.243.243,0,0,1,.1-.318,6.092,6.092,0,0,0,2.617-3.121,4.4,4.4,0,0,0-.645-3.981,4.037,4.037,0,0,0-1.206-1.065.252.252,0,0,1-.122-.28,7.887,7.887,0,0,0,.206-3.187,2.113,2.113,0,0,0-2-1.869,10.627,10.627,0,0,0-3.121.112,23.411,23.411,0,0,0-3.028.664l-.122-.458a8.062,8.062,0,0,0,1.1-.374c.178-.075.365-.159.523-.243s.327-.252.383-.234a2,2,0,0,0-.15-.981,1.723,1.723,0,0,0-.72-.72,1.944,1.944,0,0,0-1.019-.206h-3.42c-2.991,0-5.86.112-8.56.308a38.7,38.7,0,0,0-3.9.458,24.241,24.241,0,0,0-3.5,1.065c-2.234.813-4.28,1.626-6.14,2.355l-8.7,3.523-2.327.935-.607.243Z" transform="translate(-469.158 -127.197)" fill="#eb996e"/>
        <path id="Trazado_145215" data-name="Trazado 145215" d="M511.008,372a25.768,25.768,0,0,0-4.813,4.159,25.357,25.357,0,0,0-3.215,5.5,5.277,5.277,0,0,1,.486-1.869,14.7,14.7,0,0,1,5.822-7A5.406,5.406,0,0,1,511.008,372Z" transform="translate(-464.047 -128.576)" fill="#eb996e"/>
        <path id="Trazado_145216" data-name="Trazado 145216" d="M598.416,154.124a32.933,32.933,0,0,0-32.765-30.354h-1.71c-18.392,1.037-27.793,17.233-26.242,35.6l3.168,73.6a3.335,3.335,0,0,0,1.869,2.86l41.288,19.373-1.2-38.625s17.691-2.71,17.943-20.392C600.846,187.646,599.649,170.039,598.416,154.124Z" transform="translate(-466.309 -112.327)" fill="#ffbe9d"/>
        <path id="Trazado_145217" data-name="Trazado 145217" d="M584.489,222.522A42.816,42.816,0,0,1,561.34,215.7s5.42,12.728,23.065,11.215Z" transform="translate(-467.867 -118.345)" fill="#eb996e"/>
        <path id="Trazado_145218" data-name="Trazado 145218" d="M595.647,167.84a2.533,2.533,0,0,1-2.439,2.542,2.4,2.4,0,0,1-2.592-2.194c0-.029,0-.057-.006-.086a2.514,2.514,0,0,1,2.43-2.542,2.42,2.42,0,0,1,2.6,2.222Z" transform="translate(-469.783 -115.062)" fill="#263238"/>
        <path id="Trazado_145219" data-name="Trazado 145219" d="M597.9,165.313c-.318.327-2.224-1.093-4.944-1.093s-4.673,1.364-5,1.028c-.15-.15.168-.738,1.037-1.374A6.963,6.963,0,0,1,593,162.65a6.617,6.617,0,0,1,3.934,1.28C597.77,164.566,598.051,165.164,597.9,165.313Z" transform="translate(-469.607 -114.872)" fill="#263238"/>
        <path id="Trazado_145220" data-name="Trazado 145220" d="M567.047,168.72a2.514,2.514,0,0,1-2.439,2.542,2.411,2.411,0,0,1-2.593-2.214c0-.021,0-.044,0-.066a2.523,2.523,0,0,1,2.439-2.542,2.411,2.411,0,0,1,2.593,2.214C567.044,168.675,567.046,168.7,567.047,168.72Z" transform="translate(-467.911 -115.12)" fill="#263238"/>
        <path id="Trazado_145221" data-name="Trazado 145221" d="M569.3,165.813c-.308.327-2.224-1.084-4.934-1.084s-4.673,1.355-5.009,1.019c-.14-.15.178-.738,1.047-1.364a6.9,6.9,0,0,1,4.009-1.234,6.7,6.7,0,0,1,3.925,1.28C569.189,165.056,569.479,165.655,569.3,165.813Z" transform="translate(-467.735 -114.905)" fill="#263238"/>
        <path id="Trazado_145222" data-name="Trazado 145222" d="M580.444,185.975c0-.15,1.673-.439,4.411-.785.692-.075,1.355-.206,1.467-.682a3.493,3.493,0,0,0-.458-2.056l-2.037-5.29c-2.8-7.476-4.888-13.71-4.579-13.822s2.8,5.9,5.682,13.429l1.953,5.318a4,4,0,0,1,.355,2.72,1.727,1.727,0,0,1-1.149,1.009,4.821,4.821,0,0,1-1.177.168C582.164,186.124,580.453,186.133,580.444,185.975Z" transform="translate(-469.037 -114.917)" fill="#263238"/>
        <path id="Trazado_145223" data-name="Trazado 145223" d="M571.968,189.56c.439,0,.439,2.916,2.962,5.018s5.654,1.776,5.682,2.187c0,.187-.7.579-2.028.607a7.339,7.339,0,0,1-4.747-1.663,6.392,6.392,0,0,1-2.29-4.205C571.407,190.27,571.735,189.541,571.968,189.56Z" transform="translate(-468.533 -116.634)" fill="#263238"/>
        <path id="Trazado_145224" data-name="Trazado 145224" d="M569.931,154.446c-.271.738-2.981.383-6.168.766s-5.766,1.243-6.2.579c-.187-.318.262-1.019,1.308-1.729a10.393,10.393,0,0,1,4.589-1.6,10.283,10.283,0,0,1,4.822.579C569.454,153.521,570.043,154.1,569.931,154.446Z" transform="translate(-467.617 -114.201)" fill="#263238"/>
        <path id="Trazado_145225" data-name="Trazado 145225" d="M596.9,156.892c-.486.607-2.355,0-4.607-.065s-4.149.4-4.589-.243c-.2-.308.112-.935.935-1.514a6.672,6.672,0,0,1,7.4.243C596.846,155.948,597.108,156.584,596.9,156.892Z" transform="translate(-469.589 -114.31)" fill="#263238"/>
        <path id="Trazado_145226" data-name="Trazado 145226" d="M539.715,175.82c-.3-.131-12.149-3.617-11.775,8.476s12.42,9.224,12.429,8.878S539.715,175.82,539.715,175.82Z" transform="translate(-465.68 -115.697)" fill="#ffbe9d"/>
        <path id="Trazado_145227" data-name="Trazado 145227" d="M537.892,188.985c-.056,0-.206.15-.561.327a2.114,2.114,0,0,1-1.57.084c-1.29-.439-2.43-2.43-2.551-4.607a7.059,7.059,0,0,1,.5-3.028,2.429,2.429,0,0,1,1.542-1.663,1.085,1.085,0,0,1,1.262.533c.168.336.1.579.159.6s.262-.206.15-.7a1.409,1.409,0,0,0-.5-.748,1.582,1.582,0,0,0-1.168-.271,2.964,2.964,0,0,0-2.15,1.935,7.155,7.155,0,0,0-.626,3.392c.15,2.439,1.467,4.673,3.224,5.131a2.24,2.24,0,0,0,1.869-.383C537.874,189.312,537.93,189,537.892,188.985Z" transform="translate(-465.97 -115.975)" fill="#eb996e"/>
        <path id="Trazado_145228" data-name="Trazado 145228" d="M547.91,136.323l50.391,1.112a22.968,22.968,0,0,0-7.4-8.56,39.317,39.317,0,0,0-22.822-8.215c-8.215-.15-24.952,9.869-30.905,15.532-4.766,4.533-4.729,8.458-4.729,8.458-.757,6.542,2.9,13.962,4.355,20.382.748,3.308,2.2,13.317,2.2,13.317h0c2.8,0,3.8-2.215,3.383-4.962l-.514-10.775s9.439-6.71,4.962-18.99C546.134,142.64,544.6,138.155,547.91,136.323Z" transform="translate(-465.969 -112.124)" fill="#263238"/>
        <path id="Trazado_145229" data-name="Trazado 145229" d="M560.317,178.272a.308.308,0,0,1-.318-.3h0a.318.318,0,0,1,.224-.383.327.327,0,0,1,.365.271.317.317,0,0,1-.208.4A.288.288,0,0,1,560.317,178.272Z" transform="translate(-467.779 -115.85)" fill="#eb996e"/>
        <path id="Trazado_145230" data-name="Trazado 145230" d="M565.873,177.018a.375.375,0,0,1-.374-.308.355.355,0,0,1,.224-.43.345.345,0,0,1,.365.318A.336.336,0,0,1,565.873,177.018Z" transform="translate(-468.138 -115.764)" fill="#eb996e"/>
        <path id="Trazado_145231" data-name="Trazado 145231" d="M569.614,176.932c-.168,0-.327-.178-.365-.449s.075-.5.243-.523.318.178.355.449S569.773,176.932,569.614,176.932Z" transform="translate(-468.384 -115.743)" fill="#eb996e"/>
        <path id="Trazado_145232" data-name="Trazado 145232" d="M563.039,181.783c-.159,0-.3-.084-.3-.187s.14-.2.3-.2.3.093.3.2S563.207,181.783,563.039,181.783Z" transform="translate(-467.959 -116.1)" fill="#eb996e"/>
        <path id="Trazado_145233" data-name="Trazado 145233" d="M568.134,180.593a.338.338,0,0,1-.056-.673h0a.318.318,0,0,1,.327.308h0A.327.327,0,0,1,568.134,180.593Z" transform="translate(-468.288 -116.003)" fill="#eb996e"/>
        <path id="Trazado_145234" data-name="Trazado 145234" d="M594.644,177.483a.308.308,0,0,1-.353-.256l0-.015a.3.3,0,1,1,.589-.121.318.318,0,0,1-.223.39Z" transform="translate(-470.023 -115.8)" fill="#eb996e"/>
        <path id="Trazado_145235" data-name="Trazado 145235" d="M598.425,177.138a.383.383,0,1,1,.245-.483.392.392,0,0,1,.017.081A.346.346,0,0,1,598.425,177.138Z" transform="translate(-470.262 -115.772)" fill="#eb996e"/>
        <path id="Trazado_145236" data-name="Trazado 145236" d="M591.305,177.581a.29.29,0,0,1-.346-.2.3.3,0,0,1,.589-.122A.289.289,0,0,1,591.305,177.581Z" transform="translate(-469.805 -115.813)" fill="#eb996e"/>
        <path id="Trazado_145237" data-name="Trazado 145237" d="M594.092,181.364a.355.355,0,1,1,.1-.492.47.47,0,0,1,.028.052A.327.327,0,0,1,594.092,181.364Z" transform="translate(-469.975 -116.055)" fill="#eb996e"/>
        <path id="Trazado_145238" data-name="Trazado 145238" d="M597.344,180.736a.281.281,0,0,1-.224-.318.308.308,0,0,1,.579.159A.28.28,0,0,1,597.344,180.736Z" transform="translate(-470.209 -116.025)" fill="#eb996e"/>
        <path id="Trazado_145239" data-name="Trazado 145239" d="M537.148,136.267a14.9,14.9,0,0,1,14.887-18.523c2.355.093,4.673.757,7.028.5,4.364-.477,7.729-3.972,11.775-5.673a15.364,15.364,0,0,1,18.121,5.439c1.533,2.29,2.533,5.121,4.888,6.542,2.028,1.243,4.589,1.14,6.869,1.869a11.2,11.2,0,0,1,7.532,11.1,13.2,13.2,0,0,1-8.046,11.1,16.148,16.148,0,0,1-13.925-.935c-3.8-2.121-7.205-5.729-11.56-5.607-4.5.131-8.411,4.374-12.859,3.5-2.318-.458-4.1-2.243-5.8-3.888s-3.645-3.318-6.009-3.458-3.589,3.1-2.738,5.308l-10.158-7.28" transform="translate(-466.254 -111.526)" fill="#263238"/>
        <path id="Trazado_145240" data-name="Trazado 145240" d="M598.049,131.258a1.546,1.546,0,0,1-.084.178,4.913,4.913,0,0,1-.29.486,8.434,8.434,0,0,1-1.449,1.645,9.044,9.044,0,0,1-3,1.738,8.578,8.578,0,0,1-4.57.271,9.092,9.092,0,0,1-4.822-2.748c-1.374-1.5-2.2-3.533-3.477-5.308a7.01,7.01,0,0,0-2.439-2.206,7.139,7.139,0,0,0-3.346-.738,7.591,7.591,0,0,0-3.43.935,6.443,6.443,0,0,0-2.523,2.6c-.607,1.112-1.047,2.327-1.776,3.4a4.168,4.168,0,0,1-3.234,1.963,6.294,6.294,0,0,1-3.514-1.009,13.267,13.267,0,0,1-2.673-2.215c-1.561-1.57-3.093-3.14-5-3.561a6.358,6.358,0,0,0-5.065,1.187,8.684,8.684,0,0,0-2.8,3.439,14.431,14.431,0,0,0-1.047,3.243c-.187.935-.271,1.645-.327,2.14a5.745,5.745,0,0,1-.112.757.691.691,0,0,1,0-.2v-.57a17.6,17.6,0,0,1,.252-2.168,13.821,13.821,0,0,1,.935-3.318,8.926,8.926,0,0,1,2.8-3.607,6.654,6.654,0,0,1,5.355-1.3c2.065.439,3.663,2.084,5.215,3.635a13.357,13.357,0,0,0,2.6,2.131,5.832,5.832,0,0,0,3.252.935,3.738,3.738,0,0,0,2.86-1.757c.682-1.009,1.121-2.215,1.748-3.364a6.908,6.908,0,0,1,2.72-2.8,8.091,8.091,0,0,1,3.654-.981,7.64,7.64,0,0,1,3.57.8,7.477,7.477,0,0,1,2.589,2.355c1.318,1.869,2.1,3.85,3.411,5.308a8.763,8.763,0,0,0,4.6,2.673,8.247,8.247,0,0,0,4.411-.2A8.972,8.972,0,0,0,596,133.417,11.29,11.29,0,0,0,598.049,131.258Z" transform="translate(-466.671 -112.348)" fill="#455a64"/>
        <path id="Trazado_145241" data-name="Trazado 145241" d="M610.391,132a2.82,2.82,0,0,1,.206.935,7.857,7.857,0,0,1-.252,2.7,9.346,9.346,0,0,1-1.869,3.551,10.98,10.98,0,0,1-3.981,2.906,16.323,16.323,0,0,1-8.794.991,24.068,24.068,0,0,1-2.635-.523,3.214,3.214,0,0,1-.935-.318c0-.075,1.374.262,3.617.5a16.993,16.993,0,0,0,8.551-1.093,10.874,10.874,0,0,0,3.841-2.748,9.429,9.429,0,0,0,1.869-3.364A10.708,10.708,0,0,0,610.391,132Z" transform="translate(-469.882 -112.866)" fill="#455a64"/>
        <path id="Trazado_145242" data-name="Trazado 145242" d="M519.64,339.194a10.1,10.1,0,0,0,2.112,5.233c1.084,1.411,3.28,2.8,5.047,2.682a7.7,7.7,0,0,0,6.794-3.411c2.159-3.42,2.682-10.551.935-14.766-1.187-2.9-3.86-5.607-6.99-5.673a7.731,7.731,0,0,0-7.57,5.888" transform="translate(-465.137 -125.385)" fill="#e0e0e0"/>
        <path id="Trazado_145243" data-name="Trazado 145243" d="M519.973,329.135a6.285,6.285,0,0,1,.766-2.019,8.1,8.1,0,0,1,1.542-2.028,7.114,7.114,0,0,1,2.906-1.7,7.364,7.364,0,0,1,1.953-.318,5.872,5.872,0,0,1,2.14.28,8.409,8.409,0,0,1,3.822,2.738,11.113,11.113,0,0,1,2.243,4.673,20.107,20.107,0,0,1,.421,5.542c-.2,2.925-.766,5.841-2.392,8.065a7.169,7.169,0,0,1-3.1,2.336,8.306,8.306,0,0,1-3.5.589h0a5.311,5.311,0,0,1-2.523-.617,8.439,8.439,0,0,1-1.869-1.327,9.344,9.344,0,0,1-2.065-3.065,9.561,9.561,0,0,1-.654-2.271,4.888,4.888,0,0,1-.056-.617.491.491,0,0,1,0-.215,12.225,12.225,0,0,0,.935,3.009,9.646,9.646,0,0,0,2.075,2.925,8.246,8.246,0,0,0,1.869,1.234,4.953,4.953,0,0,0,2.336.551h0a7.477,7.477,0,0,0,6.215-2.8c1.5-2.084,2.084-4.953,2.271-7.813.2-3.738-.421-7.42-2.523-9.906a8.171,8.171,0,0,0-3.6-2.635,5.8,5.8,0,0,0-2.009-.29,7.027,7.027,0,0,0-1.869.271,6.857,6.857,0,0,0-2.8,1.579,8.3,8.3,0,0,0-1.589,1.906A18.835,18.835,0,0,0,519.973,329.135Z" transform="translate(-465.134 -125.372)" fill="#263238"/>
        <path id="Trazado_145244" data-name="Trazado 145244" d="M517.3,339.394a10.13,10.13,0,0,0,2.112,5.233c1.084,1.411,3.28,2.8,5.047,2.682a7.7,7.7,0,0,0,6.794-3.411c2.149-3.43,2.682-10.551.935-14.766-1.187-2.906-3.85-5.607-6.981-5.673a7.728,7.728,0,0,0-7.57,5.878" transform="translate(-464.984 -125.398)" fill="#e0e0e0"/>
        <path id="Trazado_145245" data-name="Trazado 145245" d="M517.653,329.325a6.287,6.287,0,0,1,.766-2.009,7.867,7.867,0,0,1,1.542-2.028,7.18,7.18,0,0,1,4.86-2.019,5.873,5.873,0,0,1,2.14.28,8.356,8.356,0,0,1,3.822,2.738,11.111,11.111,0,0,1,2.243,4.673,19.784,19.784,0,0,1,.411,5.542c-.187,2.925-.757,5.832-2.383,8.065a7.169,7.169,0,0,1-3.1,2.336,8.307,8.307,0,0,1-3.5.589h0a5.3,5.3,0,0,1-2.523-.626,7.868,7.868,0,0,1-1.869-1.318,9.281,9.281,0,0,1-2.065-3.075,8.949,8.949,0,0,1-.654-2.262,4.876,4.876,0,0,1-.056-.617.489.489,0,0,1,0-.215,12.241,12.241,0,0,0,.935,3,9.4,9.4,0,0,0,2.075,2.934,8.243,8.243,0,0,0,1.869,1.234,5.07,5.07,0,0,0,2.336.551h0a7.477,7.477,0,0,0,6.215-2.8c1.5-2.093,2.084-4.953,2.262-7.813.206-3.738-.411-7.42-2.523-9.906a8.016,8.016,0,0,0-3.589-2.635,5.8,5.8,0,0,0-2.009-.29,7.143,7.143,0,0,0-1.869.271,6.884,6.884,0,0,0-2.8,1.579,8.259,8.259,0,0,0-1.57,1.916A20.491,20.491,0,0,0,517.653,329.325Z" transform="translate(-464.982 -125.385)" fill="#263238"/>
        <path id="Trazado_145246" data-name="Trazado 145246" d="M521.148,328.627a4.8,4.8,0,0,0-5.018,2.888,8.339,8.339,0,0,0,0,6.1,7.719,7.719,0,0,0,1.561,2.748,4.154,4.154,0,0,0,2.8,1.355,4.859,4.859,0,0,0,3.888-2.28,8.728,8.728,0,0,0,1.318-7.168c-.43-1.626-1.617-3.28-3.29-3.327" transform="translate(-464.87 -125.734)" fill="#e0e0e0"/>
        <path id="Trazado_145247" data-name="Trazado 145247" d="M522.356,328.971h.364a2.534,2.534,0,0,1,1.019.346,4.954,4.954,0,0,1,2.14,3.215,8.875,8.875,0,0,1-.579,5.719A7.481,7.481,0,0,1,523.207,341a4.065,4.065,0,0,1-3.607.869,5.1,5.1,0,0,1-2.888-2.355,10.53,10.53,0,0,1-1.2-3.234,7.188,7.188,0,0,1,.935-5.607,5.018,5.018,0,0,1,3.262-2.075,3.634,3.634,0,0,1,1.065,0c.234.047.355.084.355.1a7.392,7.392,0,0,0-1.392.084,4.982,4.982,0,0,0-3.009,2.084,6.925,6.925,0,0,0-.776,5.355,10.251,10.251,0,0,0,1.168,3.075,4.619,4.619,0,0,0,2.607,2.131,3.561,3.561,0,0,0,3.177-.766,7.033,7.033,0,0,0,1.981-2.561,8.636,8.636,0,0,0,.654-5.458,4.942,4.942,0,0,0-1.869-3.131A3.951,3.951,0,0,0,522.356,328.971Z" transform="translate(-464.854 -125.732)" fill="#263238"/>
        <path id="Trazado_145248" data-name="Trazado 145248" d="M526.236,344.9c-.065,0-.168-.3-.5-.673a3.44,3.44,0,0,0-1.589-1.019,8.668,8.668,0,0,0-1.963-.308c-.523,0-.85-.084-.86-.15s.318-.14.85-.2a5.485,5.485,0,0,1,2.112.187,3.053,3.053,0,0,1,1.729,1.29C526.32,344.52,526.292,344.894,526.236,344.9Z" transform="translate(-465.248 -126.647)" fill="#263238"/>
        <path id="Trazado_145249" data-name="Trazado 145249" d="M526.986,327.27a1.956,1.956,0,0,1-.579.673,4.5,4.5,0,0,1-1.972.86,4.6,4.6,0,0,1-2.14-.112c-.533-.178-.813-.383-.785-.439a11.045,11.045,0,0,0,2.8.075A11.66,11.66,0,0,0,526.986,327.27Z" transform="translate(-465.26 -125.648)" fill="#263238"/>
      </g>
      <g id="freepik--character-1--inject-8" transform="translate(57.573 117.087)">
        <path id="Trazado_145250" data-name="Trazado 145250" d="M246.995,150.383c.112-4.075-3.645-7.215-7.476-8.71s-8-2.056-11.383-4.327c-2.991-2.019-5-5.159-7.532-7.719a25.075,25.075,0,0,0-42.167,11.5c-1.449,5.794-.458,12.644,4.112,16.5,5.308,4.467,13.168,3.477,19.962,2.084s14.495-2.8,20.167,1.224c3.42,2.411,5.383,6.327,7.476,9.953s4.673,7.317,8.673,8.682,9.345-.991,9.486-5.168" transform="translate(-66.721 -122.165)" fill="#263238"/>
        <path id="Trazado_145251" data-name="Trazado 145251" d="M245.826,153.475c-.449,3.411,2.019,6.467,4.476,8.878s5.233,4.962,5.673,8.411c.5,3.991-2.411,7.916-1.561,11.85.533,2.5,2.477,4.411,3.654,6.682a14.243,14.243,0,0,1,.72,10.458c-1.009,3.439-2.626,11.112-5.019,13.785-6.607,7.383-17.121,13.756-26.775,15.971s-19.691,2.234-29.578,1.626c-8.093-.5-17.411-.121-24.158-11.261-3.5-5.775-5.224-13.439-7.074-19.924-1.607-5.607-2.991-11.56-1.327-17.13.935-3.234,2.925-6.121,3.878-9.345,1.2-4.056.757-8.411,1.234-12.588a28.886,28.886,0,0,1,41.12-22.812" transform="translate(-65.824 -123.022)" fill="#263238"/>
        <path id="Trazado_145252" data-name="Trazado 145252" d="M174.473,167.991c.757-11.616,8.486-25.859,20.065-24.607l36.129,9.215a6.832,6.832,0,0,1,6.084,6.925L232.686,246.7l.252.047s-8.233,24.588-32.13,17.083c-4.738-1.5-6.906-6.673-7.841-12.009h-.243v-1.869a57.211,57.211,0,0,1-.14-11.971h0c-.065-7.037-.056-9.915-.065-9.85s-14.841-2.5-17.868-21.878C173.109,196.691,173.632,180.9,174.473,167.991Z" transform="translate(-66.45 -123.549)" fill="#ffbe9d"/>
        <path id="Trazado_145253" data-name="Trazado 145253" d="M180.76,182.053a2.476,2.476,0,0,0,2.383,2.514,2.382,2.382,0,0,0,2.566-2.184l0-.05a2.486,2.486,0,0,0-2.392-2.514A2.374,2.374,0,0,0,180.764,182Z" transform="translate(-66.914 -125.938)" fill="#263238"/>
        <path id="Trazado_145254" data-name="Trazado 145254" d="M178.167,178.338c.308.327,2.2-1.065,4.869-1.056s4.673,1.355,4.925,1.028c.14-.14-.178-.729-1.028-1.346A6.732,6.732,0,0,0,183,175.74a6.546,6.546,0,0,0-3.878,1.234C178.3,177.609,178.008,178.188,178.167,178.338Z" transform="translate(-66.742 -125.672)" fill="#263238"/>
        <path id="Trazado_145255" data-name="Trazado 145255" d="M208.87,182.053a2.485,2.485,0,0,0,2.392,2.514,2.374,2.374,0,0,0,2.557-2.176l0-.058a2.476,2.476,0,0,0-2.383-2.514,2.374,2.374,0,0,0-2.565,2.165C208.873,182.007,208.871,182.031,208.87,182.053Z" transform="translate(-68.754 -125.938)" fill="#263238"/>
        <path id="Trazado_145256" data-name="Trazado 145256" d="M206.287,178.928c.308.327,2.2-1.056,4.869-1.047s4.626,1.355,4.916,1.028c.14-.15-.168-.729-1.028-1.355a6.853,6.853,0,0,0-3.934-1.224,6.542,6.542,0,0,0-3.869,1.243C206.418,178.2,206.138,178.825,206.287,178.928Z" transform="translate(-68.582 -125.71)" fill="#263238"/>
        <path id="Trazado_145257" data-name="Trazado 145257" d="M195.388,198.741c0-.15-1.645-.439-4.336-.794-.682-.065-1.327-.206-1.449-.673a3.455,3.455,0,0,1,.467-2.019l2.028-5.2c2.8-7.392,4.86-13.476,4.561-13.579s-2.8,5.785-5.607,13.186q-1.028,2.729-1.944,5.224a3.924,3.924,0,0,0-.364,2.673,1.72,1.72,0,0,0,1.121,1,4.761,4.761,0,0,0,1.159.168C193.7,198.881,195.379,198.9,195.388,198.741Z" transform="translate(-67.431 -125.72)" fill="#263238"/>
        <path id="Trazado_145258" data-name="Trazado 145258" d="M193.81,233.669a49.232,49.232,0,0,0,25.952-6.869s-6.542,13.392-25.934,11.542Z" transform="translate(-67.768 -129.014)" fill="#eb996e"/>
        <path id="Trazado_145259" data-name="Trazado 145259" d="M197.041,207.073a4.794,4.794,0,0,1,4.318-1.776,4.373,4.373,0,0,1,3.037,1.635,2.8,2.8,0,0,1,.2,3.177,3.2,3.2,0,0,1-3.5.878,10.157,10.157,0,0,1-3.411-2.047,2.754,2.754,0,0,1-.757-.785.934.934,0,0,1,0-1" transform="translate(-67.962 -127.604)" fill="#eb996e"/>
        <path id="Trazado_145260" data-name="Trazado 145260" d="M203.672,202.3c-.43,0-.439,2.878-2.934,4.925s-5.607,1.729-5.607,2.14c0,.178.692.561,1.991.6a7.206,7.206,0,0,0,4.673-1.617,6.289,6.289,0,0,0,2.271-4.131C204.2,203,203.877,202.281,203.672,202.3Z" transform="translate(-67.855 -127.41)" fill="#263238"/>
        <path id="Trazado_145261" data-name="Trazado 145261" d="M205,173.96c.262.729,2.934.393,6.065.776s5.673,1.243,6.093.6c.187-.308-.252-1-1.28-1.7a9.98,9.98,0,0,0-4.5-1.589,10.145,10.145,0,0,0-4.747.542C205.476,173.054,204.9,173.615,205,173.96Z" transform="translate(-68.5 -125.425)" fill="#263238"/>
        <path id="Trazado_145262" data-name="Trazado 145262" d="M179.235,170.05c.477.607,2.318,0,4.533,0s4.084.411,4.523-.215c.187-.308-.112-.935-.935-1.5a6.542,6.542,0,0,0-7.289.206C179.291,169.134,179.01,169.76,179.235,170.05Z" transform="translate(-66.809 -125.121)" fill="#263238"/>
        <path id="Trazado_145263" data-name="Trazado 145263" d="M245.339,216.037a17.2,17.2,0,0,1-20.457-19.018c.6-4.757,3.168-9.6,1.514-14.1-2.177-5.953-10.523-7.785-12.738-13.728-1.29-3.448-.131-7.476-1.589-10.869-1.374-3.187-4.719-5.018-7.981-6.2s-6.747-1.991-9.486-4.112-4.439-6.14-2.673-9.121a183.171,183.171,0,0,1,42.316,10.28c3.168,1.178,6.486,2.6,8.355,5.411,1.981,2.972,1.869,6.813,1.72,10.383l-2.439,52.166" transform="translate(-67.598 -123.26)" fill="#263238"/>
        <path id="Trazado_145264" data-name="Trazado 145264" d="M244.037,222a2.212,2.212,0,0,0,.318-.2l.86-.654c.748-.589,1.869-1.458,3.205-2.663a33.1,33.1,0,0,0,4.551-4.785,17.868,17.868,0,0,0,3.626-7.981,12.149,12.149,0,0,0-2.5-10.187,38.953,38.953,0,0,0-4.514-3.85,10.477,10.477,0,0,1-3.523-4.785c-1.43-3.944-.794-8.514-1.346-13.186a26.225,26.225,0,0,0-5.5-13.345,18.034,18.034,0,0,0-5.738-4.673,35.069,35.069,0,0,0-6.775-2.28,15.8,15.8,0,0,1-5.953-2.934,23.6,23.6,0,0,1-4.318-4.757c-2.43-3.458-4.233-7.14-6.542-10.215a21.889,21.889,0,0,0-3.813-4.047A14.636,14.636,0,0,0,201.562,129a9.665,9.665,0,0,0-8.607.86,7.934,7.934,0,0,0-3.056,5.794,5.813,5.813,0,0,0,1.168,3.99,3.722,3.722,0,0,0,.785.757,1.342,1.342,0,0,0,.318.206,2.112,2.112,0,0,0-.262-.271,4.3,4.3,0,0,1-.7-.794,5.7,5.7,0,0,1-.935-3.86,7.6,7.6,0,0,1,3-5.439,9.158,9.158,0,0,1,8.131-.673,14.026,14.026,0,0,1,4.308,2.4,22.256,22.256,0,0,1,3.663,3.962c2.243,3.019,4.009,6.7,6.476,10.28a24.046,24.046,0,0,0,4.448,4.944,16.4,16.4,0,0,0,6.14,3.037,34.392,34.392,0,0,1,6.626,2.243,17.272,17.272,0,0,1,5.476,4.486,25.409,25.409,0,0,1,5.346,12.9c.57,4.514-.084,9.159,1.439,13.355a11.338,11.338,0,0,0,3.738,5.112,39.508,39.508,0,0,1,4.458,3.738,11.522,11.522,0,0,1,2.43,9.626,17.509,17.509,0,0,1-3.4,7.785,35.831,35.831,0,0,1-4.4,4.832c-1.318,1.234-2.383,2.14-3.093,2.8A11.475,11.475,0,0,0,244.037,222Z" transform="translate(-67.511 -122.57)" fill="#455a64"/>
        <path id="Trazado_145265" data-name="Trazado 145265" d="M250.884,231.022c3.981-3.85,10.775-.5,14.121,3.906s5.71,10.112,10.785,12.336,11.663.308,15.887,3.841c5.869,4.878,2.57,16.177,8.925,20.42,2.514,1.682,5.841,1.626,8.532,3.009,6.346,3.271,6.271,12.224,5.289,19.3-1.336,9.953-2.85,20.233-8.327,28.644s-16.14,14.289-25.616,11.056c-9.112-3.112-13.794-12.943-17.5-21.831q-7.682-18.486-15.383-36.886c-2.963-7.112-5.962-14.336-6.925-21.98s.327-15.887,5.2-21.887" transform="translate(-70.816 -129.18)" fill="#263238"/>
        <path id="Trazado_145266" data-name="Trazado 145266" d="M253.61,222.057c2.888-.346,5.1,3.2,4.336,6.009s-3.458,4.673-6.215,5.607a9.269,9.269,0,0,1-4.794.551A4.674,4.674,0,0,1,243.3,231.3a2.748,2.748,0,0,1,1.327-3.635c1.869-1.187,3.019-2.121,4.523-2.953,2.3-1.262,2.159-1.43,4.458-2.7" transform="translate(-70.991 -128.7)" fill="#7e5ee3"/>
        <path id="Trazado_145267" data-name="Trazado 145267" d="M182.651,254.624l11.233-8.514,42.344-2.71,1.7,5.682-13.775,85.941,10.869,102.538H175.95Z" transform="translate(-66.599 -130.101)" fill="#7e5ee3"/>
        <g id="Grupo_73246" data-name="Grupo 73246" transform="translate(111.977 265.574)" opacity="0.3">
          <path id="Trazado_145268" data-name="Trazado 145268" d="M228.169,411.854c-1.355-1.449-3.57-3.43-5.542-3.476-14.149-.308-28.588-1.72-42.737-2.037l-1.131,41.9c3.383-5.962,6.589-12.149,7.476-18.971.393-2.972.935-6.542,3.6-7.794,1.533-.72,3.336-.439,4.99-.1,5.112,1.009,10.187,2.327,15.383,2.654s10.644-.439,15.009-3.28a9.2,9.2,0,0,0,3.589-3.878A4.756,4.756,0,0,0,228.169,411.854Z" transform="translate(-178.76 -406.34)"/>
        </g>
        <path id="Trazado_145269" data-name="Trazado 145269" d="M192.808,255.861l-1.318-12.289a3.906,3.906,0,0,1,3.476-4.293l.056-.006,38.97-3.523A1.869,1.869,0,0,1,236,237.471l0,.054.439,14.626L225.153,271.3l-11.6,3.691H199.369l-8.159-8.71Z" transform="translate(-67.598 -129.599)" fill="#7e5ee3"/>
        <path id="Trazado_145270" data-name="Trazado 145270" d="M230.731,248.241a13.241,13.241,0,0,1-1.561-.159,28.08,28.08,0,0,0-4.243-.075,41.162,41.162,0,0,0-6.243.935c-2.327.486-4.86,1.168-7.542,1.822a49,49,0,0,1-7.673,1.364,19.829,19.829,0,0,1-6.364-.43,13.21,13.21,0,0,1-3.962-1.645,9.5,9.5,0,0,1-.935-.692c-.206-.168-.308-.271-.29-.28s.458.308,1.336.8a14.505,14.505,0,0,0,3.953,1.477,20.147,20.147,0,0,0,6.243.318,51.64,51.64,0,0,0,7.6-1.392c2.673-.645,5.215-1.318,7.56-1.785a37.629,37.629,0,0,1,6.318-.8,22.636,22.636,0,0,1,4.29.224q.757.13,1.149.224C230.6,248.185,230.741,248.222,230.731,248.241Z" transform="translate(-67.644 -130.381)" fill="#263238"/>
        <g id="Grupo_73247" data-name="Grupo 73247" transform="translate(125.439 117.502)" opacity="0.3">
          <path id="Trazado_145271" data-name="Trazado 145271" d="M193.861,250.189c-1.047,2.869-1.075,6.42,1.047,8.617a7.592,7.592,0,0,0,6.934,1.757,21.866,21.866,0,0,0,6.775-3.047c5.364-3.187,10.822-6.5,16.915-7.85a2.163,2.163,0,0,0,1.093-.458.719.719,0,0,0,.039-1.017l-.039-.039a1.02,1.02,0,0,0-.5-.14c-5.392-.542-10.747.935-16.027,2.168s-10.934,2.028-16.027.187" transform="translate(-193.165 -247.897)"/>
        </g>
        <path id="Trazado_145272" data-name="Trazado 145272" d="M201.714,239.1a3.589,3.589,0,0,0-1.336,1.271c-.617.991-.579,2.673-.533,4.486.1,3.635.7,6.542.561,6.542a6.353,6.353,0,0,1-.533-1.869,29.492,29.492,0,0,1-.514-4.673,21.675,21.675,0,0,1,.056-2.607,4.5,4.5,0,0,1,.673-2.065,2.7,2.7,0,0,1,1.093-.981C201.508,239.071,201.7,239.071,201.714,239.1Z" transform="translate(-68.13 -129.818)" fill="#263238"/>
        <path id="Trazado_145273" data-name="Trazado 145273" d="M212.783,249.708a56.351,56.351,0,0,0-.28-5.944c-.449-3.262-1.533-5.738-1.383-5.794a5.125,5.125,0,0,1,.794,1.579,19.318,19.318,0,0,1,1.075,4.14,18.954,18.954,0,0,1,.121,4.28A5.238,5.238,0,0,1,212.783,249.708Z" transform="translate(-68.9 -129.745)" fill="#263238"/>
        <path id="Trazado_145274" data-name="Trazado 145274" d="M226.28,236.86a3.842,3.842,0,0,1,.738,1.449,10.232,10.232,0,0,1,.514,3.9,10.069,10.069,0,0,1-1.028,3.8,3.734,3.734,0,0,1-.935,1.336,12.9,12.9,0,0,0,.7-10.486Z" transform="translate(-69.847 -129.672)" fill="#263238"/>
        <path id="Trazado_145275" data-name="Trazado 145275" d="M165.029,261.33s-13.289,8.9-16.822,24.971c-2.748,12.635-10.28,79.38-10.28,79.38L124.76,391.306l8.6,20.448h0a31.438,31.438,0,0,0,20.653-5.9l5.785-4.205L170.4,385.923Z" transform="translate(-63.248 -131.274)" fill="#ebebeb"/>
        <path id="Trazado_145276" data-name="Trazado 145276" d="M189.2,248.71,166.674,260.5l-5.318,17.467-4.738,50.643,8.916,59.372L149.89,437.731l26.98.2.645-29.158,2.691-94.389,2.645-60.128Z" transform="translate(-64.893 -130.448)" fill="#ebebeb"/>
        <path id="Trazado_145277" data-name="Trazado 145277" d="M179.727,327.766a5.126,5.126,0,0,1-.421-.71l-1.121-2.065c-.467-.935-.935-2.075-1.5-3.4-.271-.673-.5-1.411-.776-2.187s-.57-1.6-.8-2.477c-2.121-7-3.523-17.1-3.224-28.242,0-.86.065-1.71.121-2.561v-.15l.14-.056,3.944-1.663-.056.411-3.944-3.168-.084-.065v-.093a34.092,34.092,0,0,1,1.794-11.261c.991-3.3,2.075-6.14,3.028-8.476s1.785-4.159,2.374-5.392c.3-.626.533-1.1.692-1.411a3.194,3.194,0,0,1,.271-.477,2.27,2.27,0,0,1-.2.5l-.626,1.449c-.542,1.252-1.327,3.093-2.243,5.439s-1.963,5.187-2.916,8.476a34.2,34.2,0,0,0-1.71,11.112l-.093-.159,3.953,3.149.308.252-.364.159-3.944,1.663.15-.206c-.056.832-.093,1.682-.121,2.542-.29,11.093,1.047,21.149,3.075,28.12.215.888.5,1.7.757,2.477s.477,1.523.748,2.2c.551,1.327.935,2.5,1.421,3.411l1.028,2.1A6.212,6.212,0,0,1,179.727,327.766Z" transform="translate(-66.33 -130.815)" fill="#263238"/>
        <path id="Trazado_145278" data-name="Trazado 145278" d="M161.033,365.638a6.851,6.851,0,0,1-.215-.729q-.2-.795-.533-2.131c-.234-.935-.5-2.056-.757-3.374s-.607-2.8-.869-4.514-.617-3.514-.869-5.5-.5-4.112-.738-6.346c-.411-4.486-.682-9.43-.682-14.626s.308-10.14.729-14.616c.252-2.234.467-4.364.776-6.346s.579-3.822.878-5.5.617-3.177.935-4.5.542-2.458.776-3.374.4-1.6.542-2.121a5.47,5.47,0,0,1,.215-.738,4.331,4.331,0,0,1-.121.757l-.449,2.14c-.206.935-.458,2.065-.692,3.392s-.57,2.8-.822,4.514-.579,3.5-.813,5.486-.5,4.1-.729,6.327c-.393,4.476-.673,9.4-.692,14.588s.262,10.1.635,14.579c.234,2.224.421,4.355.7,6.327s.533,3.822.8,5.5.561,3.187.794,4.514.477,2.467.682,3.392.336,1.607.439,2.14A3.61,3.61,0,0,1,161.033,365.638Z" transform="translate(-65.317 -133.231)" fill="#263238"/>
        <path id="Trazado_145279" data-name="Trazado 145279" d="M167.125,419.63a9.62,9.62,0,0,1-1.093,2.271,36.668,36.668,0,0,1-3.448,5,36.121,36.121,0,0,1-4.224,4.364,10.126,10.126,0,0,1-2.009,1.523,17.894,17.894,0,0,1,1.776-1.776,50.933,50.933,0,0,0,7.617-9.289A18.014,18.014,0,0,1,167.125,419.63Z" transform="translate(-65.316 -141.636)" fill="#263238"/>
        <path id="Trazado_145280" data-name="Trazado 145280" d="M274.28,259.682a31,31,0,0,1,19.009,22.055c7.374,32.485,19.981,75.7,20.186,89.651.243,17.756-7.476,29.905-17.654,32.148-8.018,1.776-80.67-2.206-80.67-2.206l-3.4-27.1,58.876-8.663-8.056-44.933,7.972-62.353Z" transform="translate(-68.943 -131.074)" fill="#ebebeb"/>
        <path id="Trazado_145281" data-name="Trazado 145281" d="M271.455,257.06l-16.27-6.645L238.036,240.36l-.1,2.944h0A17.255,17.255,0,0,1,240,255.229l-14.3,74.446,3.234,54.4,6.645,53.269h51.6L263.484,381.6l8.364-75.128Z" transform="translate(-69.856 -129.902)" fill="#ebebeb"/>
        <path id="Trazado_145282" data-name="Trazado 145282" d="M285.6,411.473l-.355.047-1.037.1c-.935.093-2.271.084-4.028.131-3.5,0-8.579-.075-14.906-.28-12.644-.421-30.242-1.271-50.12-2.42h-.2v-.206c-.4-3.224-.832-6.626-1.262-10.074-.738-5.841-1.449-11.542-2.131-16.99v-.234h.224l44.933-6.542,13.2-1.869,3.542-.477.935-.121h.318l-.308.065-.935.159-3.533.561-13.168,2.009-44.858,6.7.2-.271c.692,5.458,1.411,11.149,2.14,16.99.439,3.458.86,6.86,1.262,10.084l-.224-.206c19.868,1.159,37.475,2.065,50.11,2.579,6.317.243,11.392.383,14.887.43,1.748,0,3.112,0,4.019-.056l1.037-.056Z" transform="translate(-68.931 -138.554)" fill="#263238"/>
        <path id="Trazado_145283" data-name="Trazado 145283" d="M265.617,320.08a1.921,1.921,0,0,1,.131.5c.075.383.168.85.28,1.439.243,1.318.57,3.121.935,5.318.794,4.561,1.869,10.738,3.065,17.569s2.168,13.028,2.934,17.6c.346,2.206.626,4.009.832,5.336.084.589.15,1.075.206,1.458a2.148,2.148,0,0,1,0,.514,1.8,1.8,0,0,1-.14-.5c-.075-.383-.168-.86-.29-1.439-.243-1.327-.579-3.121-.991-5.318-.813-4.5-1.869-10.7-3.065-17.569s-2.206-13.084-2.925-17.6c-.336-2.206-.617-4.019-.822-5.346q-.112-.879-.2-1.458A2.37,2.37,0,0,1,265.617,320.08Z" transform="translate(-72.465 -135.12)" fill="#263238"/>
        <path id="Trazado_145284" data-name="Trazado 145284" d="M245.634,246a.451.451,0,0,0,.065.187l.15.542c.121.486.327,1.187.523,2.121a67.958,67.958,0,0,1,1.234,8.009,89.557,89.557,0,0,1,.308,12.224c-.159,4.673-.645,9.785-1.346,15.233v.168H246.4l-5.355.991.178-.327c.308.822.617,1.7.86,2.607a33.136,33.136,0,0,1-.607,18.046,56.5,56.5,0,0,1-6.243,13.457c-2.224,3.607-4.224,6.374-5.607,8.289l-1.617,2.187c-.168.234-.318.411-.43.561a.761.761,0,0,1-.159.187s0-.075.121-.215l.393-.589c.374-.542.935-1.29,1.533-2.243,1.336-1.944,3.3-4.738,5.467-8.355a57.667,57.667,0,0,0,6.112-13.4,32.766,32.766,0,0,0,.57-17.756,26.449,26.449,0,0,0-.841-2.561l-.1-.271.29-.056,5.318-.981-.2.206c.71-5.43,1.224-10.551,1.4-15.186a93.954,93.954,0,0,0-.2-12.149,74.515,74.515,0,0,0-1.093-8.009c-.168-.935-.355-1.645-.439-2.131-.047-.224-.084-.4-.112-.551A.615.615,0,0,1,245.634,246Z" transform="translate(-69.968 -130.271)" fill="#263238"/>
        <path id="Trazado_145285" data-name="Trazado 145285" d="M246.6,326.692V314.832s.15-2.925-2.318-2.308-2.009,5.243-2.009,5.243-.458,18.046.617,17.9,1.5-1.542,1.5-1.542v-6.944Z" transform="translate(-70.934 -134.62)" fill="#7e5ee3"/>
        <path id="Trazado_145286" data-name="Trazado 145286" d="M257,328.461a41.02,41.02,0,0,1-6.364.243,41.02,41.02,0,0,1-6.364-.243,42.455,42.455,0,0,1,6.364-.243A42.455,42.455,0,0,1,257,328.461Z" transform="translate(-71.071 -135.651)" fill="#263238"/>
        <path id="Trazado_145287" data-name="Trazado 145287" d="M281.687,267.32a8.713,8.713,0,0,1-1.327.5,29.946,29.946,0,0,0-3.533,1.523,27.472,27.472,0,0,0-9.551,8.14,20.352,20.352,0,0,0-1.869,3.056,19.78,19.78,0,0,0-1.121,3.14,30.962,30.962,0,0,0-.935,5.607c-.131,1.617-.159,2.944-.168,3.85a12,12,0,0,1,0,1.421,5.749,5.749,0,0,1-.187-1.364,33.973,33.973,0,0,1,0-3.878,28.864,28.864,0,0,1,.85-5.7,19.7,19.7,0,0,1,1.131-3.234,20.838,20.838,0,0,1,1.916-3.14,26.392,26.392,0,0,1,9.794-8.159,24.321,24.321,0,0,1,3.617-1.4A6.992,6.992,0,0,1,281.687,267.32Z" transform="translate(-72.293 -131.666)" fill="#263238"/>
        <path id="Trazado_145288" data-name="Trazado 145288" d="M58.94,372.99l85,31.475,71.651,10.953L130.4,373.887Z" transform="translate(-58.94 -138.583)" fill="#263238"/>
        <path id="Trazado_145289" data-name="Trazado 145289" d="M97.452,408.013a36.187,36.187,0,0,0-4.542-12.878,9.356,9.356,0,0,1-1.159-2.42,2.75,2.75,0,0,1,.477-2.533c1.093-1.187,3.084-.664,4.43.234a15.567,15.567,0,0,1,5.719,8.018,46.525,46.525,0,0,1,1.869,9.822" transform="translate(-61.08 -139.663)" fill="#ffbe9d"/>
        <path id="Trazado_145290" data-name="Trazado 145290" d="M130.736,399.595h-4.224a8.279,8.279,0,0,0-3.738-2.131,2.936,2.936,0,0,0-2.8,1.093c1.869-3.112,3.925-6.542,4.318-7.476.757-1.822-.935-3.187-3.654-3.187s-14.756,17.037-14.756,17.037,7.476-13.71,8.2-15.8c1.813-5.233-3.916-5.607-5.99-3.093-2.579,3.131-13,18.9-13,18.9s-1.981,3.2-.617,6.233,5.327,1.869,5.327,1.869a5.1,5.1,0,0,0,2.8,4.224c3.047,1.7,7.065-.271,7.065-.271l15.579,3.5,5.607-.561a17.27,17.27,0,0,0,15.364-14.654h0Z" transform="translate(-61.234 -139.338)" fill="#ffbe9d"/>
        <path id="Trazado_145291" data-name="Trazado 145291" d="M121.423,399.28c.178.112-1.869,3.364-4.579,7.271-1.346,1.953-2.589,3.738-3.514,4.953a12.351,12.351,0,0,1-1.57,1.963,12.665,12.665,0,0,1,1.29-2.159c.85-1.3,2.047-3.084,3.392-5.037s2.579-3.738,3.477-4.972L121,399.813A3.791,3.791,0,0,1,121.423,399.28Z" transform="translate(-62.397 -140.304)" fill="#eb996e"/>
        <path id="Trazado_145292" data-name="Trazado 145292" d="M121.1,416.641a15.381,15.381,0,0,1,1.383-2.542c.935-1.533,2.224-3.617,3.663-5.934.72-1.149,1.411-2.252,1.972-3.271a3.785,3.785,0,0,0,.346-2.888,7.181,7.181,0,0,0-1.327-2.477,2.511,2.511,0,0,1,.6.5,4.834,4.834,0,0,1,1.056,1.869,4.045,4.045,0,0,1-.271,3.187c-.561,1.056-1.243,2.168-1.953,3.327-1.449,2.318-2.8,4.374-3.794,5.86A20.372,20.372,0,0,1,121.1,416.641Z" transform="translate(-63.009 -140.32)" fill="#eb996e"/>
        <path id="Trazado_145293" data-name="Trazado 145293" d="M129.711,418.618a8.719,8.719,0,0,1,.832-2.42l1.112-2.542a20.722,20.722,0,0,0,1.14-3.131,3.681,3.681,0,0,0-.5-3.037,2.866,2.866,0,0,0-1.112-.794,3.083,3.083,0,0,0-1.159-.327,4.685,4.685,0,0,0-1.673.589,1.99,1.99,0,0,1-.635.262,4.277,4.277,0,0,1,.542-.43,7.815,7.815,0,0,1,.7-.421,2.76,2.76,0,0,1,1.065-.346,3.44,3.44,0,0,1,1.327.3,3.158,3.158,0,0,1,1.29.878,4.009,4.009,0,0,1,.617,3.43,17.952,17.952,0,0,1-1.206,3.215c-.439.935-.86,1.785-1.206,2.5A24.128,24.128,0,0,1,129.711,418.618Z" transform="translate(-63.442 -140.745)" fill="#eb996e"/>
        <path id="Trazado_145294" data-name="Trazado 145294" d="M132.92,403.76a1.661,1.661,0,0,1,.654.2,7.639,7.639,0,0,1,1.626.935,8.86,8.86,0,0,1,2.514,11.271,7.64,7.64,0,0,1-1.056,1.561c-.3.327-.5.477-.514.458a13.619,13.619,0,0,0,1.262-2.168,9.009,9.009,0,0,0-2.42-10.85A22.393,22.393,0,0,0,132.92,403.76Z" transform="translate(-63.783 -140.597)" fill="#eb996e"/>
        <path id="Trazado_145295" data-name="Trazado 145295" d="M103.1,394.19a45.678,45.678,0,0,1-3.523,5.607,44.956,44.956,0,0,1-3.916,5.43,44.914,44.914,0,0,1,3.514-5.607A45.488,45.488,0,0,1,103.1,394.19Z" transform="translate(-61.344 -139.971)" fill="#eb996e"/>
        <path id="Trazado_145296" data-name="Trazado 145296" d="M207.525,382.508l-9.719-2.2-9.345-8.794a6.68,6.68,0,0,0-4.168-1.794l-16.981-.935a6.6,6.6,0,0,0-4.673,1.551L150.49,380.62l53,25.747,7.271.645Z" transform="translate(-64.933 -138.307)" fill="#ffbe9d"/>
        <path id="Trazado_145297" data-name="Trazado 145297" d="M179.278,378.55c0,.075-1.252-.15-3.271-.411a13.715,13.715,0,0,0-7.691.8,19.87,19.87,0,0,0-3.663,2.29c-1.075.8-2.037,1.551-2.888,2.121a15.47,15.47,0,0,1-2.1,1.224,3.044,3.044,0,0,1-.832.308c0-.075,1.112-.589,2.738-1.813.813-.6,1.748-1.374,2.8-2.206a19.248,19.248,0,0,1,3.738-2.374,11,11,0,0,1,4.336-.935,19.342,19.342,0,0,1,3.6.28,22.54,22.54,0,0,1,2.374.486A2.617,2.617,0,0,1,179.278,378.55Z" transform="translate(-65.479 -138.882)" fill="#eb996e"/>
        <path id="Trazado_145298" data-name="Trazado 145298" d="M183.607,388.685c0,.075-.692-.234-1.869-.346a9.667,9.667,0,0,0-4.364.607,22.48,22.48,0,0,0-4,2.047,8.338,8.338,0,0,1-1.654.935,6.807,6.807,0,0,1,1.458-1.215,17.243,17.243,0,0,1,4.028-2.215,8.929,8.929,0,0,1,4.579-.5A3.471,3.471,0,0,1,183.607,388.685Z" transform="translate(-66.322 -139.559)" fill="#eb996e"/>
        <path id="Trazado_145299" data-name="Trazado 145299" d="M207.371,389.805c-.121.075-1.486-1.963-3.29-4.374a53.222,53.222,0,0,1-3.252-4.4,21.785,21.785,0,0,1,3.635,4.112A21.44,21.44,0,0,1,207.371,389.805Z" transform="translate(-68.227 -139.109)" fill="#eb996e"/>
        <path id="Trazado_145300" data-name="Trazado 145300" d="M178.754,368.166l21.494-20.046a2.056,2.056,0,0,0,.108-2.905,2.118,2.118,0,0,0-.258-.235h0a2.056,2.056,0,0,0-2.626.1L172.24,367.718" transform="translate(-66.356 -136.722)" fill="#7e5ee3"/>
        <g id="Grupo_73248" data-name="Grupo 73248" transform="translate(105.884 207.834)" opacity="0.3">
          <path id="Trazado_145301" data-name="Trazado 145301" d="M178.754,368.166l21.494-20.046a2.056,2.056,0,0,0,.108-2.905,2.118,2.118,0,0,0-.258-.235h0a2.056,2.056,0,0,0-2.626.1L172.24,367.718" transform="translate(-172.24 -344.556)"/>
        </g>
      </g>
      <g id="freepik--character-2--inject-8" transform="translate(267.323 108.225)">
        <path id="Trazado_145302" data-name="Trazado 145302" d="M366.556,163.045c-.336-.131-13.373-3.551-12.588,9.635s13.859,9.673,13.869,9.289S366.556,163.045,366.556,163.045Z" transform="translate(-288 -115.946)" fill="#b78876"/>
        <path id="Trazado_145303" data-name="Trazado 145303" d="M363.743,177.532c-.065-.047-.224.168-.6.374a2.279,2.279,0,0,1-1.72.131c-1.421-.421-2.729-2.561-2.934-4.934a7.7,7.7,0,0,1,.411-3.28,2.652,2.652,0,0,1,1.626-1.869,1.169,1.169,0,0,1,1.392.551c.2.355.131.626.2.645s.271-.243.131-.776a1.415,1.415,0,0,0-.57-.794,1.7,1.7,0,0,0-1.29-.262,3.224,3.224,0,0,0-2.271,2.187,7.68,7.68,0,0,0-.579,3.738c.243,2.654,1.757,5.056,3.691,5.5a2.466,2.466,0,0,0,2.084-.477C363.734,177.85,363.79,177.551,363.743,177.532Z" transform="translate(-288.233 -116.256)" fill="#aa6550"/>
        <path id="Trazado_145304" data-name="Trazado 145304" d="M402.66,112.69c6.7,0,13.523,0,21.906,4.383,5.29,2.8,8.579,7.131,11.336,12.42a28.6,28.6,0,0,1,3.121,13.915c-.243,4.561-.262,7.747-2.084,11.934" transform="translate(-291.189 -112.682)" fill="#263238"/>
        <path id="Trazado_145305" data-name="Trazado 145305" d="M397.476,113.794a35.512,35.512,0,0,1,37.947,32.9c.016.23.03.459.042.689.86,16.513,1.617,34.372,1.439,43.363-.393,19.308-19.728,22.158-19.728,22.158s.43,5.719.935,12.822a25.438,25.438,0,0,1-23.7,27.064c-.236.016-.473.028-.709.037h0a25.421,25.421,0,0,1-26.372-24.431v-.036l-2.869-77.81A35.513,35.513,0,0,1,397.5,113.775Z" transform="translate(-288.687 -112.748)" fill="#b78876"/>
        <path id="Trazado_145306" data-name="Trazado 145306" d="M419.135,219.315s-11.869.617-24.765-7.635c0,0,5.841,14.018,25.111,12.467Z" transform="translate(-290.647 -119.162)" fill="#aa6550"/>
        <path id="Trazado_145307" data-name="Trazado 145307" d="M432.136,161.054a2.748,2.748,0,0,1-2.673,2.8,2.626,2.626,0,0,1-2.8-2.44c0-.021,0-.043,0-.064a2.8,2.8,0,0,1,2.673-2.8,2.636,2.636,0,0,1,2.8,2.459Z" transform="translate(-292.76 -115.684)" fill="#263238"/>
        <path id="Trazado_145308" data-name="Trazado 145308" d="M434.627,156.844c-.346.355-2.421-1.206-5.392-1.224s-5.149,1.458-5.467,1.093c-.159-.168.2-.813,1.15-1.5a7.477,7.477,0,0,1,4.383-1.308,7.173,7.173,0,0,1,4.28,1.421C434.487,156.031,434.8,156.685,434.627,156.844Z" transform="translate(-292.568 -115.38)" fill="#263238"/>
        <path id="Trazado_145309" data-name="Trazado 145309" d="M401.006,161.054a2.747,2.747,0,0,1-2.682,2.8,2.635,2.635,0,0,1-2.8-2.459l0-.046a2.8,2.8,0,0,1,2.682-2.8,2.644,2.644,0,0,1,2.8,2.477Z" transform="translate(-290.722 -115.684)" fill="#263238"/>
        <path id="Trazado_145310" data-name="Trazado 145310" d="M403.416,157.194c-.346.355-2.43-1.206-5.392-1.224s-5.149,1.449-5.476,1.084c-.15-.159.2-.813,1.159-1.5a7.557,7.557,0,0,1,4.383-1.308,7.3,7.3,0,0,1,4.28,1.421C403.248,156.381,403.585,157.026,403.416,157.194Z" transform="translate(-290.525 -115.402)" fill="#263238"/>
        <path id="Trazado_145311" data-name="Trazado 145311" d="M415.426,179.268c0-.168,1.869-.467,4.822-.832.757-.075,1.477-.215,1.607-.729a3.791,3.791,0,0,0-.486-2.252c-.692-1.869-1.43-3.738-2.2-5.785-3.047-8.243-5.243-15.009-4.906-15.13s3.075,6.458,6.112,14.7c.738,2.028,1.439,3.962,2.1,5.822a4.382,4.382,0,0,1,.374,2.972,1.956,1.956,0,0,1-1.262,1.1,5.74,5.74,0,0,1-1.28.168C417.3,179.464,415.436,179.464,415.426,179.268Z" transform="translate(-291.947 -115.421)" fill="#263238"/>
        <path id="Trazado_145312" data-name="Trazado 145312" d="M406.115,183.15c.486,0,.458,3.2,3.2,5.5s6.177,1.981,6.2,2.43c0,.206-.776.626-2.224.654a8.035,8.035,0,0,1-5.168-1.869,7.04,7.04,0,0,1-2.477-4.617C405.526,183.944,405.891,183.131,406.115,183.15Z" transform="translate(-291.383 -117.294)" fill="#263238"/>
        <path id="Trazado_145313" data-name="Trazado 145313" d="M404.141,144.842c-.3.8-3.252.4-6.738.794s-6.308,1.318-6.766.589c-.2-.346.3-1.1,1.439-1.869a11.8,11.8,0,0,1,10.28-1.047C403.637,143.786,404.272,144.422,404.141,144.842Z" transform="translate(-290.4 -114.639)" fill="#263238"/>
        <path id="Trazado_145314" data-name="Trazado 145314" d="M434.233,145.532c-.523.673-2.561-.047-5.018-.093s-4.542.411-5.018-.3c-.206-.346.121-1.019,1.037-1.645a7.261,7.261,0,0,1,8.093.318C434.186,144.513,434.466,145.2,434.233,145.532Z" transform="translate(-292.595 -114.628)" fill="#263238"/>
        <path id="Trazado_145315" data-name="Trazado 145315" d="M364.619,156.529s.841,4.467,1.065,6.476c.084.738,0,8.916,1.972,9.345,1.71.355,5.1-1.206,6.617-4.589s4.392-11.5,4.075-15.2c-.421-5.028-.654-10.149.355-15.1s3.374-9.775,7.346-12.9,9.719-4.2,14.242-1.935c2.8,1.4,4.869,3.878,7.476,5.607a11.6,11.6,0,0,0,7.962,2.065,7.477,7.477,0,0,0,6.159-5.047c.822-2.944-.692-6.168-3.056-8.121a18.663,18.663,0,0,0-8.411-3.448,45.221,45.221,0,0,0-25.064,1.757c-7.916,3.075-14.953,8.981-18.317,16.766-3.906,9-3.458,14.523-2.42,24.3" transform="translate(-288.652 -112.682)" fill="#263238"/>
        <path id="Trazado_145316" data-name="Trazado 145316" d="M410.037,160.427a22.668,22.668,0,0,0-.5-3.177,13.082,13.082,0,0,0-4.776-7.112,12.84,12.84,0,0,0-5.448-2.392,13.019,13.019,0,0,0-6.785.57,11.99,11.99,0,0,0-3.252,1.766,11.859,11.859,0,0,0-2.729,2.738,12.858,12.858,0,0,0,0,15.224,12.255,12.255,0,0,0,2.729,2.738,11.99,11.99,0,0,0,3.252,1.757,13.021,13.021,0,0,0,6.785.579,12.806,12.806,0,0,0,5.448-2.4,13.083,13.083,0,0,0,4.785-7.1,23.363,23.363,0,0,0,.5-3.187.556.556,0,0,1,0,.215v.626a5.321,5.321,0,0,1-.084,1.019,8.55,8.55,0,0,1-.243,1.364A13.079,13.079,0,0,1,404.953,171a13.241,13.241,0,0,1-12.588,1.963,12.346,12.346,0,0,1-3.383-1.8,12.509,12.509,0,0,1-2.8-2.8,13.3,13.3,0,0,1,0-15.794,13.247,13.247,0,0,1,13.214-5.224,13.2,13.2,0,0,1,10.364,9.859,8.664,8.664,0,0,1,.243,1.374,5.214,5.214,0,0,1,.084,1.009v.626A.908.908,0,0,1,410.037,160.427Z" transform="translate(-289.94 -114.935)" fill="#263238"/>
        <path id="Trazado_145317" data-name="Trazado 145317" d="M446.4,160.426a24.652,24.652,0,0,0-.5-3.177,13.083,13.083,0,0,0-4.785-7.112,12.784,12.784,0,0,0-5.448-2.392,12.891,12.891,0,0,0-12.757,5.075,12.823,12.823,0,0,0,0,15.224,12.194,12.194,0,0,0,2.72,2.738,11.889,11.889,0,0,0,3.262,1.757,12.986,12.986,0,0,0,6.775.579,12.807,12.807,0,0,0,5.448-2.4,13.083,13.083,0,0,0,4.785-7.1,24.655,24.655,0,0,0,.5-3.187,2.069,2.069,0,0,1,0,.215v.626a6.094,6.094,0,0,1-.075,1.019,8.682,8.682,0,0,1-.252,1.364A12.984,12.984,0,0,1,441.319,171a13.333,13.333,0,0,1-18.822-18.5,12.432,12.432,0,0,1,2.8-2.8,12.636,12.636,0,0,1,3.383-1.813,13.47,13.47,0,0,1,7.009-.551,13.169,13.169,0,0,1,5.607,2.523,13,13,0,0,1,4.757,7.336,8.8,8.8,0,0,1,.252,1.374,5.983,5.983,0,0,1,.075,1.009v.626A1.775,1.775,0,0,1,446.4,160.426Z" transform="translate(-292.317 -114.934)" fill="#263238"/>
        <path id="Trazado_145318" data-name="Trazado 145318" d="M419.932,159.769a6.677,6.677,0,0,1-1.215-.411,7.838,7.838,0,0,0-3-.393,8.176,8.176,0,0,0-2.9.766c-.7.346-1.093.645-1.14.579s.28-.439.935-.878a6.747,6.747,0,0,1,6.168-.411C419.6,159.376,419.969,159.731,419.932,159.769Z" transform="translate(-291.779 -115.678)" fill="#263238"/>
        <path id="Trazado_145319" data-name="Trazado 145319" d="M426.013,124.639c.2-1-.14-1.561.43-1.972s1.869.766,2.3,1.252c.15.159.6-.458.776-.57a3.41,3.41,0,0,0,.336-1.28c-.084-.7-1.178-.935-1.692-1.364a5.2,5.2,0,0,0-1.822-1.037,1.756,1.756,0,0,0-1.738.1,1.71,1.71,0,0,0-.393,1.308,3.577,3.577,0,0,0,.262,1.364,1.866,1.866,0,0,0,.935.991" transform="translate(-292.599 -113.127)" fill="#263238"/>
        <path id="Trazado_145320" data-name="Trazado 145320" d="M363.9,148.289s9.467,3.467,14.392,5.561l-.28-4.841-13.766-5.448S363.891,147.158,363.9,148.289Z" transform="translate(-288.652 -114.703)" fill="#ebebeb"/>
        <path id="Trazado_145321" data-name="Trazado 145321" d="M364.85,140.57a54.493,54.493,0,0,1,6.7,2.57,52.769,52.769,0,0,1,6.542,3.019,54.5,54.5,0,0,1-6.7-2.57A52.773,52.773,0,0,1,364.85,140.57Z" transform="translate(-288.714 -114.507)" fill="#ebebeb"/>
        <path id="Trazado_145322" data-name="Trazado 145322" d="M367.622,248.086l-.729-22.906s4.551,20.962,28.391,20.691c22.775-.262,22.364-18.467,22.364-18.467l.813,9.233v37.3L403.6,334.783l-18.981,2.374L363.65,253.983Z" transform="translate(-288.636 -120.045)" fill="#7e5ee3"/>
        <path id="Trazado_145323" data-name="Trazado 145323" d="M415.805,241.676a2.357,2.357,0,0,1-.271.486,13.669,13.669,0,0,1-.935,1.327,19.631,19.631,0,0,1-4.243,4.112,24.405,24.405,0,0,1-7.925,3.738,27.921,27.921,0,0,1-10.7.738,34.682,34.682,0,0,1-10.28-3.093,44.739,44.739,0,0,1-7.476-4.523,52.684,52.684,0,0,1-4.542-3.738c-.514-.467-.888-.86-1.15-1.121a2.521,2.521,0,0,1-.374-.411,2.576,2.576,0,0,1,.439.346l1.215,1.047a57.486,57.486,0,0,0,4.617,3.626,46.625,46.625,0,0,0,7.476,4.392,34.857,34.857,0,0,0,10.14,3.009,27.958,27.958,0,0,0,10.514-.682,25.081,25.081,0,0,0,7.85-3.57,21.045,21.045,0,0,0,4.29-3.944C415.347,242.293,415.768,241.648,415.805,241.676Z" transform="translate(-288.915 -120.962)" fill="#263238"/>
        <path id="Trazado_145324" data-name="Trazado 145324" d="M395.951,436.348,395.6,328.221,364.9,249.337l-1.028-23.747-18.691,14.149s-27.223,93.707-27.681,90.473,0,106.136,0,106.136Z" transform="translate(-285.601 -120.072)" fill="#ebebeb"/>
        <path id="Trazado_145325" data-name="Trazado 145325" d="M400.653,443.167c-.131,0-.243-24.364-.243-54.418s.112-54.418.243-54.418.243,24.364.243,54.418S400.784,443.167,400.653,443.167Z" transform="translate(-291.042 -127.19)" fill="#263238"/>
        <path id="Trazado_145326" data-name="Trazado 145326" d="M347.4,257.21l3.794,2.878-2.663,17.495,44.821,46.951-40.709-53.465,3.467-13.859Z" transform="translate(-287.572 -122.142)" fill="#e0e0e0"/>
        <path id="Trazado_145327" data-name="Trazado 145327" d="M395.429,381.946l-68.792-20.167-2.28-52.25,18.868-68.838s-44.97,22.438-48.035,36.737-10.439,48.989-11.215,74.081c-.7,22.429-.8,37.382,4.318,44.587,14.672,20.5,111.341,24.167,149.957,0" transform="translate(-283.398 -121.061)" fill="#ebebeb"/>
        <path id="Trazado_145328" data-name="Trazado 145328" d="M394.2,323.59a2.159,2.159,0,0,1-.224-.252c-.14-.178-.364-.449-.617-.766l-2.336-2.991c-2.037-2.635-4.944-6.411-8.523-11.065l-27.971-36.606-2.1-2.8-.075-.093V268.9c1.2-4.785,2.364-9.43,3.477-13.859l.224.3H347.12V239.584l.075-.056,13.523-10.28,3.738-2.8.935-.72a1.78,1.78,0,0,1,.346-.224l-.308.271-.935.757-3.654,2.86L347.419,239.8l.075-.15v15.439l-.224-.215h9.084l-.075.3-3.458,13.859-.047-.206,2.112,2.757,27.849,36.7,8.411,11.149c.935,1.308,1.729,2.327,2.262,3.047.243.336.43.607.579.8Z" transform="translate(-287.554 -120.066)" fill="#263238"/>
        <path id="Trazado_145329" data-name="Trazado 145329" d="M428.4,235.726c-5.486-9.588-8.336-8.6-8.336-8.6l.29,3.42v7.187l-2.607,30.84-16.663,67,.346,100.875h63l7.841-123.135-.71-53.054Z" transform="translate(-291.086 -120.171)" fill="#ebebeb"/>
        <path id="Trazado_145330" data-name="Trazado 145330" d="M469.386,262.58s16.308,12.037,17.756,31.41c1.15,15.728,3.738,58.8,4.252,68.175.748,14.6-10.626,48.792-40.232,39.111-17.756-5.813-83.343-28.1-83.343-28.1l4.364-27.859,77.847,4.673,1.551-64.932Z" transform="translate(-288.909 -122.493)" fill="#ebebeb"/>
        <path id="Trazado_145331" data-name="Trazado 145331" d="M368.769,354.435s-22.036-2.383-27.1-1.149c-4.906,1.187-11.887,7.187-11.887,7.187l.1,8.7,35.447,9.916Z" transform="translate(-286.419 -128.408)" fill="#b78876"/>
        <path id="Trazado_145332" data-name="Trazado 145332" d="M401.09,325.5a1.615,1.615,0,0,1,.1-.3c.075-.215.187-.5.327-.86.308-.785.757-1.869,1.318-3.29l4.934-12.074,7.364-17.887c.7-1.673,1.392-3.42,2.262-5.131s1.813-3.42,2.8-5.131a114.436,114.436,0,0,1,6.99-10.093c1.271-1.635,2.551-3.234,3.878-4.766v.252l-2.748-6.981-.093-.234.234-.084,11.467-3.878-.121.318c-5.327-8.9-9.822-16.411-13.018-21.737-1.57-2.635-2.916-4.747-4.346-5.607a5.879,5.879,0,0,0-1.738-.7,6.125,6.125,0,0,1-.645-.159,5.766,5.766,0,0,1,2.458.748,7.975,7.975,0,0,1,2.206,2.14,37.882,37.882,0,0,1,2.29,3.439l13.177,21.663.14.234-.262.084L428.6,259.4l.14-.308,2.757,6.981.056.131-.1.112c-1.308,1.514-2.589,3.112-3.85,4.747a115.142,115.142,0,0,0-6.972,10.018c-1,1.7-1.981,3.374-2.8,5.084s-1.551,3.411-2.252,5.093c-2.8,6.71-5.346,12.757-7.476,17.85s-3.869,9.149-5.075,12.009c-.6,1.392-1.075,2.486-1.4,3.262-.159.355-.28.626-.383.841A1.172,1.172,0,0,1,401.09,325.5Z" transform="translate(-291.086 -120.175)" fill="#263238"/>
        <path id="Trazado_145333" data-name="Trazado 145333" d="M475.86,402.908a1.769,1.769,0,0,1-.271.29l-.841.813a24.209,24.209,0,0,1-3.579,2.71,23.882,23.882,0,0,1-6.542,2.748,26.33,26.33,0,0,1-9.345.6,29.573,29.573,0,0,1-5.374-1.14c-1.869-.579-3.663-1.3-5.607-1.972-3.841-1.4-7.972-2.8-12.308-4.374-8.691-3.047-18.27-6.3-28.363-9.616-20.186-6.626-38.6-12.214-51.942-16.2l-15.812-4.673-4.3-1.28-1.112-.336a2.2,2.2,0,0,1-.374-.14l.393.084,1.121.3,4.327,1.187c3.738,1.047,9.168,2.589,15.887,4.533,13.364,3.9,31.774,9.439,51.989,16.074,10.1,3.308,19.681,6.542,28.363,9.644,4.336,1.542,8.458,3.009,12.3,4.42,1.925.692,3.738,1.421,5.607,2a29.013,29.013,0,0,0,5.3,1.15,26.314,26.314,0,0,0,9.271-.514,24.591,24.591,0,0,0,6.542-2.645,26.425,26.425,0,0,0,3.607-2.626l.869-.776A2.126,2.126,0,0,1,475.86,402.908Z" transform="translate(-286.439 -129.546)" fill="#263238"/>
        <path id="Trazado_145334" data-name="Trazado 145334" d="M328.634,370.45c0,.1-1.243-.168-3.215-.084a14.136,14.136,0,0,0-3.4.561,15.489,15.489,0,0,0-3.832,1.748,17.9,17.9,0,0,0-5.336,5.476c-1.037,1.682-1.5,2.8-1.579,2.8a3.29,3.29,0,0,1,.262-.832,14.4,14.4,0,0,1,1.028-2.149,16.685,16.685,0,0,1,5.364-5.71A15.058,15.058,0,0,1,321.9,370.5a13.736,13.736,0,0,1,3.514-.477,11.437,11.437,0,0,1,2.374.215A3.185,3.185,0,0,1,328.634,370.45Z" transform="translate(-285.207 -129.526)" fill="#263238"/>
        <path id="Trazado_145335" data-name="Trazado 145335" d="M306.66,363.023a.608.608,0,0,1,.084-.252,2.476,2.476,0,0,1,.43-.607,4.423,4.423,0,0,1,2.448-1.215,12.4,12.4,0,0,1,4.037,0,22.935,22.935,0,0,1,4.794,1.168,21.059,21.059,0,0,1,7.6,4.673,15.9,15.9,0,0,1,1.766,2.065,4.083,4.083,0,0,1,.514.85c-.084.065-.85-1.131-2.514-2.663a22.308,22.308,0,0,0-7.532-4.439,25.319,25.319,0,0,0-4.673-1.187,13.163,13.163,0,0,0-3.925-.112,4.511,4.511,0,0,0-2.364,1.009A9.158,9.158,0,0,0,306.66,363.023Z" transform="translate(-284.905 -128.922)" fill="#263238"/>
        <path id="Trazado_145336" data-name="Trazado 145336" d="M332.187,297.564a7.3,7.3,0,0,1-.318-1.411c-.14-.449-.336-.981-.551-1.6a11.249,11.249,0,0,0-1.019-2,28.613,28.613,0,0,0-3.5-4.673,38.183,38.183,0,0,0-5.374-4.729,32.393,32.393,0,0,0-11.747-5.392,24.547,24.547,0,0,0-3.916-.5,8.74,8.74,0,0,1-1.449-.112,8.182,8.182,0,0,1,1.458-.075,19.865,19.865,0,0,1,3.972.355,30.845,30.845,0,0,1,11.962,5.336,35.372,35.372,0,0,1,5.42,4.813,26.9,26.9,0,0,1,3.477,4.8,15.851,15.851,0,0,1,.935,2.065,11.821,11.821,0,0,1,.486,1.654A9.924,9.924,0,0,1,332.187,297.564Z" transform="translate(-284.751 -123.442)" fill="#263238"/>
        <path id="Trazado_145337" data-name="Trazado 145337" d="M467.082,382.3a1.684,1.684,0,0,1,0-.336v-.981c0-.86-.065-2.121-.187-3.738a52.42,52.42,0,0,0-2.8-13.467,19.043,19.043,0,0,0-1.869-4.112,8.067,8.067,0,0,0-3.645-3.093c-3.131-1.346-6.9-1.168-10.729-1.383l-25.083-1.056c-20.728-.935-39.167-1.682-50.755-2.3l.159-.131c-.7,4.262-1.262,7.635-1.645,9.981-.2,1.131-.346,2.009-.458,2.635-.047.28-.093.5-.121.682l-.056.224a1.083,1.083,0,0,1,0-.234l.093-.682c.084-.626.215-1.514.374-2.654.355-2.346.86-5.729,1.5-10v-.131H372l50.755,2.112,25.083,1.131c1.925.093,3.8.14,5.607.29a16.259,16.259,0,0,1,5.233,1.178,8.482,8.482,0,0,1,3.832,3.205,19.049,19.049,0,0,1,1.869,4.205,50.45,50.45,0,0,1,2.654,13.551c.1,1.626.1,2.9.093,3.738v.981C467.091,382.183,467.082,382.3,467.082,382.3Z" transform="translate(-289.044 -128.316)" fill="#263238"/>
        <path id="Trazado_145338" data-name="Trazado 145338" d="M457.983,319.24c.131,0,.243,7.542.243,16.822s-.112,16.822-.243,16.822-.243-7.542-.243-16.822S457.852,319.24,457.983,319.24Z" transform="translate(-294.795 -126.202)" fill="#263238"/>
        <path id="Trazado_145339" data-name="Trazado 145339" d="M295.716,278.17s-.056.215-.187.617a17.851,17.851,0,0,0-.561,1.869c-.458,1.617-1.037,4.028-1.682,7.177-1.3,6.3-2.9,15.513-4.673,27.046-.888,5.775-1.869,12.149-2.8,18.981-.477,3.43-.776,7-1.019,10.7s-.439,7.476-.589,11.439c-.28,7.859-.449,16.158-.224,24.8.075,2.159.15,4.346.327,6.542.056,1.1.243,2.187.374,3.28a27.662,27.662,0,0,0,.794,3.234,18.428,18.428,0,0,0,3.1,5.916,13.269,13.269,0,0,0,5.308,4.093h0a81.18,81.18,0,0,0,13.859,5.289c4.832,1.449,9.822,2.617,14.887,3.654a204.714,204.714,0,0,0,33.457,4.075,155.418,155.418,0,0,0,15.971-.411c5.205-.364,10.28-.935,15.186-1.635A159.8,159.8,0,0,0,414.5,408.5a138.878,138.878,0,0,0,22.037-9.458v.308l-30.148-10.719-8.14-2.906-2.1-.766c-.477-.178-.71-.28-.71-.28l.72.234,2.121.72,8.168,2.8L436.72,399l.364.121-.336.187a139.157,139.157,0,0,1-22.083,9.542,159.6,159.6,0,0,1-27.317,6.4c-4.916.738-10,1.29-15.214,1.654a156.328,156.328,0,0,1-16.018.43,204.489,204.489,0,0,1-33.541-4.075c-5.084-1.047-10.084-2.215-14.953-3.663a82.76,82.76,0,0,1-13.943-5.336h0a13.752,13.752,0,0,1-5.532-4.243,18.88,18.88,0,0,1-3.168-6.075,27.256,27.256,0,0,1-.813-3.29c-.14-1.121-.318-2.224-.374-3.327-.178-2.206-.252-4.4-.318-6.542-.224-8.673,0-16.971.262-24.84q.224-5.888.607-11.448c.252-3.738.561-7.289,1.047-10.719.935-6.869,1.925-13.214,2.8-18.981,1.869-11.532,3.5-20.737,4.85-27.027.673-3.149,1.271-5.561,1.757-7.177.206-.813.467-1.411.6-1.813A1.785,1.785,0,0,1,295.716,278.17Z" transform="translate(-283.382 -123.514)" fill="#263238"/>
        <path id="Trazado_145340" data-name="Trazado 145340" d="M329.74,359.967c11.5-12.738,11-35.382,4.392-51.447-.607,17.4-2.663,32.84-4.233,49.755" transform="translate(-286.416 -125.501)" fill="#e0e0e0"/>
        <path id="Trazado_145341" data-name="Trazado 145341" d="M334.167,312a2.559,2.559,0,0,1,0,.561c0,.421-.056.935-.1,1.589-.112,1.449-.262,3.43-.458,5.841-.411,4.99-.935,11.766-1.579,19.261l-1.514,19.27c-.178,2.411-.327,4.392-.439,5.841l-.14,1.579a3.774,3.774,0,0,1-.075.551,1.88,1.88,0,0,1,0-.551c0-.421,0-.935.047-1.6.047-1.383.15-3.383.28-5.85.29-4.934.757-11.757,1.374-19.28s1.234-14.327,1.729-19.252c.252-2.411.458-4.383.607-5.832.084-.645.15-1.168.2-1.579A2.074,2.074,0,0,1,334.167,312Z" transform="translate(-286.422 -125.728)" fill="#263238"/>
        <path id="Trazado_145342" data-name="Trazado 145342" d="M364.793,287.38a98.409,98.409,0,0,1,.243,9.878,98.69,98.69,0,0,1-.243,9.878c-.131,0-.243-4.43-.243-9.878S364.662,287.38,364.793,287.38Z" transform="translate(-288.695 -124.117)" fill="#263238"/>
        <path id="Trazado_145343" data-name="Trazado 145343" d="M356.79,321.374a10.117,10.117,0,0,0,2.121,5.233c1.084,1.411,3.28,2.8,5.047,2.682a7.7,7.7,0,0,0,6.794-3.411c2.149-3.42,2.682-10.551.935-14.766-1.187-2.9-3.85-5.607-6.981-5.673a7.731,7.731,0,0,0-7.57,5.888" transform="translate(-288.187 -125.299)" fill="#e0e0e0"/>
        <path id="Trazado_145344" data-name="Trazado 145344" d="M357.154,311.315a6.359,6.359,0,0,1,.757-2.019,8.305,8.305,0,0,1,1.542-2.028,7.208,7.208,0,0,1,2.916-1.7,7.288,7.288,0,0,1,1.953-.318,5.872,5.872,0,0,1,2.14.28,8.415,8.415,0,0,1,3.813,2.738,11.014,11.014,0,0,1,2.252,4.673,20.508,20.508,0,0,1,.411,5.542c-.187,2.925-.766,5.841-2.383,8.065a7.3,7.3,0,0,1-3.1,2.336,8.349,8.349,0,0,1-3.514.589h0a5.248,5.248,0,0,1-2.514-.617,8.44,8.44,0,0,1-1.869-1.327,9.47,9.47,0,0,1-2.056-3.065,8.708,8.708,0,0,1-.654-2.271,4.876,4.876,0,0,1-.056-.617.639.639,0,0,1,0-.215,13.173,13.173,0,0,0,.935,3.009A9.489,9.489,0,0,0,359.8,327.3a8.244,8.244,0,0,0,1.869,1.234,4.953,4.953,0,0,0,2.336.551h0a7.477,7.477,0,0,0,6.215-2.8c1.5-2.084,2.084-4.953,2.262-7.813.206-3.738-.421-7.42-2.523-9.906a8.094,8.094,0,0,0-3.626-2.607,5.8,5.8,0,0,0-2.009-.29,7.1,7.1,0,0,0-1.869.271,6.984,6.984,0,0,0-2.8,1.579,8.487,8.487,0,0,0-1.561,1.916A18.641,18.641,0,0,0,357.154,311.315Z" transform="translate(-288.186 -125.286)" fill="#263238"/>
        <path id="Trazado_145345" data-name="Trazado 145345" d="M354.45,321.574a10.136,10.136,0,0,0,2.121,5.233c1.075,1.411,3.28,2.8,5.047,2.682a7.709,7.709,0,0,0,6.794-3.411c2.149-3.43,2.682-10.551.935-14.766-1.187-2.906-3.85-5.607-6.981-5.673a7.728,7.728,0,0,0-7.57,5.878" transform="translate(-288.034 -125.312)" fill="#e0e0e0"/>
        <path id="Trazado_145346" data-name="Trazado 145346" d="M354.813,311.505a6.361,6.361,0,0,1,.757-2.009,8.306,8.306,0,0,1,1.542-2.028,7.215,7.215,0,0,1,4.869-2.019,5.892,5.892,0,0,1,2.14.28,8.414,8.414,0,0,1,3.813,2.738,10.9,10.9,0,0,1,2.243,4.673,20.143,20.143,0,0,1,.421,5.542,15.329,15.329,0,0,1-2.383,8.065,7.294,7.294,0,0,1-3.1,2.336,8.349,8.349,0,0,1-3.514.589h0a5.241,5.241,0,0,1-2.514-.626,8.141,8.141,0,0,1-1.869-1.318,9.243,9.243,0,0,1-2.056-3.075,8.669,8.669,0,0,1-.654-2.262,5.424,5.424,0,0,0-.065-.617.751.751,0,0,1,0-.215,13.192,13.192,0,0,0,.935,3,9.26,9.26,0,0,0,2.075,2.934,8.244,8.244,0,0,0,1.869,1.234,5.072,5.072,0,0,0,2.336.551h0a7.478,7.478,0,0,0,6.205-2.8c1.514-2.093,2.093-4.953,2.271-7.813.206-3.738-.421-7.42-2.523-9.906a8,8,0,0,0-3.6-2.635,5.742,5.742,0,0,0-2-.29,7.047,7.047,0,0,0-4.673,1.869,8.461,8.461,0,0,0-1.561,1.916A16.98,16.98,0,0,0,354.813,311.505Z" transform="translate(-288.032 -125.299)" fill="#263238"/>
        <path id="Trazado_145347" data-name="Trazado 145347" d="M358.308,310.807a4.794,4.794,0,0,0-5.019,2.888,8.293,8.293,0,0,0,0,6.1,7.586,7.586,0,0,0,1.561,2.748,4.111,4.111,0,0,0,2.8,1.355,4.878,4.878,0,0,0,3.86-2.28,8.728,8.728,0,0,0,1.318-7.168c-.43-1.626-1.626-3.28-3.3-3.327" transform="translate(-287.919 -125.648)" fill="#e0e0e0"/>
        <path id="Trazado_145348" data-name="Trazado 145348" d="M359.507,311.121h.374a2.534,2.534,0,0,1,1.019.346,4.981,4.981,0,0,1,2.131,3.215,8.759,8.759,0,0,1-.579,5.719,7.247,7.247,0,0,1-2.093,2.748,4.056,4.056,0,0,1-3.607.869,5.046,5.046,0,0,1-2.878-2.355,10.555,10.555,0,0,1-1.2-3.234,7.188,7.188,0,0,1,.935-5.607,5.03,5.03,0,0,1,3.252-2.075,3.7,3.7,0,0,1,1.075,0c.234.047.355.084.355.1a7.387,7.387,0,0,0-1.393.084,4.962,4.962,0,0,0-3.009,2.084,6.885,6.885,0,0,0-.776,5.355,10.086,10.086,0,0,0,1.168,3.075,4.57,4.57,0,0,0,2.6,2.131,3.579,3.579,0,0,0,3.187-.766,7.133,7.133,0,0,0,1.981-2.561,8.558,8.558,0,0,0,.645-5.458,4.9,4.9,0,0,0-1.869-3.131A3.859,3.859,0,0,0,359.507,311.121Z" transform="translate(-287.904 -125.644)" fill="#263238"/>
        <path id="Trazado_145349" data-name="Trazado 145349" d="M363.4,327.084c-.075,0-.178-.3-.5-.673a3.474,3.474,0,0,0-1.6-1.019,8.026,8.026,0,0,0-1.963-.308c-.514,0-.85-.084-.85-.15s.318-.14.85-.2a5.485,5.485,0,0,1,2.112.187,3.053,3.053,0,0,1,1.729,1.29C363.471,326.7,363.452,327.074,363.4,327.084Z" transform="translate(-288.298 -126.56)" fill="#263238"/>
        <path id="Trazado_145350" data-name="Trazado 145350" d="M364.146,309.45a2.1,2.1,0,0,1-.579.673,4.49,4.49,0,0,1-1.972.86,4.672,4.672,0,0,1-2.149-.112c-.523-.178-.8-.383-.776-.439a10.959,10.959,0,0,0,2.8.075A11.658,11.658,0,0,0,364.146,309.45Z" transform="translate(-288.31 -125.561)" fill="#263238"/>
        <path id="Trazado_145351" data-name="Trazado 145351" d="M433.24,237.82a.706.706,0,0,1,.308.112,8.236,8.236,0,0,1,.832.43,16.437,16.437,0,0,1,2.8,2,20.046,20.046,0,0,1,6.018,9.514,60.848,60.848,0,0,1,2.29,11.084c.168,1.439.252,2.607.308,3.411a5.692,5.692,0,0,1,0,1.262,7.172,7.172,0,0,1-.206-1.243c-.121-.888-.28-2.028-.458-3.383a71.5,71.5,0,0,0-2.42-10.99,20.709,20.709,0,0,0-5.775-9.4A31.274,31.274,0,0,0,433.24,237.82Z" transform="translate(-293.191 -120.873)" fill="#263238"/>
        <path id="Trazado_145352" data-name="Trazado 145352" d="M420.756,347.7c2.71-.1,4.878-2.8,7.588-2.654a3.752,3.752,0,1,1-.635,7.476h0c-2.85-.327-4.514-3.663-7.3-4.3" transform="translate(-292.351 -127.891)" fill="#263238"/>
        <path id="Trazado_145353" data-name="Trazado 145353" d="M443.245,344.9a16.073,16.073,0,0,1-2.533-.206l.15-.935c3.346.533,6.159,0,8.355-1.635,2.8-2.028,4.551-5.663,5.3-10.8v-.2c.308-2.037.729-42.008.729-49.6,0-11.859-10.4-13.476-10.85-13.542s-9.878-1.654-14.9,11.289c-5.252,13.56-13.654,39.69-14.205,42.755-.075.374-.178.841-.29,1.374-.878,3.925-2.691,12.084,2.748,16.775,6.065,5.243,10.85,3.215,11.046,3.131l.383.85c-.224.093-5.5,2.383-12.037-3.271-5.869-5.065-3.972-13.588-3.056-17.691.121-.523.215-.935.28-1.336.561-3.084,8.99-29.326,14.261-42.924s15.812-11.9,15.887-11.869,11.626,1.776,11.626,14.457c0,6.252-.411,47.568-.738,49.736v.187c-.785,5.4-2.691,9.243-5.673,11.429A10.751,10.751,0,0,1,443.245,344.9Z" transform="translate(-291.869 -122.782)" fill="#263238"/>
        <path id="Trazado_145354" data-name="Trazado 145354" d="M456.8,289.874a17.2,17.2,0,0,0-1.944-4.673,16.086,16.086,0,0,0-3.691-4,15.9,15.9,0,0,0-6.009-2.8,17.562,17.562,0,0,0-11.822,1.542,21.1,21.1,0,0,0-4.121,2.944,1.341,1.341,0,0,1,.215-.28,6.477,6.477,0,0,1,.7-.748,14.038,14.038,0,0,1,3.037-2.215,17.36,17.36,0,0,1,12.1-1.72,16.053,16.053,0,0,1,6.168,2.953,15.509,15.509,0,0,1,3.738,4.177,12.169,12.169,0,0,1,1.439,3.477,7.734,7.734,0,0,1,.2,1.009A1.233,1.233,0,0,1,456.8,289.874Z" transform="translate(-292.927 -123.471)" fill="#263238"/>
        <path id="Trazado_145355" data-name="Trazado 145355" d="M482.694,369.677a32.842,32.842,0,0,0-1.29-3.981,17.345,17.345,0,0,0-6.336-7.607,13.759,13.759,0,0,0-5.14-1.869,44.147,44.147,0,0,0-4.533-.467l-3.075-.215a5.4,5.4,0,0,1-1.121-.15,4.67,4.67,0,0,1,1.131,0l3.084.056a38.713,38.713,0,0,1,4.579.374,13.753,13.753,0,0,1,5.336,1.869,16.906,16.906,0,0,1,6.392,7.888,14.981,14.981,0,0,1,.86,2.981A4.27,4.27,0,0,1,482.694,369.677Z" transform="translate(-295.021 -128.566)" fill="#263238"/>
        <path id="Trazado_145356" data-name="Trazado 145356" d="M433.75,352.226s9.2-13.915,11.542-15.738,22.429-10.887,24.756-9.43.935,4.617.935,4.617,8.486-2.972,9.392-1.8a4.2,4.2,0,0,1,0,4.785s4.673-.72,4.673.729a5.954,5.954,0,0,1-2.71,4.878c-2.168,1.626-16.27,11.009-17.4,13.607l-4.57-.28Z" transform="translate(-293.224 -126.704)" fill="#b78876"/>
        <path id="Trazado_145357" data-name="Trazado 145357" d="M462.05,348.778a3.977,3.977,0,0,1,.421-.878,17.053,17.053,0,0,1,1.514-2.168,25.247,25.247,0,0,1,6.663-5.607,50.383,50.383,0,0,1,7.888-3.738c1.037-.4,1.869-.7,2.477-.935a4.064,4.064,0,0,1,.935-.262,3.536,3.536,0,0,1-.869.439l-2.42,1.037a64.01,64.01,0,0,0-7.757,3.8,27.855,27.855,0,0,0-6.654,5.411C462.788,347.61,462.134,348.825,462.05,348.778Z" transform="translate(-295.077 -127.246)" fill="#aa6550"/>
        <path id="Trazado_145358" data-name="Trazado 145358" d="M449.58,348.336a4.764,4.764,0,0,1,.449-1.019c.318-.645.776-1.57,1.411-2.691a25.68,25.68,0,0,1,2.533-3.738,11.7,11.7,0,0,1,1.925-1.916c.776-.523,1.589-1.009,2.439-1.514a66.356,66.356,0,0,1,8.972-4.467,24.27,24.27,0,0,1,2.878-.935,5.383,5.383,0,0,1,1.1-.2c0,.084-1.523.439-3.85,1.486a84.469,84.469,0,0,0-8.859,4.57c-.841.5-1.654.991-2.411,1.486a11.69,11.69,0,0,0-1.869,1.8,27.284,27.284,0,0,0-2.579,3.645l-1.551,2.6A4.977,4.977,0,0,1,449.58,348.336Z" transform="translate(-294.26 -127.028)" fill="#aa6550"/>
      </g>
      <g id="freepik--Desk--inject-8" transform="translate(38.06 424.51)">
        <path id="Trazado_145359" data-name="Trazado 145359" d="M667.886,451.363c0,.131-140.995.243-314.885.243s-314.941-.112-314.941-.243S179.026,451.12,353,451.12,667.886,451.232,667.886,451.363Z" transform="translate(-38.06 -451.12)" fill="#263238"/>
      </g>
    </g>
  </g>
</svg>
